<svg width="576" height="671" viewBox="0 0 576 671" fill="none" xmlns="http://www.w3.org/2000/svg">
<path d="M72.8195 194.46C112.428 194.46 144.553 223.399 144.553 259C144.553 223.399 176.645 194.46 216.284 194.46C255.923 194.46 288 223.397 288 258.978C288 223.378 320.095 194.438 359.801 194.438C399.443 194.438 431.532 223.378 431.532 258.978C431.532 223.378 463.627 194.438 503.336 194.438C542.911 194.438 575 223.378 575 258.978C575 116.507 446.498 1 288 1C129.505 1 1 116.507 1 258.978C1 223.397 33.101 194.46 72.7767 194.46H72.8195Z" fill="white" stroke="white" stroke-width="1.172" stroke-linecap="round" stroke-linejoin="round"/>
<path d="M575 259L288 514L431.531 259" stroke="white" stroke-width="1.172" stroke-linecap="round" stroke-linejoin="round"/>
<path d="M1 259L288 514L144.531 259" stroke="white" stroke-width="1.172" stroke-linecap="round" stroke-linejoin="round"/>
<path d="M288 259V514" stroke="white" stroke-width="1.172" stroke-linecap="round" stroke-linejoin="round"/>
<path d="M348.653 565.754C351.419 547.26 337.335 537.319 318.076 530.688L324.324 505.637L309.07 501.837L302.988 526.228C298.978 525.228 294.86 524.286 290.767 523.352L296.893 498.8L281.648 495L275.397 520.043C272.079 519.288 268.819 518.541 265.657 517.754L265.675 517.676L244.639 512.424L240.581 528.712C240.581 528.712 251.898 531.305 251.66 531.465C257.837 533.006 258.954 537.094 258.768 540.334L251.652 568.873C252.077 568.981 252.629 569.137 253.238 569.382C252.729 569.255 252.187 569.117 251.625 568.983L241.65 608.962C240.895 610.838 238.979 613.654 234.66 612.584C234.813 612.806 223.573 609.818 223.573 609.818L216 627.274L235.851 632.221C239.544 633.147 243.162 634.116 246.726 635.026L240.414 660.365L255.65 664.165L261.901 639.095C266.064 640.225 270.103 641.267 274.058 642.249L267.828 667.2L283.083 671L289.394 645.709C315.405 650.63 334.964 648.646 343.196 625.126C349.83 606.19 342.866 595.267 329.182 588.145C339.149 585.847 346.656 579.293 348.658 565.756L348.653 565.752L348.653 565.754ZM313.801 614.61C309.086 633.546 277.194 623.31 266.853 620.743L275.23 587.174C285.569 589.755 318.727 594.861 313.801 614.61H313.801ZM318.518 565.479C314.218 582.704 287.673 573.953 279.062 571.807L286.657 541.362C295.267 543.508 322.998 547.513 318.519 565.479H318.518Z" fill="white"/>
</svg>
