<svg width="192" height="254" viewBox="0 0 192 254" fill="none" xmlns="http://www.w3.org/2000/svg">
<path d="M190.853 101.828C194.834 75.2122 174.571 60.9053 146.862 51.3612L155.851 15.308L133.904 9.83936L125.154 44.9433C119.384 43.5043 113.459 42.1484 107.57 40.8043L116.384 5.46859L94.451 0L85.4573 36.0415C80.6828 34.9544 75.9933 33.88 71.4436 32.748L71.4691 32.6346L41.2041 25.0769L35.366 48.5174C35.366 48.5174 51.6486 52.2498 51.3055 52.4795C60.1926 54.6976 61.7998 60.5807 61.5329 65.2438L51.2937 106.317C51.9057 106.472 52.6995 106.697 53.5754 107.049C52.8432 106.867 52.0641 106.669 51.2556 106.475L36.9037 164.013C35.8176 166.713 33.0608 170.765 26.8473 169.226C27.0673 169.545 10.8961 165.246 10.8961 165.246L0 190.367L28.5601 197.487C33.8732 198.82 39.0798 200.214 44.2072 201.525L35.1255 237.991L57.0468 243.46L66.0405 207.38C72.0292 209.006 77.8409 210.506 83.5305 211.919L74.567 247.829L96.5147 253.297L105.595 216.899C143.019 223.982 171.159 221.126 183.003 187.276C192.547 160.023 182.528 144.304 162.84 134.053C177.18 130.746 187.981 121.314 190.861 101.831L190.854 101.826L190.853 101.828ZM140.71 172.141C133.928 199.394 88.042 184.662 73.1652 180.968L85.2168 132.656C100.093 136.37 147.799 143.719 140.711 172.141H140.71ZM147.498 101.433C141.31 126.222 103.119 113.628 90.7303 110.54L101.657 66.7239C114.046 69.812 153.943 75.5759 147.499 101.433H147.498Z" fill="white"/>
</svg>
