<svg width="49" height="49" viewBox="0 0 49 49" fill="none" xmlns="http://www.w3.org/2000/svg">
<path d="M11.82 29.7103C8.96998 29.7103 6.65198 27.3727 6.65198 24.4987C6.65198 21.6256 8.96998 19.2881 11.82 19.2881C14.67 19.2881 16.988 21.6256 16.988 24.4987C16.988 27.3727 14.67 29.7103 11.82 29.7103ZM15.088 24.4977C15.088 22.6815 13.622 21.2031 11.82 21.2031C10.019 21.2031 8.55298 22.6815 8.55298 24.4977C8.55298 26.3149 10.019 27.7932 11.82 27.7932C13.622 27.7943 15.088 26.3159 15.088 24.4977Z" fill="white"/>
<path d="M23.139 27.9145C21.651 32.9597 17.1 36.4216 11.821 36.4216C5.303 36.4206 0 31.0719 0 24.4979C0 17.9259 5.303 12.5781 11.82 12.5781C16.829 12.5781 21.311 15.8213 22.964 20.5498L48.59 20.5498V27.9134H45.9V36.0596H39.043V27.9134H37.939V36.0596H31.083L31.083 27.9134L23.139 27.9134V27.9145ZM32.984 34.1436H36.039V25.9974H40.943V34.1436H43.999V25.9974H46.689V22.4679H21.552L21.356 21.7721C20.146 17.4872 16.227 14.4952 11.82 14.4952C6.351 14.4952 1.9 18.9837 1.9 24.4989C1.9 30.015 6.351 34.5036 11.82 34.5036C16.39 34.5036 20.453 31.2393 21.479 26.7406L21.649 25.9984H32.984V34.1436Z" fill="white"/>
</svg>
