<svg width="64" height="91" viewBox="0 0 64 91" fill="none" xmlns="http://www.w3.org/2000/svg">
<path fill-rule="evenodd" clip-rule="evenodd" d="M18.0814 24.8127C23.3531 19.9035 31.783 16.1357 42.0312 18.4048C52.2186 20.6605 58.5092 27.4193 61.4561 34.0286C62.9198 37.3114 63.6107 40.6685 63.4815 43.5426C63.3605 46.2347 62.4384 49.3698 59.6861 50.7916L59.6473 50.8117L39.9474 60.2224L43.2809 60.9605C45.6581 61.4868 47.1584 63.8406 46.6321 66.2177L42.1269 86.5648C41.6006 88.942 39.2469 90.4424 36.8697 89.916L16.5226 85.4109C14.1455 84.8845 12.6451 82.5308 13.1714 80.1536L17.6766 59.8065C18.2029 57.4294 20.5567 55.929 22.9338 56.4553L27.0498 57.3667L13.2477 40.6211C11.1478 38.3343 11.6405 35.0444 12.5312 32.6905C13.5292 30.0526 15.4648 27.2494 18.0814 24.8127ZM22.7006 43.2684L31.657 54.1349L33.5321 45.6666L22.7006 43.2684ZM39.0101 46.8796L37.1351 55.3478L49.8416 49.2778L39.0101 46.8796ZM57.5052 45.228L17.3766 36.3429C17.3913 35.9976 17.4814 35.4623 17.7789 34.676C18.4198 32.9819 19.8032 30.876 21.9051 28.9187C26.0704 25.0399 32.6758 22.08 40.8183 23.8829C49.0215 25.6992 53.9988 31.0814 56.3316 36.3134C57.5077 38.9513 57.9596 41.44 57.8764 43.2906C57.8338 44.2398 57.6703 44.8479 57.5052 45.228ZM22.8947 62.1933L18.9094 80.1927L36.9088 84.178L40.8941 66.1787L22.8947 62.1933Z" fill="white"/>
<path fill-rule="evenodd" clip-rule="evenodd" d="M28.6602 1.8919C28.8216 3.08715 27.9835 4.18691 26.7882 4.34828C18.8419 5.42111 9.93594 10.5658 3.96186 18.9408C3.26145 19.9226 1.89768 20.1508 0.915801 19.4504C-0.0660824 18.75 -0.294265 17.3862 0.40614 16.4044C7.02906 7.11984 16.9767 1.26565 26.2038 0.0198921C27.3991 -0.141479 28.4989 0.696646 28.6602 1.8919ZM36.64 12.2913C23.764 11.7978 12.415 18.9969 7.04225 31.1727C6.55535 32.2761 5.26612 32.7759 4.16267 32.289C3.05923 31.8021 2.55943 30.5129 3.04634 29.4095C9.11705 15.6518 22.0801 7.36245 36.8073 7.92689C38.0125 7.97309 38.952 8.98755 38.9058 10.1928C38.8596 11.398 37.8452 12.3375 36.64 12.2913Z" fill="white"/>
</svg>
