<svg id="Layer_1" data-name="Layer 1" xmlns="http://www.w3.org/2000/svg" viewBox="0 0 763.47 742.05"><defs><style>.cls-1{fill:#e0dfe0;}.cls-2{fill:#5c5c5b;}.cls-3{fill:#fff;}.cls-4{fill:#fefefe;}.cls-5{fill:#fcfcfc;}.cls-6{fill:#fafafa;}</style></defs><g id="Wq9mEp.tif"><path class="cls-1" d="M428.31,830.43c-7.33-1.68-14.83-3.38-22.32-5.11-8.7-2-17.34-4.77-26.42-3.69-7.75.92-14.7-.88-21.78-4-11.38-5-23.66-7.23-35.68-10.08-8.83-2.09-16.9-5.09-24.12-10.83-9.57-7.61-19.63-14.62-29.52-21.82-8.24-6-14-14.42-21.2-21.43-4.62-4.5-8.55-9.7-13-14.38-12.27-12.85-23.57-26.53-35.17-40-2.75-3.19-6.7-4.87-10.3-6.74-15.11-7.85-28-18.38-39.55-30.81a115.94,115.94,0,0,0-10.6-9.82c-5.72-4.78-9-11-11.53-17.84-3.65-9.79-10-17.36-18.25-23.74a134.23,134.23,0,0,1-34.41-40.13c-3.69-6.45-8.26-12.38-12.05-18.77-3.34-5.61-4.28-12.18-6.23-18.33-2.86-9-5.74-18.07-6.52-27.6a23,23,0,0,1-.27-3.69,48.07,48.07,0,0,0-4-23.8c-1.91-4.26-1.54-8.65-.87-12.88,1.54-9.74,2.17-19.33-.92-28.91-1.37-4.26,2.15-7.16,3.61-10.59,3.31-7.77,8.76-14,15.1-19.4,3.17-2.71,3.15-6.46,3.47-9.83,1.2-13,7.42-23.66,14.57-34.12,6.59-9.64,11.4-20.2,11.22-32.21-.2-13.3,3.49-25.48,9.45-37.16,1.63-3.19,3-6.49,4.51-9.76a38,38,0,0,1,8.78-12.87c5.78-5.34,11.21-11.06,16.76-16.65,2.43-2.46,4.72-5.17,8-6.36,8.45-3,12.84-10.89,19.43-16.11a74.17,74.17,0,0,1,7.68-5.56A12.57,12.57,0,0,0,172,218.8a7.16,7.16,0,0,1,4.19-4.27c19.56-8.77,37.52-20.31,55.27-32.18a94.11,94.11,0,0,1,34-14.26,107.76,107.76,0,0,0,28.81-9.88c.36-.18.92-.18,1.13-.45,6.12-8.17,16.53-8.09,24.48-12.75,16.47-9.66,35.6-11.55,53.18-18,19.13-7,38.35-13.81,57.6-20.52,11.45-4,23.51-5.48,35.3-8.09,7.1-1.57,14.2-1.6,21.36-1.58,4.41,0,8.15-.7,10.51-5.31,1.89-3.7,7.42-4.12,10.52-1.28,5,4.55,10.7,5.6,17.24,4.54,3.24-.53,6.68-1.81,10,.09,1.18.67,2.16,0,2.91-.89,2.45-2.81,5.56-2.5,8.7-1.88,5.21,1,10.63,1.51,13.58,7.13.87,1.67,2.92.78,4.56.47,2.34-.43,4.6-1.3,7,.54,2.78,2.09,4.45,3.87,2,7.27-1.34,1.85-.44,2.89,1.68,2.59,6.38-.89,11.89,1.79,17.39,4.27a42.3,42.3,0,0,0,12.78,3,14.23,14.23,0,0,1,7.17,2.77,82.8,82.8,0,0,0,21.17,11c1.27.47,3.08.85,3.39,2.17,1.06,4.48,4.24,5.18,8.07,5.23,5.44.08,8.86,4.08,12.81,6.91,19.84,14.22,39.13,29.09,55.7,47.18a15.7,15.7,0,0,0,3.87,3.06C729.54,202,735.11,213,741.81,223c2.14,3.21,4.16,6.53,7.5,8.61,4.94,3.08,7.62,7.83,10,12.85s7.4,7.75,11.55,10.95c5.81,4.48,9.43,10.46,12.76,16.53,7.16,13.07,13,26.75,16.39,41.37a9.68,9.68,0,0,0,.68,2c6.23,12.85,4.74,26.22,2.61,39.62-.83,5.21,2,9.63,3,14.41.44,1.92.78,3.57-.23,5.5-2,3.85-1.29,8.09-1.09,12.2,0,1.07.68,2.13-.08,3.15-3.31,4.49-2.57,9.7-2.6,14.77,0,2.49-.19,5,0,7.46.86,9.95-1.08,19.45-4.32,28.77-1.23,3.51-1,7.17-.43,10.65,1.56,9.46,1.35,18.47-3.75,27-3.69,6.19-4.07,13.42-4.59,20.31-.4,5.23-1.1,10.09-3.81,14.56a7.23,7.23,0,0,0-.63,7.08c.47,1.07,1,2.21.32,3.55-1.67,3.13-2.59,6.38-.87,9.86.65,1.33-.32,2.38-.85,3.46a96.07,96.07,0,0,1-4.86,9.61c-3.77,5.93-4.66,12.55-5.2,19.28-.12,1.56-.14,3.2-1.23,4.28-2.66,2.61-2.31,5.58-1.7,8.81.91,4.77,1.18,9.36-2.54,13.49a19.4,19.4,0,0,0-4.3,7.93c-1.37,5.56-5.17,9-9.25,12.29-1.21,1-2.41,1.81-2.73,3.45-1.94,9.88-8.3,17.56-13.12,26-6.1,10.69-15,19.31-22.36,29.06a164.77,164.77,0,0,1-20.33,22.79c-8.35,7.57-16.4,15.54-26.19,21.35a14,14,0,0,0-4.57,4.63c-3.41,5.34-6.59,10.86-10.42,15.87-1.57,2,.23,4-1.49,6.17-5.55,7-13.88,9.73-20.77,14.61-12.86,9.13-28.35,11.91-42.83,17-20.91,7.41-42,14.16-62.89,21.74-7.2,2.62-13.9,6.71-20.66,10.42-16.15,8.89-33,16-51.1,19.63C446.14,827.81,437.29,829,428.31,830.43Z" transform="translate(-43.27 -88.38)"/><path class="cls-2" d="M551.73,712.22c-4.09-.22-8.67-2.65-13.42-4.37-2.56-.94-4.73-1.12-7,.44-.11.08-.24.14-.35.22-10.44,6.87-21.69,8.57-34.17,7.47-16.74-1.47-33.63-1.57-50.46-1.75-5.33-.06-9.23-2.51-13.12-5.2-6.07-4.2-13.06-5.26-20-5.8a277.19,277.19,0,0,0-29-.63c-6.37.17-11.46-2.35-16.45-5.56-15.11-9.74-31.63-16.54-48.18-23.29a28.42,28.42,0,0,1-8.28-5.24c-8.85-7.9-15.72-17.39-22.11-27.22a19.16,19.16,0,0,0-10.7-8.43c-5.21-1.62-8.23-5.2-9.85-10.26-3.18-10-7.53-19.54-9.87-29.79a16.66,16.66,0,0,1-.48-4.1c.33-9.25-4.14-16.58-9.22-23.75A82,82,0,0,0,230,546.19c-3.62-2.63-6.91-5.56-8.45-9.91-2.21-6.24-7.09-10.07-12.31-13.47-4.22-2.75-6.92-6.51-9.11-10.93-3.37-6.79-7.12-13.4-10.53-20.17a6.12,6.12,0,0,0-4.6-3.63c-10.9-2.32-17-9.18-19-20.05a31.37,31.37,0,0,0-3.94-11.24,48.09,48.09,0,0,1-6.43-19.05,45.26,45.26,0,0,0-7.05-18.8c-3.53-5.35-3.87-11.4-4.55-17.4a12,12,0,0,0-1.83-5.38c-5.51-8.59-10.88-17.28-16.43-25.85-1.33-2.07-2.33-4.14-1.9-6.57.62-3.48-1-4.8-4.2-5.66-6.11-1.68-12.11-3.77-18.16-5.66-2.76-.86-5.49-1.83-8.42-.37-1.09.54-2.61.63-3.07-1s.82-2.16,2-2.63c2.62-1,5.13-1.53,8-.44,4.37,1.66,9.06,2.52,13.35,4.35,12.36,5.28,25.47,4,38.33,4.73,8,.48,16,.4,24,.76a7.36,7.36,0,0,0,5.33-1.62c2.47-2,5.1-3.77,7.55-5.79,4-3.31,8.58-4.89,13.55-6.44,13.59-4.24,27-9.58,35.73-21.66,3.75-5.17,6-11.46,8.75-17.32a15.07,15.07,0,0,1,4.8-6c8.33-6.16,16.32-12.78,24.83-18.67a122.39,122.39,0,0,0,35.14-37.39c7-11.48,14.69-22.59,22.08-33.86,1.12-1.71,2.11-3.54,4.15-4.46,9.4-4.22,16.28-11.64,23.62-18.52,8.21-7.72,15.89-16,26.54-20.81,4-1.8,7.69-3.37,12.15-3.07,2.29.15,5,1,6.89-.44,10.36-7.94,22.72-6.25,34.48-7.82,15.83-2.12,31,1.72,46.41,3.77,14.07,1.87,28.08,4.24,42.13,6.3,2.79.4,5.37,1,7.52,3,17.77,16.59,39.36,27.3,60.52,38.52,10.88,5.77,20.22,13.18,29.14,21.47,27.29,25.39,54.4,51,82.23,75.78,13.78,12.27,23,27.7,33.5,42.34,5.71,8,11.08,16.16,16.69,24.18a6,6,0,0,1,1.51,4.12c-.86,9.2,1.51,18,3.46,26.83a17.46,17.46,0,0,1-.1,8.07c-1.06,4.66-2,9.37-2.62,14.11-1.17,9.14-7.7,14.78-13.65,20.51a99.72,99.72,0,0,0-21.77,31.35,19.61,19.61,0,0,0-1.62,11.42c1.35,9.81,4.09,19.46,3.73,29.48a45.43,45.43,0,0,1-.67,6.58,27.57,27.57,0,0,0,2.48,17.21,8,8,0,0,1,.43,6.05c-3.49,11.07-4.22,22.43-3.7,33.94.09,2.07.06,4-1.5,5.81-8.3,9.45-13.29,20.87-18.81,32-3.93,7.9-8,15.75-11.85,23.68-2.92,6-7.13,10.32-13.64,12.34-25.1,7.78-47.76,20.69-70.07,34.13-9.29,5.59-17.61,12.81-26.3,19.39-2.79,2.11-5.56,3.8-9.23,4C568,710.73,560.43,711.49,551.73,712.22Z" transform="translate(-43.27 -88.38)"/><path class="cls-1" d="M131.73,360.11c14.77.44,29.53.8,44.29,1.37a10.69,10.69,0,0,0,7.93-2.62c1.56-1.35,3.29-2.51,4.91-3.8,4.65-3.71,9.86-5.83,15.61-7.74,13.58-4.48,27.07-9.9,36.15-22,4.17-5.53,6.28-12.25,9.36-18.4a14.31,14.31,0,0,1,4.35-5.32c11.95-8.93,24-17.75,35.61-27.08a84.64,84.64,0,0,0,17.43-18.7c9.91-14.74,19.52-29.67,29.27-44.52.82-1.24,1.42-2.7,2.93-3.38,12.4-5.64,21-16,30.44-25.16,7.18-7,15.47-11.86,24.11-16.46,2.1-1.11,4.36-.61,6.49-.49,4.55.25,8.85-.29,12.56-3.07,4.81-3.59,10.4-3.91,16.05-4.24,8.54-.51,17.07-1.42,25.61-1.57,7.31-.13,14.47,1.82,21.69,2.88,18,2.64,36,5.45,54,8.14a6.64,6.64,0,0,1,3.79,1.41c19.11,17.86,42.38,29.26,65.13,41.29C611.3,217,620.39,226.24,630,235q43.05,39.47,85.79,79.26c6.16,5.7,10,13.16,14.77,19.88,8.56,12,16.76,24.29,25.2,36.39a8,8,0,0,1,1.67,5.34,56.76,56.76,0,0,0,2.24,19.19c3.39,11.71-.76,22.65-4.15,33.56-.65,2.07-2.72,3.76-4.3,5.47-5.16,5.58-10.38,11.09-15.59,16.62-7.36,7.82-10.81,17.91-15,27.39-2,4.58.76,10.28,1.62,15.42,1.77,10.62,3.44,21.18,1.46,32A15.92,15.92,0,0,0,725,535.62a15.82,15.82,0,0,1,1,12.75c-3.3,9.18-2.7,18.76-2.56,28.27a10.76,10.76,0,0,1-2.67,7.93c-6.69,7.5-10.76,16.61-15.18,25.5-4.6,9.26-9.3,18.48-13.82,27.78-2.78,5.73-6.81,9.84-13.06,11.74-25.16,7.64-47.71,20.78-70,34.18-9.89,5.93-18.7,13.65-28,20.65a8.76,8.76,0,0,1-4.84,1.94c-7.57.6-15.12,1.32-22.68,2.06-3.63.35-6.78-1.33-9.8-2.75-5.93-2.8-11.34-3.16-17,.75-7.74,5.39-16.29,6.63-25.77,6-18.31-1.25-36.69-1.39-55-1.95a9.34,9.34,0,0,1-5.79-1.79c-8.63-6.79-18.77-8.92-29.4-9.32-8-.3-16-.54-24-.45-5.1.06-9.65-.76-14.07-3.63-16-10.38-33.45-17.83-51.05-25-8.1-3.29-13-10.4-18.58-16.63a72.68,72.68,0,0,1-7.89-11.13c-4-6.73-9-12.06-16.86-14.19-2.77-.74-4.21-3.09-5.12-5.59-3.37-9.33-6.74-18.66-9.84-28.09a24.55,24.55,0,0,1-1.19-8.55c.38-9.11-4.47-16-9.27-22.89a75.52,75.52,0,0,0-19.18-19.26c-4.05-2.8-7.42-6.17-9.14-10.9-2.16-5.95-7-9.46-11.91-12.77a25,25,0,0,1-8.77-10.15c-3.25-6.69-7.1-13.1-10.28-19.83-1.64-3.49-4-5.55-7.65-6-5-.63-8.36-3.5-11.65-7.07-2.84-3.09-3.58-6.73-4.37-10.47-.86-4.07-1.89-8.07-4.11-11.62-3.74-6-5.43-12.69-6.44-19.49A45.41,45.41,0,0,0,152.52,418,30.75,30.75,0,0,1,148,402.7a18.66,18.66,0,0,0-3.17-9.66c-5.32-8.05-10.37-16.29-15.51-24.47a14.9,14.9,0,0,1-1.66-2.85C126.19,361.52,127.33,360,131.73,360.11Z" transform="translate(-43.27 -88.38)"/><path class="cls-3" d="M249.9,465.57q1.28-17,2.56-34.09c0-.41,0-.92.2-1.21,4.78-6.55,3.71-13.84,3.38-21.31-.3-6.93.91-13.95,1.64-20.91a5,5,0,0,1,2.09-3.85c6.33-4.34,12-9.79,20-11.26,4-.74,5.89-3.06,6.23-6.95a5.44,5.44,0,0,1,.57-2c4.93-9.25,1.11-17.19-3.74-24.95-2.9-4.63-3-10-3.54-15.08-.43-3.78,8.06-12.47,11.95-13.29,2.83-.58,5.61-1.36,8.44-1.88a9.88,9.88,0,0,0,6.26-4.16c7.1-9.11,14-18.43,21.89-26.84,7.39-7.9,17.09-11.88,28-13.53,11.39-1.72,22.65-4.41,33.92-6.86a12.44,12.44,0,0,1,7.28.19c3.63,1.37,6,.06,7.39-3.38,3-7.38,9.65-10,16.41-12,7.75-2.2,15.47-1.66,23.4.82,18.77,5.85,37.79,10.93,56.7,16.37a12.08,12.08,0,0,1,3.32,1.59c7.81,5.17,15.53,10.49,23.42,15.54,2.41,1.54,2.82,2.87,1.45,5.33a21.51,21.51,0,0,0-2.94,12.68,16.3,16.3,0,0,1-.55,6.14c-1.69,5.75,1.85,10,4.59,14.37,3,4.79,5.59,9.93,9.19,14.22,6.12,7.3,4.46,15.7,3.88,23.72-.44,6.09-.94,11.83,2.71,17a15.65,15.65,0,0,1,1.73,15.58c-.86,2.21-.3,3.84.92,5.71,3.67,5.66,7.62,11.21,10.59,17.24,4,8.09,11.69,8.73,18.83,10.76a5,5,0,0,0,2.47,0c8.4-2,13.41,2.89,17.65,8.89,5.74,8.12,13.92,9.42,22.93,8.87,2.88-.17,5.78-.25,8.67-.29,2,0,2.82,1.43,3.64,2.93,3.1,5.69,6.11,11.43,9.39,17s3.65,11.42,3.68,17.52a5.77,5.77,0,0,1-1.32,3.38c-6,8.89-12,17.82-18,26.72-1.55,2.28-3.6,3.85-6.54,3.68-6.64-.38-9.8,4.78-13.8,8.61-1,1-.1,1.72.41,2.49a84.86,84.86,0,0,0,5.09,7.53c3.11,3.7,4,8.09,4.25,12.6.71,12.64,1.18,25.29,1.74,37.94a10.15,10.15,0,0,0,.07,2.07c3.37,12.38-4.18,19-13,25.22-7,5-14.92,7.58-23.15,9.37a11.87,11.87,0,0,0-7,4c-7.61,9.09-17.93,12-29.12,12a111,111,0,0,0-37.13,6.81c-6.11,2.16-11.43,6.52-17.13,9.86a69.13,69.13,0,0,1-23.11,8.62c-6.76,1.14-14.13-1.58-20.84-4-6.2-2.23-12.12-5.28-18.11-8.09q-16.86-7.92-33.63-16a7.66,7.66,0,0,0-5.49-.53c-10.43,2.42-20.89,4.58-31.66,5.17-5.13.29-9.33-1.21-13.54-3.85-11.64-7.34-23.46-14.41-35.11-21.75-3.82-2.41-5.47-6.79-8-10.33-6.7-9.42-13.39-18.87-18.4-29.38a27,27,0,0,1-2.07-6.66c-1.45-7.68-4-14.89-8.67-21.21-6.42-8.62-8.82-18.8-11.42-28.94-3.07-12-5.43-24.17-10.74-35.48C249.72,471.41,250,468.47,249.9,465.57Z" transform="translate(-43.27 -88.38)"/><path class="cls-3" d="M587.47,334.74c-6.81-7.89-13.78-14.95-19.17-23.35-3.87-6-4.19-12.68-3.94-19.47.08-2.27,2.37-2.85,3.73-4.11,2.72-2.53,6.94-3.63,7.44-8.27.07-.71,1.24-1.45,2.06-1.9a13.41,13.41,0,0,0,6.72-8c.93-2.89,8.33-6.16,11.46-6.09,10.19.25,15.05,7.55,19.69,14.84,1.89,3,1.45,6.94,1.87,10.47.45,3.84,1.33,7,5,9.29,4,2.42,7.41,5.71,11.24,8.39,1.91,1.34,2.21,2.91,1.89,5q-1.17,7.51-2.2,15c-.56,4.22,4.09,13,8,14.77,5.34,2.46,8.35,7,11,11.88a38.53,38.53,0,0,0,9.09,11.68c4.59,3.73,5.7,8.49,5.72,13.82a18.8,18.8,0,0,0,1.76,8.41c2.07,4.24-.22,8.39-.35,12.58-.27,9-4.63,16.87-7.82,25-1.9,4.87-4.13,9.62-6,14.5-.92,2.36-2.31,3.05-4.86,3.48-9.23,1.54-12.36-6.35-17.64-10.88-1.23-1.06,0-2.37.7-3.3,5-7,7.2-15.31,9-23.39,1.26-5.67-1-12-.64-18,.47-8.54-5-13.92-9.35-19.91A44,44,0,0,1,623,342.07c-.21-5.88-2.76-11.43-8.86-14.34a82.57,82.57,0,0,1-11.24-6.14c-2.29-1.56-3.81-.86-5.38.51a24.7,24.7,0,0,0-5.33,5.74C590.84,330.07,589.25,332.15,587.47,334.74Z" transform="translate(-43.27 -88.38)"/><path class="cls-3" d="M554.37,375.75c8.34-7.68,15.71-15.87,26.88-18.76,3.72-1,12.23,2.29,14.24,5.56a35.81,35.81,0,0,1,3.15,6.28c.76,2.05,1.53,4.87-.61,6.06-2.77,1.53-5.31,4.86-9.27,2.84a13.26,13.26,0,0,1-1.84-.94c-9.4-6.84-19.2-5.76-29.16-1.5a15,15,0,0,1-2,.64A5.83,5.83,0,0,1,554.37,375.75Z" transform="translate(-43.27 -88.38)"/><path class="cls-3" d="M570.1,646.28c0,4.11-5.13,10.52-8.42,10.93a3.66,3.66,0,0,1-3.27-1.45c-.74-.91.12-1.84.66-2.58a27.85,27.85,0,0,0,5.22-12.41,3.41,3.41,0,0,1,3.39-3c2.28-.19,1.42,1.84,1.64,3C569.68,642.76,570.54,644.73,570.1,646.28Z" transform="translate(-43.27 -88.38)"/><path class="cls-3" d="M603.35,385.57c5.87.68,6.14,1.3,7.81,7,1.15,3.9-1.5,4.82-3.67,6.35-1.24.88-1.55-.43-2.22-1-3.2-2.82-3.06-6.95-4.19-10.56C600.5,385.44,602,385.4,603.35,385.57Z" transform="translate(-43.27 -88.38)"/><path class="cls-4" d="M468.16,675.72c4.48-3.68,8.81-5.07,14-2.67,1.35.63,2.62.9,2.48,2.66s-1.63,1.57-2.8,1.53c-2.41-.07-4.66-.15-5.63,2.81-.43,1.32-1.42.86-2.28.17C472.09,678.77,470.25,677.36,468.16,675.72Z" transform="translate(-43.27 -88.38)"/><path class="cls-5" d="M445.87,662.18l-5.26,2.68c-1.06.54-1.89.33-2.16-.88s-.2-2.31,1.33-2.39c2-.11,3.94,0,5.91,0Z" transform="translate(-43.27 -88.38)"/><path class="cls-6" d="M533,657.45a14.28,14.28,0,0,1,2.6,5.28c-1.39.69-2.92.8-3.72-.39C530.81,660.81,532,659.35,533,657.45Z" transform="translate(-43.27 -88.38)"/></g></svg>