<svg xmlns="http://www.w3.org/2000/svg" viewBox="0 0 773.3 769.04"><defs><style>.cls-1,.cls-3{fill:#1d1d1b;}.cls-2{opacity:0.11;}.cls-3{opacity:0.11;}</style></defs><g id="Layer_2" data-name="Layer 2"><g id="Layer_1-2" data-name="Layer 1"><path class="cls-1" d="M508.91,28.41,501,25.9,494.68,37l-4.57-1.63L496.66,20l35.05,12.54-5,15.94-4.3-1.53,2.12-12.61-7.57-3-11.8,33,7.42,3.26-1.17,3.26-22.66-8.1L490,59.46l7.15,1.94Z"/><path class="cls-1" d="M533.43,52.7a14.5,14.5,0,0,1,7.74-2.61,16.63,16.63,0,0,1,8,1.74q6.54,3.2,8.12,9t-1.79,12.65a18.72,18.72,0,0,1-6,7.42,14.06,14.06,0,0,1-7.7,2.6,17,17,0,0,1-8-1.81q-6.48-3.16-8.09-8.94t1.76-12.66A18.47,18.47,0,0,1,533.43,52.7Zm13.78,17.35q2.89-5.91,3-9.68a5.27,5.27,0,0,0-3.06-5.32q-6-2.94-11.54,8.36-2.89,5.91-2.93,9.72a5.45,5.45,0,0,0,3.13,5.36Q541.68,81.36,547.21,70.05Z"/><path class="cls-1" d="M568.94,69.26l-2.56-2.85L568.5,63l8.75,4.1.15.09L578,69l-1.2,1.91L576,72a17.66,17.66,0,0,1,6.2,0,16.43,16.43,0,0,1,6.25,2.31,10.06,10.06,0,0,1,4,4.05,7.17,7.17,0,0,1,.24,5,26,26,0,0,1-3.28,6.81l-8.51,13.47,2.73,2.27-1.85,2.93-12.59-8L571,98l2.89,1.28,8.51-13.47a22,22,0,0,0,2.17-4.19,4.13,4.13,0,0,0,.08-2.89,5,5,0,0,0-2.15-2.27c-1.85-1.18-4.34-1.63-7.46-1.37L563.84,92.8l2.65,2.29L564.64,98,551.9,90,553.75,87l3.11,1.35Z"/><path class="cls-1" d="M578.14,122.75a7.65,7.65,0,0,1,1.38-7.31,7.27,7.27,0,0,1,4-2.52,10.09,10.09,0,0,1,5-.07,5.31,5.31,0,0,1,1-5.54,6.22,6.22,0,0,1,3.31-2.13,8.6,8.6,0,0,1,4.28-.1,9.35,9.35,0,0,1-1.41-5.84,10.91,10.91,0,0,1,2.44-5.58,9,9,0,0,1,5.09-3.29,12.49,12.49,0,0,1,6.42.26A18.61,18.61,0,0,1,616,94q5.29,4.2,6.25,8.28a7,7,0,0,1,3.14.13,8.37,8.37,0,0,1,3.43,1.62l1.58,1.26-3.91,4.92-4.65-3.69a9.3,9.3,0,0,1-1.77,3.61A10.23,10.23,0,0,1,612,114.4q-4.9.13-10-3.92a21.86,21.86,0,0,1-3.32-3.15A6.17,6.17,0,0,0,597,108a4.38,4.38,0,0,0-1.17,1,2.64,2.64,0,0,0-.55,2.88,11.88,11.88,0,0,0,3.39,3.57l4.84,3.84q9.22,7.32,3.91,14a9.29,9.29,0,0,1-6,3.44,16.59,16.59,0,0,1-8-.76,25.52,25.52,0,0,1-8-4.34Q579.34,126.8,578.14,122.75Zm16.44,8.81a5.53,5.53,0,0,0,5.11-2.17,4.46,4.46,0,0,0,1.21-3.61q-.33-1.66-3-3.75L593,118.12a18.48,18.48,0,0,1-2-1.79,8.06,8.06,0,0,0-4.3,2.92,6.44,6.44,0,0,0-1.66,4.88q.31,2.39,3.48,4.9A11.15,11.15,0,0,0,594.58,131.56Zm18.81-25.93q2.34-2.94,2.37-5.16a4.89,4.89,0,0,0-2.14-4,5.16,5.16,0,0,0-4.37-1.22,8.08,8.08,0,0,0-4.44,3.22q-4.69,5.92-.18,9.51C607.43,110.26,610.36,109.46,613.39,105.63Z"/><path class="cls-1" d="M626.44,123.74q5.64,1.76,11.7,7.54l.92-1a10.85,10.85,0,0,0,2.22-3,3.52,3.52,0,0,0,.09-2.67,8.45,8.45,0,0,0-2.25-3.11,16.81,16.81,0,0,0-4.15-3,37.51,37.51,0,0,0-4.67-1.9l1.28-3.9a15.28,15.28,0,0,1,3.34.74,26.82,26.82,0,0,1,4.77,2.08,21.94,21.94,0,0,1,4.73,3.5,17,17,0,0,1,4.2,5.66,7,7,0,0,1,0,5.17,17.59,17.59,0,0,1-3.95,5.65l-12.28,12.7,2.24,2.17-2.24,2.32a33.17,33.17,0,0,1-2.77-1.87,28.47,28.47,0,0,1-2.9-2.4,4.3,4.3,0,0,1-1.49-2.24,3.14,3.14,0,0,1,1.17-2.17l1.09-1.12a15.76,15.76,0,0,1-5.08-.56,11.34,11.34,0,0,1-5-2.9,10.64,10.64,0,0,1-2.73-4.2,8.71,8.71,0,0,1-.26-4.83,9.78,9.78,0,0,1,2.67-4.68Q620.8,122,626.44,123.74Zm-.5,16.25a10.72,10.72,0,0,0,3.17.62l6.58-6.8q-3.74-3.62-6.8-4.13a5.29,5.29,0,0,0-5,1.47,6.16,6.16,0,0,0-2,3.93,4.54,4.54,0,0,0,1.55,3.5A6.49,6.49,0,0,0,625.94,140Z"/><path class="cls-1" d="M665.84,151.1l-1.75-3.86,3-2.46,7.69,7.36.08.09.13,2-21.45,17.63,2.1,3.28-2.67,2.2-10.23-12.44,2.68-2.2,3,2.79Zm9.09-7.76a4.22,4.22,0,0,1,1.63-2.92,5,5,0,0,1,3.69-1.24,4.88,4.88,0,0,1,3.46,1.94,4.68,4.68,0,0,1,1.28,3.51,4.21,4.21,0,0,1-1.62,2.89,5,5,0,0,1-3.73,1.28,5.26,5.26,0,0,1-3.53-2.11l0,0A4.41,4.41,0,0,1,674.93,143.34Z"/><path class="cls-1" d="M662.72,182.47a4.37,4.37,0,0,0,.16,2.47,9.55,9.55,0,0,0,1.43,3.06,6.28,6.28,0,0,0,3.27,2.67,3.66,3.66,0,0,0,3.21-.62,3.61,3.61,0,0,0,1.55-3.15,34.44,34.44,0,0,0-.89-6.3l-.37-1.72a15.19,15.19,0,0,1-.15-7.19,9.29,9.29,0,0,1,3.86-5.14,7.46,7.46,0,0,1,4.69-1.41,10.22,10.22,0,0,1,5.15,1.72,17.34,17.34,0,0,1,4.72,4.66,27,27,0,0,1,2.4,4c.56,1.18,1.09,2.47,1.6,3.85A8.38,8.38,0,0,0,694,181l-6.17,4.38-2.64-3.73,2.81-3.62a3.06,3.06,0,0,0-.05-1.87,7.82,7.82,0,0,0-1.23-2.52,6.27,6.27,0,0,0-3-2.5,3.24,3.24,0,0,0-3.1.46A3.8,3.8,0,0,0,679,174a7.31,7.31,0,0,0-.11,2.7c.13.85.44,2.38.92,4.58a44.67,44.67,0,0,1,.91,5.69,10.67,10.67,0,0,1-.59,4.59,8,8,0,0,1-3.05,3.83,8.45,8.45,0,0,1-7.59,1.28q-4.11-1.2-7.74-6.33a23.72,23.72,0,0,1-2.63-4.61c-.62-1.47-1.29-3.21-2-5.2l-.4-1.27,6.21-4.41,2.78,3.91Z"/><path class="cls-1" d="M701.13,204.61a14.5,14.5,0,0,1,8,2.19,17,17,0,0,1,6,6.63,20,20,0,0,1,1.57,3.68c.32,1.09.64,2.34,1,3.74l.38,1.69-8.86,4.36-2.37-4.43,4.91-4.27q1.15-1-.28-3.71a5.69,5.69,0,0,0-4.88-3.11q-3.36-.27-8.67,2.51-5.59,3-7.54,6.53a6.67,6.67,0,0,0-.22,6.73,14.66,14.66,0,0,0,5.9,6l-2,2.59a14.18,14.18,0,0,1-4.81-2.63,15.94,15.94,0,0,1-4.37-5.23q-3.5-6.51-1.23-11.94T692.4,207A19.1,19.1,0,0,1,701.13,204.61Z"/><path class="cls-1" d="M701.62,262.16a3.13,3.13,0,0,1,1.9-1.73l1.44-.6a13.85,13.85,0,0,1-4.81-2.75,12.2,12.2,0,0,1-3.54-4.65q-2.13-5.12-.41-8.4t7.8-5.82l15-6.27-.37-3,3-1.26,4.47,8.76,0,0-.3,1.38-18.75,7.83c-2.6,1.08-4.27,2.16-5,3.23s-.78,2.47-.05,4.21A9.31,9.31,0,0,0,707,258l19.54-8.17-.69-3.9,3-1.24L733.5,254l0,.11-.21,1.58-26.21,11,1.25,3-3.06,1.22c-.1-.13-.51-.73-1.25-1.8a22.17,22.17,0,0,1-2.13-4.05A3.94,3.94,0,0,1,701.62,262.16Z"/><path class="cls-1" d="M708.28,278q1.08-2.16,4.54-3.27L733,268.27l-1.14-3.57,2.86-.91c.21.26.57.73,1.09,1.41s.93,1.2,1.25,1.54a5.76,5.76,0,0,0,3,.81c.88.08,3,.08,6.3,0l1.4,4.4-8,2.8,2.69,8.41-4.24,1.35-2.66-8.36-15.46,4.92a42,42,0,0,0-4.29,1.55c-.81.38-1.27.79-1.39,1.23a3.85,3.85,0,0,0,.25,2,14.82,14.82,0,0,0,1.22,2.77,11.93,11.93,0,0,0,1.53,2.23l-2.75,2a16.09,16.09,0,0,1-3.53-3.84,20.21,20.21,0,0,1-2.77-5.48C707.58,281.28,707.57,279.4,708.28,278Z"/><path class="cls-1" d="M741.32,306.25a14.39,14.39,0,0,1,6.7,4.67,16.56,16.56,0,0,1,3.33,7.42q1.32,7.16-2.36,11.85t-11.23,6.1a18.69,18.69,0,0,1-9.56-.44,14,14,0,0,1-6.67-4.64,17,17,0,0,1-3.28-7.46c-.87-4.73-.09-8.67,2.37-11.83s6.19-5.19,11.22-6.12A18.6,18.6,0,0,1,741.32,306.25Zm-5.74,21.4q6.46-1.18,9.57-3.35a5.25,5.25,0,0,0,2.45-5.62q-1.22-6.58-13.59-4.3-6.46,1.2-9.55,3.44a5.42,5.42,0,0,0-2.44,5.7Q723.21,329.94,735.58,327.65Z"/><path class="cls-1" d="M750.36,345.48l-.31-4.84,3.23-.2,1.46,4.76,2.53-.16a12.41,12.41,0,0,1,7,1.56,14.29,14.29,0,0,1,5.27,5,14.7,14.7,0,0,1,2.26,7,11.76,11.76,0,0,1-.34,3.73l-7.38.46a6.2,6.2,0,0,0,1-2.35,10.93,10.93,0,0,0,.35-3.57,4,4,0,0,0-1.32-3.13,6,6,0,0,0-3.89-.71l-4.9.31.46,7.32-4.43.28-.46-7.32-23.62,1.5-.08,6.08-3.46.22-1.18-18.72,3.45-.22.81,4.51Zm1.49,23.5-.31-4.83,3.23-.21,1.46,4.77,2.53-.16a12.49,12.49,0,0,1,7,1.55,14.24,14.24,0,0,1,5.27,5,14.67,14.67,0,0,1,2.26,7,11.72,11.72,0,0,1-.34,3.72l-7.38.47a6.28,6.28,0,0,0,1-2.35,11,11,0,0,0,.35-3.58,4,4,0,0,0-1.32-3.13,6,6,0,0,0-3.89-.7l-4.9.31.46,7.31-4.43.28-.47-7.31-23.61,1.49-.08,6.08-3.46.22L724,366.18l3.45-.22.81,4.52Z"/><path class="cls-1" d="M725.28,391.73a4.14,4.14,0,0,1,3.18-1.24,4.48,4.48,0,0,1,3.45,1.62,5.46,5.46,0,0,1,1.25,3.76,4.29,4.29,0,0,1-4.5,4.38,4.49,4.49,0,0,1-3.51-1.56,5.61,5.61,0,0,1-1.2-3.87A4.43,4.43,0,0,1,725.28,391.73Z"/><path class="cls-1" d="M728,423.81q6.56-4.29,16.6-2.84a23.84,23.84,0,0,1,11.17,4.4,19.27,19.27,0,0,1,6.55,8.56,21.65,21.65,0,0,1,1.12,11.13,37.38,37.38,0,0,1-1,4.8c-.44,1.54-1,3.34-1.64,5.43-.5,1.56-.76,2.41-.78,2.56l-11.67-2.33.76-5.26,8.42-.58a4.89,4.89,0,0,0,1.35-2,16.51,16.51,0,0,0,1-3.89,9,9,0,0,0-3.35-8.44q-4.07-3.6-12.57-4.83-8.24-1.2-13.83.85t-6.39,7.41a13.31,13.31,0,0,0-.09,4,6.61,6.61,0,0,0,1.06,2.58l5.52,3.36L729,453.48l-8.68-2.43a14.27,14.27,0,0,0-.09-2.44c-.09-.81-.15-1.31-.16-1.51-.2-1.58-.32-3.05-.38-4.4a26.3,26.3,0,0,1,.33-4.88Q721.42,428.12,728,423.81Z"/><path class="cls-1" d="M733,464q1.29,5.77-.69,13.9l1.29.33a11.15,11.15,0,0,0,3.7.42,3.56,3.56,0,0,0,2.37-1.25,8.48,8.48,0,0,0,1.56-3.51,16.62,16.62,0,0,0,.54-5.1,37.94,37.94,0,0,0-.69-5l4-.84a15,15,0,0,1,1,3.26,26.65,26.65,0,0,1,.58,5.18,21.93,21.93,0,0,1-.67,5.84,17.06,17.06,0,0,1-2.81,6.47,7,7,0,0,1-4.46,2.6,17.48,17.48,0,0,1-6.87-.6L714.8,481.4l-.76,3-3.14-.79a32,32,0,0,1,.24-3.33,29,29,0,0,1,.63-3.71,4.18,4.18,0,0,1,1.2-2.4,3.12,3.12,0,0,1,2.46-.07l1.51.38a16,16,0,0,1-2-4.68,11.4,11.4,0,0,1,0-5.77,10.64,10.64,0,0,1,2.28-4.46,8.79,8.79,0,0,1,4-2.64,9.75,9.75,0,0,1,5.39,0Q731.74,458.22,733,464Zm-14.34,7.68a11,11,0,0,0,1,3.06l9.18,2.31c.85-3.36.91-6,.19-8a5.32,5.32,0,0,0-3.77-3.6,6.09,6.09,0,0,0-4.41.24,4.5,4.5,0,0,0-2.26,3.09A6.71,6.71,0,0,0,718.69,471.66Z"/><path class="cls-1" d="M754.14,499.19l-2.37,10.37,0,.11-1.57,1.15-16-5.75a13.19,13.19,0,0,1,1.17,4.5,11.37,11.37,0,0,1-.66,5,11.58,11.58,0,0,1-6.71,7.19q-4.86,2-12.4-.74a19.45,19.45,0,0,1-7.78-5,15.65,15.65,0,0,1-4-7.78,17.17,17.17,0,0,1,.85-9.29,34.93,34.93,0,0,1,3.4-7.18,15.37,15.37,0,0,1,2.77-3.55L749.21,502l2.11-3.84Zm-22.88,7.46a8.68,8.68,0,0,0-.83-2.91l-19.83-7.11a2.65,2.65,0,0,0-1.52,1.17,9.49,9.49,0,0,0-1.36,2.58,6.76,6.76,0,0,0,1.24,6.73q2.47,3.24,8.84,5.53,5.49,2,8.76,1.12a5.83,5.83,0,0,0,4.33-3.78A7,7,0,0,0,731.26,506.65Z"/><path class="cls-1" d="M734.74,539.17l2.44-3.58,2.84,1.28-3.24,10.25,0,.11-1.64,1-38.56-17.42-2.15,3.65L691.22,533,698,518.12l3.15,1.42-1.19,3.9Z"/><path class="cls-1" d="M691.78,540.65q5.7-1.14,12.5,2.56a19.65,19.65,0,0,1,7,6,13.71,13.71,0,0,1,2.51,7.58,16,16,0,0,1-2.11,8.11q-2.76,5.07-6.91,6.36T695.64,570a24.65,24.65,0,0,1-4.75-3.11l9-16.48q-4.73-2.31-8.36-1.72a7.59,7.59,0,0,0-5.62,4.24,15.14,15.14,0,0,0-1.56,4.44,12.34,12.34,0,0,0-.24,4.17l-3.48-.25a14.28,14.28,0,0,1-.3-5.91,18.88,18.88,0,0,1,2.14-6.89Q686.08,541.78,691.78,540.65Zm5.79,21.18c.91.59,1.62,1,2.12,1.29q6.75,3.66,9.2-.85a5,5,0,0,0,.12-4.92q-1.23-2.45-6.12-5.3Z"/><path class="cls-1" d="M675.39,570.94a4.39,4.39,0,0,0-2.25,1,9.63,9.63,0,0,0-2.34,2.43,6.21,6.21,0,0,0-1.31,4,3.69,3.69,0,0,0,1.72,2.78,3.64,3.64,0,0,0,3.5.31,34.18,34.18,0,0,0,5.56-3.1l1.47-1a15.21,15.21,0,0,1,6.66-2.72,9.31,9.31,0,0,1,6.18,1.75,7.54,7.54,0,0,1,3,3.87,10.26,10.26,0,0,1,.24,5.43,17.13,17.13,0,0,1-2.65,6.07,26.45,26.45,0,0,1-2.86,3.68c-.9,1-1.91,1.91-3,2.88A8,8,0,0,0,688,599.6l-6.3-4.19,2.52-3.8,4.39,1.33a3.09,3.09,0,0,0,1.73-.73,7.93,7.93,0,0,0,1.92-2.05,6.38,6.38,0,0,0,1.25-3.71,3.23,3.23,0,0,0-1.55-2.72,3.76,3.76,0,0,0-2.78-.67,7.26,7.26,0,0,0-2.55.87c-.75.42-2.07,1.26-4,2.5a45.1,45.1,0,0,1-5,2.9,10.88,10.88,0,0,1-4.5,1.09,8,8,0,0,1-4.67-1.47,8.45,8.45,0,0,1-3.92-6.62q-.36-4.26,3.13-9.5a23.71,23.71,0,0,1,3.35-4.11q1.73-1.66,4.14-3.73l1-.84,6.35,4.22-2.65,4Z"/><path class="cls-1" d="M660.4,612.29q-1.46,5.73-6.9,12.09l1,.87a10.85,10.85,0,0,0,3.11,2,3.55,3.55,0,0,0,2.68,0,8.67,8.67,0,0,0,3-2.42,16.55,16.55,0,0,0,2.78-4.31,36.77,36.77,0,0,0,1.65-4.76l4,1.07a16,16,0,0,1-.56,3.37,26.46,26.46,0,0,1-1.83,4.88,21.82,21.82,0,0,1-3.23,4.91,17.07,17.07,0,0,1-5.43,4.5,7,7,0,0,1-5.16.3,17.45,17.45,0,0,1-5.86-3.64l-13.34-11.58-2,2.36-2.44-2.12A32.69,32.69,0,0,1,633.5,617a29,29,0,0,1,2.24-3,4.19,4.19,0,0,1,2.16-1.6,3.1,3.1,0,0,1,2.22,1l1.18,1a15.78,15.78,0,0,1,.29-5.09,11.24,11.24,0,0,1,2.63-5.14,10.68,10.68,0,0,1,4-2.95,8.79,8.79,0,0,1,4.82-.52,9.78,9.78,0,0,1,4.81,2.42Q661.85,606.57,660.4,612.29Zm-16.26.37a10.72,10.72,0,0,0-.45,3.21l7.15,6.2q3.4-3.92,3.76-7a5.27,5.27,0,0,0-1.74-4.91,6.13,6.13,0,0,0-4-1.79,4.6,4.6,0,0,0-3.42,1.74A6.73,6.73,0,0,0,644.14,612.66Z"/><path class="cls-1" d="M632,624l-2.41,3,15.84,16.31,3.37-1.82,2.78,2.85L646,651.41l-.12.12-1.84.17-.89-.91L640,647.32l-.12.12a9.51,9.51,0,0,1,.62,3.37,14.62,14.62,0,0,1-.62,4.79,9.82,9.82,0,0,1-2.64,4.37,6.23,6.23,0,0,1-1.81,1.28l-6-6.21a7.12,7.12,0,0,0,3.86-2.07,12.08,12.08,0,0,0,3.69-6.72l-13.18-13.58L618.58,637l-2.37-2.44,13.38-13Z"/><path class="cls-1" d="M610.58,644.81q5.71,1.1,10.62,7.08a19.73,19.73,0,0,1,4.22,8.19,13.73,13.73,0,0,1-.53,8,16,16,0,0,1-5,6.72q-4.47,3.66-8.8,3.29t-8-4.62a24.83,24.83,0,0,1-3.22-4.67l14.5-11.89q-3.51-3.92-7.09-4.74a7.61,7.61,0,0,0-6.81,1.8,15.78,15.78,0,0,0-3.12,3.53,12.63,12.63,0,0,0-1.78,3.78l-3.13-1.54a14.06,14.06,0,0,1,1.94-5.59,18.8,18.8,0,0,1,4.58-5.58Q604.86,643.71,610.58,644.81ZM608,666.62c.63.88,1.12,1.55,1.49,2q4.86,5.94,8.84,2.68a5,5,0,0,0,2-4.52q-.22-2.73-3.67-7.21Z"/><path class="cls-1" d="M587.81,688.48a14.54,14.54,0,0,1-1.64,8.15,16.91,16.91,0,0,1-6.22,6.44,19.1,19.1,0,0,1-3.56,1.82c-1.06.4-2.29.8-3.67,1.21l-1.66.5-4.95-8.55,4.26-2.66L575,700q1.1,1.1,3.69-.53a5.73,5.73,0,0,0,2.78-5.08q0-3.36-3.1-8.48-3.37-5.38-7-7.08a6.68,6.68,0,0,0-6.74.23,14.73,14.73,0,0,0-5.59,6.29l-2.72-1.83a14.21,14.21,0,0,1,2.3-5,16.06,16.06,0,0,1,4.91-4.72q6.27-3.92,11.84-2t9.5,8.15A19,19,0,0,1,587.81,688.48Z"/><path class="cls-1" d="M530.42,692.87a3.15,3.15,0,0,1,1.86,1.78L533,696a13.91,13.91,0,0,1,2.42-5,12.1,12.1,0,0,1,4.4-3.84q5-2.49,8.35-1c2.27,1,4.38,3.46,6.34,7.38l7.28,14.56,2.94-.57,1.47,2.95-8.44,5.05-.05,0-1.4-.21-9.08-18.17c-1.26-2.51-2.44-4.11-3.56-4.8s-2.52-.61-4.21.23a9.29,9.29,0,0,0-4.49,5.21l9.47,19,3.85-1,1.44,2.89-9,5.34-.1,0-1.6-.1-12.7-25.4-2.89,1.44-1.42-3,1.7-1.37a23.73,23.73,0,0,1,3.9-2.4A4,4,0,0,1,530.42,692.87Z"/><path class="cls-1" d="M515.09,700.6c1.49.62,2.67,2,3.56,4.31l7.79,19.7,3.49-1.38L531,726l-1.33,1.18c-.64.56-1.13,1-1.45,1.35a5.59,5.59,0,0,0-.6,3c0,.88.12,3,.43,6.28l-4.29,1.7-3.34-7.81L512.24,735l-1.63-4.13,8.16-3.23-6-15.08a40.63,40.63,0,0,0-1.83-4.18c-.44-.78-.88-1.22-1.33-1.31a3.87,3.87,0,0,0-2,.4,14.65,14.65,0,0,0-2.68,1.4,11.8,11.8,0,0,0-2.13,1.68l-2.21-2.61a16.15,16.15,0,0,1,3.6-3.78,20.18,20.18,0,0,1,5.27-3.14Q512.87,699.69,515.09,700.6Z"/><path class="cls-1" d="M495.29,707.57a4.15,4.15,0,0,1,2.25,2.57,4.47,4.47,0,0,1-.37,3.8,5.39,5.39,0,0,1-3.11,2.45,4.29,4.29,0,0,1-3.53-.2,4.39,4.39,0,0,1-2.12-2.56,4.49,4.49,0,0,1,.29-3.83,5.56,5.56,0,0,1,3.24-2.43A4.38,4.38,0,0,1,495.29,707.57Z"/><path class="cls-1" d="M460.33,716.6c1.69,0,3.59.08,5.71.23a18.16,18.16,0,0,0,2.78.08l1.66,10.56-4.58.95-2.75-7a6.39,6.39,0,0,0-2.92-.87,14.43,14.43,0,0,0-4.46.27c-2.52.53-4.3,1.47-5.33,2.85a6,6,0,0,0-.93,5,5.46,5.46,0,0,0,1.84,3.19,11.11,11.11,0,0,0,3.64,2,60,60,0,0,0,6,1.56,27.92,27.92,0,0,1,8.83,3.51,10.84,10.84,0,0,1,4.75,7.41,10.64,10.64,0,0,1-.45,6.08,11.39,11.39,0,0,1-4.05,5.08,19.28,19.28,0,0,1-7.63,3.14,27.79,27.79,0,0,1-5,.62q-2.2,0-4.83-.12a22.62,22.62,0,0,0-2.31-.06l-1.71-10,4.53-.93,2.62,6.7a5.41,5.41,0,0,0,2.24.57,11.4,11.4,0,0,0,3.49-.22,7.58,7.58,0,0,0,4.79-2.61,5.41,5.41,0,0,0,.87-4.51,5.58,5.58,0,0,0-2-3.36,11.5,11.5,0,0,0-3.61-1.93q-2-.67-6.33-1.79a49.86,49.86,0,0,1-6-1.87,14.39,14.39,0,0,1-4.69-3,9.58,9.58,0,0,1-2.78-5.17,12.36,12.36,0,0,1,.33-6.26,12.07,12.07,0,0,1,4.11-5.74,19.61,19.61,0,0,1,8.63-3.73A27.89,27.89,0,0,1,460.33,716.6Z"/><path class="cls-1" d="M433.09,738.82q-5,3.2-13.28,4.16l.14,1.32a11.13,11.13,0,0,0,.89,3.62,3.53,3.53,0,0,0,2,1.78,8.44,8.44,0,0,0,3.83.26,16.53,16.53,0,0,0,5-1.26,38.09,38.09,0,0,0,4.45-2.37l2.17,3.49a16,16,0,0,1-2.7,2.09,26.94,26.94,0,0,1-4.66,2.33,22,22,0,0,1-5.71,1.39,16.91,16.91,0,0,1-7-.4,7,7,0,0,1-4-3.29,17.31,17.31,0,0,1-1.82-6.65l-1.89-17.56-3.1.33-.34-3.21a28.93,28.93,0,0,1,3.21-.93,29.72,29.72,0,0,1,3.69-.69,4.26,4.26,0,0,1,2.68.29,3.17,3.17,0,0,1,.91,2.29l.17,1.55a15.58,15.58,0,0,1,3.68-3.53,11.23,11.23,0,0,1,5.42-2,10.59,10.59,0,0,1,5,.6,8.65,8.65,0,0,1,3.88,2.89,9.76,9.76,0,0,1,1.88,5C437.87,733.87,436.41,736.68,433.09,738.82ZM420.93,728a10.86,10.86,0,0,0-2.51,2l1,9.41q5.18-.56,7.54-2.58a5.33,5.33,0,0,0,2.07-4.78,6.12,6.12,0,0,0-1.75-4.05,4.54,4.54,0,0,0-3.68-1A6.63,6.63,0,0,0,420.93,728Z"/><path class="cls-1" d="M399.89,725.83c1.19,1.08,1.81,2.83,1.88,5.26l.58,21.17,3.75-.1.08,3-1.66.65c-.8.31-1.4.57-1.82.77a5.67,5.67,0,0,0-1.6,2.65q-.5,1.21-1.74,6l-4.62.13-.46-8.48-8.83.24-.12-4.44,8.77-.24-.45-16.22a38.9,38.9,0,0,0-.29-4.55,2.32,2.32,0,0,0-.8-1.68,3.89,3.89,0,0,0-2-.32,15.28,15.28,0,0,0-3,.4A12.77,12.77,0,0,0,385,731l-1.18-3.2a15.89,15.89,0,0,1,4.67-2.32,19.75,19.75,0,0,1,6-1.15Q398.13,724.2,399.89,725.83Z"/><path class="cls-1" d="M378,728.84q3.48,4.65,3.1,12.38a19.64,19.64,0,0,1-2.39,8.89,13.75,13.75,0,0,1-5.74,5.55,16.12,16.12,0,0,1-8.24,1.6Q359,757,356,753.79c-2-2.13-2.9-5-2.79-8.79a25.32,25.32,0,0,1,.75-5.62l18.73,1q0-5.26-2.06-8.28a7.62,7.62,0,0,0-6.25-3.24,15.34,15.34,0,0,0-4.68.51,12.56,12.56,0,0,0-3.87,1.6l-1.28-3.24a14,14,0,0,1,5.2-2.83,18.58,18.58,0,0,1,7.13-1.06Q374.52,724.18,378,728.84Zm-16.6,14.38c-.13,1.08-.21,1.9-.24,2.48q-.39,7.66,4.74,7.92a5,5,0,0,0,4.5-2q1.66-2.18,2.13-7.81Z"/><path class="cls-1" d="M341.93,764.67l4.15,1.27-.39,3.1L334.94,769l-.11,0-1.42-1.28,5.23-42-4.13-1,.43-3.44,16.21,2-.43,3.43-4.07,0Z"/><path class="cls-1" d="M320.72,761.64l4.06,1.51-.56,3.06-10.73-.66-.11,0L312,764.17l7.58-41.62-4.06-1.21.62-3.41,16.07,2.93-.62,3.4-4.07-.21Z"/><path class="cls-1" d="M300.31,753.83a4.25,4.25,0,0,1,.44,3.32,5,5,0,0,1-2.2,3.21,4.92,4.92,0,0,1-3.93.53,4.72,4.72,0,0,1-3.13-2,4.26,4.26,0,0,1-.45-3.29,5,5,0,0,1,2.21-3.26,5.2,5.2,0,0,1,4.09-.44h.05A4.5,4.5,0,0,1,300.31,753.83Zm2.58-11.67,3.73,2-.91,3.76-10.57-1.25-.11,0-1.3-1.5,6.52-27-3.65-1.36.82-3.37,15.65,3.79-.81,3.37-4.05-.45Z"/><path class="cls-1" d="M289.5,712.36c.78,1.41.8,3.27.09,5.59l-6.27,20.24,3.59,1.1-.89,2.87-1.78.09c-.86,0-1.52.08-2,.14a5.6,5.6,0,0,0-2.36,2c-.57.66-1.77,2.39-3.6,5.17l-4.41-1.37,2.29-8.17-8.44-2.61,1.32-4.25,8.38,2.59,4.79-15.49a42.69,42.69,0,0,0,1.19-4.41,2.3,2.3,0,0,0-.22-1.85,3.9,3.9,0,0,0-1.82-1,14.78,14.78,0,0,0-3-.59,13,13,0,0,0-2.71,0l-.09-3.41a15.85,15.85,0,0,1,5.17-.7,20.18,20.18,0,0,1,6.08.86C287.19,709.89,288.73,711,289.5,712.36Z"/><path class="cls-1" d="M267.86,708.18q1.8,5.54-1.07,12.72a19.59,19.59,0,0,1-5.13,7.65,13.69,13.69,0,0,1-7.23,3.39,16.09,16.09,0,0,1-8.31-1.14q-5.35-2.14-7.13-6.11t.2-9.22a25.36,25.36,0,0,1,2.52-5.08l17.43,7q1.73-5,.72-8.51a7.62,7.62,0,0,0-4.87-5.08,15.42,15.42,0,0,0-4.59-1,12.6,12.6,0,0,0-4.18.26l-.16-3.48a14.14,14.14,0,0,1,5.84-1,18.85,18.85,0,0,1,7.09,1.31Q266.05,702.66,267.86,708.18Zm-20.35,8.25c-.48,1-.82,1.73-1,2.26q-2.85,7.14,1.92,9a5.05,5.05,0,0,0,4.91-.46c1.52-1,3-3.25,4.54-6.71Z"/><path class="cls-1" d="M218.6,709.31a14.66,14.66,0,0,1-7.93,2.49,17,17,0,0,1-8.64-2.34,19.33,19.33,0,0,1-3.31-2.24c-.87-.74-1.81-1.62-2.83-2.63l-1.24-1.22,5.1-8.45,4.39,2.44-1.83,6.25q-.42,1.49,2.25,3a5.69,5.69,0,0,0,5.79,0q3-1.57,5.93-6.8,3.09-5.55,2.82-9.56a6.67,6.67,0,0,0-3.45-5.79,14.63,14.63,0,0,0-8.21-1.86l.3-3.27a13.92,13.92,0,0,1,5.47-.39,16,16,0,0,1,6.49,2q6.47,3.6,7.49,9.39t-2.56,12.25A19.09,19.09,0,0,1,218.6,709.31Z"/><path class="cls-1" d="M190.3,693.72a14.43,14.43,0,0,1-8,1.44,16.61,16.61,0,0,1-7.61-2.89q-6-4.12-6.71-10T171.58,670a18.75,18.75,0,0,1,7.06-6.45,14,14,0,0,1,8-1.44,17,17,0,0,1,7.6,3q5.94,4.1,6.69,10c.49,4-.71,8-3.61,12.27A18.37,18.37,0,0,1,190.3,693.72Zm-11.08-19.19q-3.72,5.43-4.39,9.14a5.25,5.25,0,0,0,2.23,5.7q5.52,3.81,12.66-6.56c2.48-3.62,3.93-6.68,4.32-9.18a5.4,5.4,0,0,0-2.31-5.76Q186.36,664.17,179.22,674.53Z"/><path class="cls-1" d="M174.91,657.25l-2.75-1.79-15.22,16.73,2,3.26-2.68,2.95-7.9-5.56-.2-.8.64-2,1.63-1.79a16.47,16.47,0,0,1-6.23-1.26,16.93,16.93,0,0,1-5.5-3.09,10.68,10.68,0,0,1-3-4.17,6.62,6.62,0,0,1,0-4.35,16.92,16.92,0,0,1-5.73-1.16A16,16,0,0,1,124.6,651q-3.8-3.45-3.36-7.11t5-8.7L137,623.45l-2.42-2.91,2.33-2.56L148,628l-2.33,2.56L143.05,629l-10.57,11.61q-3,3.33-3.46,5.39t1.78,4.09a8.64,8.64,0,0,0,2.94,1.7,13.6,13.6,0,0,0,3.43.73,31.91,31.91,0,0,1,3.39-4.32l10.68-11.75L149,633.63l2.33-2.56,11.14,10.14-2.33,2.56-2.7-1.75-10.68,11.74a22.78,22.78,0,0,0-2.89,3.73,4,4,0,0,0-.62,2.79,5,5,0,0,0,1.69,2.6,8.79,8.79,0,0,0,3.28,1.84,15,15,0,0,0,3.75.72l14.14-15.54-2.17-2.67,2.33-2.57,11,10Z"/><path class="cls-1" d="M132.6,618.29l-2.4-2.22-17.79,14,1.46,3.54-3.13,2.47-6.87-6.79-.07-.83,1-1.86,1.91-1.5a16.41,16.41,0,0,1-5.93-2.27,17,17,0,0,1-4.91-4,10.67,10.67,0,0,1-2.31-4.61,6.63,6.63,0,0,1,.74-4.29,17,17,0,0,1-5.46-2.1,16.21,16.21,0,0,1-4.78-4c-2.11-2.7-2.82-5.22-2.13-7.58s2.83-4.93,6.4-7.74l12.52-9.84L98.9,575.4l2.73-2.14L110.86,585l-2.72,2.14-2.26-2-12.35,9.7c-2.36,1.86-3.79,3.44-4.31,4.75s-.15,2.75,1.09,4.32a8.53,8.53,0,0,0,2.61,2.17,13.65,13.65,0,0,0,3.26,1.29,31.1,31.1,0,0,1,4.06-3.7l12.48-9.81-1.8-3.14,2.72-2.14L123,600.4l-2.72,2.14-2.37-2.18-12.48,9.81a23.41,23.41,0,0,0-3.47,3.2,4,4,0,0,0-1.08,2.65,5,5,0,0,0,1.24,2.84,8.8,8.8,0,0,0,2.93,2.37,15.89,15.89,0,0,0,3.58,1.33l16.52-13-1.7-3,2.73-2.14,9.2,11.71Z"/><path class="cls-1" d="M88.88,550.69a3.15,3.15,0,0,1-1.65,2l-1.35.78A13.77,13.77,0,0,1,91,555.52a12.28,12.28,0,0,1,4.13,4.14q2.81,4.79,1.53,8.27t-7,6.81l-14,8.23.76,2.89-2.84,1.67L68,579.44l0-.05.12-1.41,17.53-10.26q3.65-2.13,4.56-3.87c.61-1.17.44-2.56-.51-4.19a9.34,9.34,0,0,0-5.5-4.14L65.88,566.23,67.09,570l-2.79,1.64L58.37,563l-.06-.1v-1.6L82.82,547l-1.64-2.79,2.87-1.61c.11.11.61.64,1.48,1.6a22.28,22.28,0,0,1,2.65,3.74A3.94,3.94,0,0,1,88.88,550.69Z"/><path class="cls-1" d="M57.25,547.54l.56,3.8L54.18,553l-5-8.25-.07-.16.47-1.79,2-.92,1.29-.51a17.86,17.86,0,0,1-5.15-3.45,16.39,16.39,0,0,1-3.92-5.39,10.12,10.12,0,0,1-1.07-5.57,7.22,7.22,0,0,1,2.56-4.27,26.07,26.07,0,0,1,6.49-3.85l14.55-6.49-1-3.41,3.17-1.41,6.07,13.6-3.16,1.41-1.69-2.66-14.55,6.5a21.53,21.53,0,0,0-4.13,2.29A4.12,4.12,0,0,0,49.38,531a5.08,5.08,0,0,0,.53,3.09q1.34,3,5.45,5.27l19.19-8.57-.94-3.37L76.77,526l6.15,13.75-3.17,1.42-1.84-2.85Z"/><path class="cls-1" d="M30.14,513.59a4.19,4.19,0,0,1-2.54,2.17,5,5,0,0,1-3.89-.12,4.89,4.89,0,0,1-2.58-3,4.72,4.72,0,0,1,0-3.74,4.25,4.25,0,0,1,2.52-2.16,5,5,0,0,1,3.94.1,5.22,5.22,0,0,1,2.58,3.2l0,.05A4.47,4.47,0,0,1,30.14,513.59Zm11.21-4.14.31,4.23L38,515l-4.67-9.56,0-.11.56-1.91,26.23-9.11-.84-3.81,3.28-1.14,5.28,15.21-3.27,1.14L62.73,502Z"/><path class="cls-1" d="M37.2,491.27a14.5,14.5,0,0,1-7.31-3.95,16.84,16.84,0,0,1-4.34-7.83,19.37,19.37,0,0,1-.7-3.93q-.11-1.71-.09-3.87l0-1.73,9.62-2.23,1.3,4.85-5.76,3c-.9.48-1.09,1.71-.56,3.68a5.68,5.68,0,0,0,4,4.14c2.14.69,5.14.53,9-.48,4.08-1.09,7-2.64,8.82-4.64a6.67,6.67,0,0,0,1.75-6.5,14.69,14.69,0,0,0-4.38-7.19l2.55-2.07a14.24,14.24,0,0,1,4.09,3.66,16,16,0,0,1,3.07,6.08q1.92,7.14-1.52,11.91t-10.58,6.7A18.88,18.88,0,0,1,37.2,491.27Z"/><path class="cls-1" d="M36.5,456.26q-3.51-4.74-5-13l-1.3.22a11.14,11.14,0,0,0-3.56,1.12A3.56,3.56,0,0,0,25,446.73a8.52,8.52,0,0,0,0,3.83,16.46,16.46,0,0,0,1.58,4.88,36.51,36.51,0,0,0,2.65,4.29l-3.33,2.39a14.73,14.73,0,0,1-2.27-2.56A26.76,26.76,0,0,1,21,455.07a21.58,21.58,0,0,1-1.77-5.61,16.86,16.86,0,0,1-.05-7.06,6.93,6.93,0,0,1,3-4.18A17.46,17.46,0,0,1,28.7,436l17.4-3-.53-3.07,3.18-.55a32.13,32.13,0,0,1,1.13,3.14,26.85,26.85,0,0,1,.93,3.65,4.14,4.14,0,0,1-.12,2.69,3.15,3.15,0,0,1-2.22,1.06l-1.53.26a15.77,15.77,0,0,1,3.76,3.45A11.25,11.25,0,0,1,53,448.85a10.63,10.63,0,0,1-.28,5,8.66,8.66,0,0,1-2.63,4.06,9.8,9.8,0,0,1-4.92,2.2Q40,461,36.5,456.26Zm10-12.84a10.9,10.9,0,0,0-2.2-2.37L35,442.67q.9,5.13,3.07,7.35a5.3,5.3,0,0,0,4.9,1.76,6.12,6.12,0,0,0,3.93-2,4.5,4.5,0,0,0,.81-3.74A6.74,6.74,0,0,0,46.49,443.42Z"/><path class="cls-1" d="M47.32,422.28c-1,1.26-2.72,2-5.13,2.22l-21.1,1.93.34,3.74-3,.27c-.15-.29-.4-.83-.76-1.61s-.66-1.37-.89-1.77a5.72,5.72,0,0,0-2.74-1.43q-1.24-.4-6.15-1.35l-.42-4.6,8.43-1-.81-8.8,4.42-.4.81,8.73,16.15-1.48a40.36,40.36,0,0,0,4.52-.59,2.35,2.35,0,0,0,1.63-.9,4,4,0,0,0,.19-2.05,15.66,15.66,0,0,0-.59-3,13,13,0,0,0-1-2.51l3.12-1.39A15.85,15.85,0,0,1,47,410.84a20.18,20.18,0,0,1,1.53,6Q48.82,420.41,47.32,422.28Z"/><path class="cls-1" d="M8.31,401.2a4.19,4.19,0,0,1-3.08,1.3,5,5,0,0,1-3.67-1.27A4.91,4.91,0,0,1,0,397.58,4.74,4.74,0,0,1,1.14,394a4.22,4.22,0,0,1,3.05-1.3A5,5,0,0,1,7.92,394a5.24,5.24,0,0,1,1.5,3.83v.06A4.42,4.42,0,0,1,8.31,401.2Zm11.94-.59-1,4.13-3.86.12-1.59-10.52v-.12l1.11-1.65,27.75-.82.34-3.88,3.47-.11.48,16.1-3.47.1-.64-4Z"/><path class="cls-1" d="M21.15,381a14.46,14.46,0,0,1-5.45-6.08,16.59,16.59,0,0,1-1.54-8q.36-7.26,5-11t12.33-3.35a18.76,18.76,0,0,1,9.2,2.63,13.93,13.93,0,0,1,5.42,6.05,16.83,16.83,0,0,1,1.48,8q-.36,7.2-5,11t-12.33,3.38A18.54,18.54,0,0,1,21.15,381Zm10.5-19.51c-4.38-.22-7.74.14-10.08,1.06a5.28,5.28,0,0,0-3.68,4.91q-.33,6.68,12.24,7.31,6.57.32,10.08-1.15a5.43,5.43,0,0,0,3.69-5Q44.22,362.11,31.65,361.48Z"/><path class="cls-1" d="M22.35,341.82l-1.61,3.48-3.93-.62.31-9.66,0-.17,1.37-1.24,2.22.35,1.36.28a17.74,17.74,0,0,1-2.42-5.71,16.4,16.4,0,0,1-.35-6.66,10.08,10.08,0,0,1,2.15-5.24,7.2,7.2,0,0,1,4.47-2.18,26.17,26.17,0,0,1,7.54.32l15.74,2.5,1-3.41,3.42.55-2.34,14.71-3.42-.55,0-3.15-15.73-2.5a22.19,22.19,0,0,0-4.71-.34,4.11,4.11,0,0,0-2.68,1.07,5.07,5.07,0,0,0-1.25,2.87c-.34,2.17.22,4.63,1.69,7.4L46,337.21l1.06-3.34,3.42.55L48.1,349.3l-3.42-.55,0-3.38Z"/><path class="cls-1" d="M21.88,284.22a4.24,4.24,0,0,1-3.33.29,5.06,5.06,0,0,1-3.11-2.34,4.87,4.87,0,0,1-.36-3.95,4.73,4.73,0,0,1,2.18-3,4.23,4.23,0,0,1,3.3-.3,5,5,0,0,1,3.16,2.36,5.19,5.19,0,0,1,.25,4.1v.05A4.5,4.5,0,0,1,21.88,284.22Zm11.54,3.1L31.22,291l-3.71-1.07,1.72-10.5,0-.11L30.82,278l26.67,7.73L59,282.19l3.32,1-4.48,15.47-3.33-1,.63-4Z"/><path class="cls-1" d="M61.06,272.21A4.36,4.36,0,0,0,63,270.68a9.55,9.55,0,0,0,1.72-2.9,6.24,6.24,0,0,0,.35-4.21,3.69,3.69,0,0,0-2.31-2.3,3.64,3.64,0,0,0-3.48.5,34.28,34.28,0,0,0-4.7,4.29l-1.21,1.28a15.28,15.28,0,0,1-5.85,4.17,9.31,9.31,0,0,1-6.42-.28,7.55,7.55,0,0,1-3.82-3.08,10.23,10.23,0,0,1-1.48-5.23A17.18,17.18,0,0,1,37,256.41a27.27,27.27,0,0,1,1.94-4.24c.67-1.13,1.43-2.29,2.28-3.5a7.46,7.46,0,0,0,1-1.46l7.1,2.62-1.59,4.28-4.57-.28a3.09,3.09,0,0,0-1.52,1.1,7.87,7.87,0,0,0-1.39,2.44,6.41,6.41,0,0,0-.37,3.9,3.28,3.28,0,0,0,2.14,2.3,3.8,3.8,0,0,0,2.85,0,7.43,7.43,0,0,0,2.29-1.43q.95-.88,3.27-3.35a44.93,44.93,0,0,1,4.17-4,10.91,10.91,0,0,1,4.14-2.1,8,8,0,0,1,4.88.36A8.42,8.42,0,0,1,69,258.64q1.34,4.07-.85,10a24.75,24.75,0,0,1-2.33,4.78q-1.29,2-3.17,4.58L61.8,279l-7.14-2.65,1.66-4.49Z"/><path class="cls-1" d="M37,221.19l3.84-9.93,0-.1,1.73-.91,15,8a13.29,13.29,0,0,1-.51-4.62,11.4,11.4,0,0,1,1.37-4.86,11.57,11.57,0,0,1,7.68-6.15q5.09-1.26,12.16,2.51a19.3,19.3,0,0,1,7,6.06,15.68,15.68,0,0,1,2.83,8.27A17.23,17.23,0,0,1,86,228.52a34.36,34.36,0,0,1-4.4,6.62,14.93,14.93,0,0,1-3.25,3.11l-36-19.15-2.64,3.49Zm23.72-4.1a8.81,8.81,0,0,0,.4,3L79.72,230A2.66,2.66,0,0,0,81.4,229a9.77,9.77,0,0,0,1.71-2.36,6.74,6.74,0,0,0-.26-6.83q-2-3.59-7.95-6.75-5.15-2.73-8.51-2.37a5.83,5.83,0,0,0-4.83,3.12A7.14,7.14,0,0,0,60.72,217.09Z"/><path class="cls-1" d="M83.91,196.78q.7-5.86,5.29-12.87l-1.1-.74a11.19,11.19,0,0,0-3.35-1.63,3.53,3.53,0,0,0-2.65.39,8.47,8.47,0,0,0-2.65,2.78,16.94,16.94,0,0,0-2.21,4.63,38.55,38.55,0,0,0-1,4.93l-4.07-.55a15.79,15.79,0,0,1,.13-3.42,25.67,25.67,0,0,1,1.18-5.07A21.78,21.78,0,0,1,76,179.94a17.07,17.07,0,0,1,4.81-5.15,7,7,0,0,1,5.07-1,17.54,17.54,0,0,1,6.28,2.85l14.71,9.78,1.73-2.6,2.69,1.79a32.22,32.22,0,0,1-1.34,3.06,28.74,28.74,0,0,1-1.84,3.29c-.72,1.09-1.37,1.71-1.93,1.86a3.11,3.11,0,0,1-2.34-.75l-1.3-.87a15.44,15.44,0,0,1,.36,5.09,11.28,11.28,0,0,1-1.94,5.44,10.54,10.54,0,0,1-3.64,3.43,8.7,8.7,0,0,1-4.7,1.14,9.88,9.88,0,0,1-5.09-1.78C84.66,203.62,83.43,200.69,83.91,196.78ZM100,194.33a11,11,0,0,0,0-3.23l-7.88-5.24q-2.88,4.32-2.83,7.44a5.29,5.29,0,0,0,2.35,4.64,6.06,6.06,0,0,0,4.23,1.25A4.49,4.49,0,0,0,99.05,197,6.84,6.84,0,0,0,100,194.33Z"/><path class="cls-1" d="M110.62,181.55l2-3.27-17.8-14.15-3.11,2.24-3.12-2.48,4.62-7.76.11-.13,1.8-.41,1,.79,3.55,3,.11-.13A9.31,9.31,0,0,1,98.74,156a14.48,14.48,0,0,1,0-4.83,9.85,9.85,0,0,1,2.06-4.67,6.25,6.25,0,0,1,1.63-1.5l6.78,5.39a7.18,7.18,0,0,0-3.57,2.54,12.19,12.19,0,0,0-2.8,7.14l14.81,11.79,4.58-4.92,2.66,2.12-11.6,14.59Z"/><path class="cls-1" d="M129.16,158.15q-5.8-.36-11.44-5.67a19.69,19.69,0,0,1-5.23-7.58,13.72,13.72,0,0,1-.5-8,16,16,0,0,1,4.12-7.31q4-4.2,8.3-4.39c2.89-.12,5.73,1.06,8.5,3.57a26.25,26.25,0,0,1,3.8,4.21l-12.87,13.66q4,3.44,7.64,3.79A7.64,7.64,0,0,0,138,147.8a15.36,15.36,0,0,0,2.64-3.9,12.59,12.59,0,0,0,1.29-4l3.3,1.13a14.08,14.08,0,0,1-1.22,5.8,18.54,18.54,0,0,1-3.82,6.11Q135,158.51,129.16,158.15Zm-.2-22c-.73-.79-1.31-1.39-1.73-1.78q-5.58-5.27-9.11-1.53a5,5,0,0,0-1.37,4.74q.57,2.67,4.57,6.68Z"/><path class="cls-1" d="M125.28,107.42l-3.65,2.33-2.11-2.29,7-8.15.08-.08,1.89-.25,28.59,31.2,3.41-2.51,2.34,2.56-12,11-2.34-2.55,2.63-3.11Z"/><path class="cls-1" d="M176.26,137.33a7.73,7.73,0,0,1-1.59.74l-3.82-4.86a5.81,5.81,0,0,0,1.56-.63,11.72,11.72,0,0,0,1.86-1.18,6.42,6.42,0,0,0,2.57-4.44,18,18,0,0,0-1.22-7.19l-2.45,1.92L147.33,106.4l-2.5,1-2.07-2.63L155.23,95l2.07,2.63-2.88,3.15,13.92,9.39,5.85,4.07-2.81-6.46-6.17-15.49L161.93,94l-2.07-2.63,9.84-7.74,2.07,2.63L170,88.51q3.5,9.58,6.62,18.59T180,117.29a54.36,54.36,0,0,1,2,8.25,12.72,12.72,0,0,1-.42,5.91,10,10,0,0,1-3.47,4.64A14.17,14.17,0,0,1,176.26,137.33Z"/><path class="cls-1" d="M197,83.91q3.19-5,10.37-9.28l-.67-1.15a11.23,11.23,0,0,0-2.3-2.93,3.58,3.58,0,0,0-2.56-.8,8.58,8.58,0,0,0-3.59,1.35,16.68,16.68,0,0,0-4,3.2,37.14,37.14,0,0,0-3.08,4L187.74,76a15.74,15.74,0,0,1,1.6-3,26.35,26.35,0,0,1,3.28-4,21.89,21.89,0,0,1,4.62-3.64,17,17,0,0,1,6.58-2.54,7,7,0,0,1,5,1.34,17.61,17.61,0,0,1,4.41,5.31l9,15.21,2.69-1.59,1.64,2.79A32.6,32.6,0,0,1,224,88a28.51,28.51,0,0,1-3.08,2.15,4.17,4.17,0,0,1-2.56.84c-.57-.1-1.16-.67-1.77-1.7L215.78,88a15.62,15.62,0,0,1-1.9,4.74,11.3,11.3,0,0,1-4.11,4A10.72,10.72,0,0,1,205,98.25a8.6,8.6,0,0,1-4.72-1,9.68,9.68,0,0,1-3.8-3.82Q193.79,88.89,197,83.91Zm15.54,4.79A10.69,10.69,0,0,0,214,85.81l-4.81-8.15q-4.49,2.64-5.79,5.46a5.3,5.3,0,0,0,.09,5.21,6.14,6.14,0,0,0,3.26,3,4.5,4.5,0,0,0,3.79-.57A6.59,6.59,0,0,0,212.53,88.7Z"/><path class="cls-1" d="M212.73,57.05l13.79-6.48,1.42,3-3.13,2.3,11.43,12,4.28,4.76-1.12-6L237.3,50l-3.61.87-1.42-3,11.49-5.4,1.42,3-2.39,2,2.38,30.32-6.06,2.85-22.5-20.87-2.46.33Z"/><path class="cls-1" d="M256.77,53.93q4.07-4.29,11.93-7.17l-.45-1.25a11,11,0,0,0-1.71-3.31,3.6,3.6,0,0,0-2.36-1.27,8.72,8.72,0,0,0-3.78.65,16.63,16.63,0,0,0-4.54,2.4,37.61,37.61,0,0,0-3.76,3.35l-2.94-2.88a16.16,16.16,0,0,1,2.14-2.67,26.6,26.6,0,0,1,4-3.36,22.26,22.26,0,0,1,5.22-2.7,17,17,0,0,1,6.94-1.26,7,7,0,0,1,4.64,2.26,17.55,17.55,0,0,1,3.34,6l6,16.62,2.94-1.05,1.09,3a32.93,32.93,0,0,1-2.9,1.65,26.69,26.69,0,0,1-3.44,1.54,4.17,4.17,0,0,1-2.66.35c-.55-.21-1-.88-1.43-2l-.52-1.46a15.77,15.77,0,0,1-2.75,4.3,11.3,11.3,0,0,1-4.8,3.19,10.6,10.6,0,0,1-5,.59,8.77,8.77,0,0,1-4.45-1.9,9.78,9.78,0,0,1-3-4.46Q252.69,58.21,256.77,53.93Zm14.36,7.63a10.9,10.9,0,0,0,2-2.57l-3.2-8.91c-3.26,1.17-5.5,2.59-6.71,4.28a5.27,5.27,0,0,0-.89,5.13A6.11,6.11,0,0,0,264.93,63a4.54,4.54,0,0,0,3.83.15A6.78,6.78,0,0,0,271.13,61.56Z"/><path class="cls-1" d="M281.49,22.9a4.21,4.21,0,0,1-2-2.69,5,5,0,0,1,.37-3.87A4.87,4.87,0,0,1,283.05,14a4.7,4.7,0,0,1,3.72.26,4.25,4.25,0,0,1,2,2.66,5,5,0,0,1-.36,3.93A5.22,5.22,0,0,1,285,23.18H285A4.47,4.47,0,0,1,281.49,22.9Zm3.4,11.46-4.25,0-1-3.73,9.84-4,.12,0,1.86.68,7.37,26.77,3.85-.58.92,3.34-15.53,4.27-.92-3.34,3.76-1.57Z"/><path class="cls-1" d="M301.5,14l-4.33.16-.66-3,10.18-3.48.11,0,1.76.75,8.87,41.36,4.22-.43.72,3.39-16,3.43-.72-3.39,3.84-1.36Z"/><path class="cls-1" d="M327.83,34.57Q332.71,31.23,341,30l-.18-1.32a11.27,11.27,0,0,0-1-3.59,3.6,3.6,0,0,0-2-1.73,8.62,8.62,0,0,0-3.84-.15A16.68,16.68,0,0,0,329,24.65a36.62,36.62,0,0,0-4.38,2.49l-2.28-3.42A15.73,15.73,0,0,1,325,21.56a25.88,25.88,0,0,1,4.58-2.47,21.86,21.86,0,0,1,5.67-1.56,17,17,0,0,1,7.05.2,7,7,0,0,1,4.08,3.17,17.64,17.64,0,0,1,2,6.6l2.4,17.5,3.09-.43.43,3.21a31.86,31.86,0,0,1-3.18,1,27.92,27.92,0,0,1-3.68.8,4.13,4.13,0,0,1-2.68-.22,3.11,3.11,0,0,1-1-2.25l-.22-1.54A15.51,15.51,0,0,1,340,49.21a11.36,11.36,0,0,1-5.36,2.14,10.66,10.66,0,0,1-5-.46,8.68,8.68,0,0,1-4-2.78,9.72,9.72,0,0,1-2-5Q323,37.92,327.83,34.57ZM340.3,45a10.82,10.82,0,0,0,2.45-2.12l-1.28-9.37c-3.44.47-5.92,1.4-7.46,2.79a5.3,5.3,0,0,0-1.93,4.84,6.11,6.11,0,0,0,1.86,4,4.53,4.53,0,0,0,3.71,1A6.84,6.84,0,0,0,340.3,45Z"/><path class="cls-1" d="M352.58,1.86,363.09.18h.11l1.66,1,.66,17a13.39,13.39,0,0,1,3.73-2.77,12.26,12.26,0,0,1,14.07,2.28q3.65,3.76,3.95,11.78a19.38,19.38,0,0,1-1.72,9.08,15.7,15.7,0,0,1-5.72,6.6,17.21,17.21,0,0,1-8.94,2.69,35.24,35.24,0,0,1-7.93-.47,15.56,15.56,0,0,1-4.33-1.25L357.05,5.38l-4.35-.52Zm15.48,18.43a9,9,0,0,0-2.39,1.85l.82,21.06a2.68,2.68,0,0,0,1.66,1,9.13,9.13,0,0,0,2.9.29,6.76,6.76,0,0,0,5.78-3.66q2.09-3.51,1.82-10.26-.22-5.84-2.24-8.55a5.82,5.82,0,0,0-5.13-2.61A7.09,7.09,0,0,0,368.06,20.29Z"/><path class="cls-1" d="M396.85,4.88,392.61,4l.12-3.12L403.45,0h.12l1.51,1.16-1.65,42.28,4.19.62-.14,3.47-16.32-.64.14-3.46,4.05-.36Z"/><path class="cls-1" d="M414.37,44.14c-2.14-3.24-2.91-7.43-2.34-12.55A19.76,19.76,0,0,1,415,22.86,13.64,13.64,0,0,1,421,17.68a15.94,15.94,0,0,1,8.31-1.1q5.73.65,8.49,4c1.84,2.25,2.59,5.22,2.25,8.94A25.25,25.25,0,0,1,439,35.09L420.36,33c-.24,3.5.27,6.3,1.55,8.4A7.61,7.61,0,0,0,428,45a15.39,15.39,0,0,0,4.7-.23,12.61,12.61,0,0,0,4-1.35l1.08,3.32a14.31,14.31,0,0,1-5.37,2.5,18.54,18.54,0,0,1-7.18.61Q417.56,49,414.37,44.14ZM431.81,30.8c.2-1.06.33-1.88.4-2.46q.85-7.62-4.25-8.2a5,5,0,0,0-4.61,1.75c-1.2,1.37-2.07,3.93-2.61,7.66Z"/><path class="cls-1" d="M444,51.19a4.13,4.13,0,0,1-.74-3.34,4.45,4.45,0,0,1,2.14-3.15,5.36,5.36,0,0,1,3.91-.66,4.28,4.28,0,0,1,3,1.87,4.39,4.39,0,0,1,.63,3.26,4.49,4.49,0,0,1-2.09,3.22,5.58,5.58,0,0,1-4,.58A4.41,4.41,0,0,1,444,51.19Z"/><g class="cls-2"><path class="cls-3" d="M670,403.07c-.19,8.59-.4,16.92-1.39,25.51-.72,6.27-1.61,12.5-2.73,18.72A274.17,274.17,0,0,1,655,488.83c-2.61,7.53-5.72,15-9,22.29s-6.91,14.37-10.84,21.21a285.9,285.9,0,0,1-26.6,39,298.05,298.05,0,0,1-60.07,55.77,290,290,0,0,1-334.88-2.37,299.45,299.45,0,0,1-63-61.42,286.27,286.27,0,0,1-42-77.86,290.51,290.51,0,0,1-16.73-89.32,298.36,298.36,0,0,1,10.49-86.37A274.68,274.68,0,0,1,116.71,270a280.65,280.65,0,0,1,26.09-46.62A300.28,300.28,0,0,1,198.42,163a291.28,291.28,0,0,1,256.71-57c63.57,16.23,120.52,54.47,160,106.83A297.07,297.07,0,0,1,659,296.34a280.73,280.73,0,0,1,12.15,52.93q1.22,9.14,1.92,18.33c1,12.54.68,25,.22,37.55.11,1.21.71,1.57,1.82,1.06a14.58,14.58,0,0,0,4.41-5.39q3.53-5.6,6.66-11.43a14.66,14.66,0,0,0,2.52-6.49c-.38-8.81-.68-17.56-1.69-26.34q-1.11-9.68-2.76-19.27A317.49,317.49,0,0,0,673.54,294c-2.55-7.93-5.58-15.83-8.84-23.51S657.93,255.25,654,248a306.09,306.09,0,0,0-26.38-41.66,314,314,0,0,0-60.36-60.42,305,305,0,0,0-347-13.91,313.08,313.08,0,0,0-68.78,59.73,299.62,299.62,0,0,0-48.33,78A303.7,303.7,0,0,0,80,361.52a315.82,315.82,0,0,0,5.18,90.74,288.58,288.58,0,0,0,12.26,42.56,294,294,0,0,0,24.12,50.74A314.22,314.22,0,0,0,176,613a305.08,305.08,0,0,0,443.43-29.45,312,312,0,0,0,50-86.39,298.79,298.79,0,0,0,15-55.26,481.39,481.39,0,0,0,6.07-56.83c.27-4.73-7.26,2.84-7.14,2.73q-4.83,4.6-9.34,9.55A14.87,14.87,0,0,0,670,403.07Z"/><path class="cls-3" d="M671.79,395.36a207.19,207.19,0,0,1-1.38,25.39q-.88,9.42-2.71,18.71-1.49,9.19-3.86,18.19-3,11.82-7.09,23.3l.61-1.62-4.9,12.87.67-1.6-5.43,12.6.73-1.59-5.93,12.31.79-1.57-6.43,12,.86-1.55-6.92,11.72.93-1.53-7.39,11.41,1-1.5L617.49,554l1.06-1.46-8.29,10.74,1.13-1.43-8.72,10.4,1.2-1.39-9.14,10,1.27-1.35-9.55,9.67,1.33-1.31-9.94,9.28,1.4-1.27-10.32,8.89,1.46-1.22-10.69,8.47,1.52-1.15-11,8,1.59-1.1-11.39,7.6,1.64-1-11.71,7.15,1.7-1-12,6.69,1.76-.91-12.33,6.2,1.81-.84-12.62,5.71,1.86-.77-12.89,5.2,1.91-.68-13.15,4.67,1.95-.61q-12.36,4.14-25,7.21-11.79,2.85-23.77,4.69a306.56,306.56,0,0,1-36.8,3.3,285.52,285.52,0,0,1-86.3-10.67,295.47,295.47,0,0,1-66.17-28A291.33,291.33,0,0,1,110.58,284a290.15,290.15,0,0,1,90.49-129.3,308.19,308.19,0,0,1,59.65-37.81A283.77,283.77,0,0,1,340.8,92.28a290.1,290.1,0,0,1,254.06,86.46,334.85,334.85,0,0,1,29.61,36.42l-.87-1.31L630.93,225l-.81-1.34L637,235.06l-.77-1.37,6.44,11.71L642,244l6,12-.67-1.42,5.5,12.23-.61-1.45,5,12.47-.56-1.47,4.52,12.7-.51-1.49,4,12.92-.45-1.52,3.49,13.13-.39-1.54,3,13.32-.34-1.56,2.42,13.51-.27-1.58,1.86,13.68-.21-1.6q1.41,12.26,1.79,24.58.38,12.53-.3,25.06c0,.81-.26,2.07.65,2.56l1.16.07a4.55,4.55,0,0,0,2.22-2.19,55.51,55.51,0,0,0,4-6.94c1-2.07,2.16-4.05,2.13-6.41-.08-8.59-.25-17-.79-25.6a277.16,277.16,0,0,0-4-31.2,306.8,306.8,0,0,0-29.71-86.88,298.94,298.94,0,0,0-53.65-73.06,310.91,310.91,0,0,0-73.3-54.52,295.93,295.93,0,0,0-89-30.52,306.86,306.86,0,0,0-104.24-.36A302.9,302.9,0,0,0,81.45,335.43,321.44,321.44,0,0,0,78.19,382c0,8.89.51,17.93,1.35,26.8s2,17.54,3.63,26.13A303.26,303.26,0,0,0,248.1,652a297.29,297.29,0,0,0,89.39,27.7c33.88,4.69,68.75,4.43,102.36-2.28a301.14,301.14,0,0,0,92-34,304.32,304.32,0,0,0,131.82-151A306.16,306.16,0,0,0,678,445.25c4.56-20.57,6.1-41.71,7.33-62.68a1.35,1.35,0,0,0-1.62-1.36,7.36,7.36,0,0,0-3.86,2.9,87.71,87.71,0,0,0-5.83,6.94A7.35,7.35,0,0,0,671.79,395.36Z"/><path class="cls-3" d="M675.48,401.07c-.26,8.57-.52,16.94-1.5,25.5-.72,6.28-1.6,12.52-2.7,18.74a275.21,275.21,0,0,1-10.91,41.6c-2.6,7.55-5.7,15.07-9,22.34s-6.89,14.41-10.82,21.27a287.26,287.26,0,0,1-26.59,39.1,298.55,298.55,0,0,1-60.12,55.93,290.25,290.25,0,0,1-335.24-2.21,299.84,299.84,0,0,1-63-61.4,286.46,286.46,0,0,1-42-77.84,290.67,290.67,0,0,1-16.81-89.34,298.61,298.61,0,0,1,10.42-86.41,276.16,276.16,0,0,1,14.33-39.74A281.24,281.24,0,0,1,147.54,222a300.12,300.12,0,0,1,55.62-60.5A290.79,290.79,0,0,1,620,210.88a297.34,297.34,0,0,1,44,83.39,279.19,279.19,0,0,1,12.27,52.92c.83,6.1,1.48,12.2,2,18.34,1,12.54.72,25,.29,37.57.07,1.16.66,1.55,1.75,1.18a12.69,12.69,0,0,0,4.46-4.68q3.62-5,6.83-10.17a12.52,12.52,0,0,0,2.65-5.89c-.23-8.87-.4-17.68-1.26-26.53q-1-9.78-2.47-19.47a317.53,317.53,0,0,0-10.16-43.93c-2.46-8.07-5.41-16.12-8.6-23.94s-6.65-15.54-10.49-23A307.36,307.36,0,0,0,635,204a314.66,314.66,0,0,0-61.07-62.21,305.37,305.37,0,0,0-82.71-44.87,308.63,308.63,0,0,0-192.37-4.48,304.27,304.27,0,0,0-79.52,37.5,313.85,313.85,0,0,0-68.71,62.27,300.48,300.48,0,0,0-46.92,80.2,305.6,305.6,0,0,0-20.84,92.87,316.86,316.86,0,0,0,7.47,90.5,290.69,290.69,0,0,0,13.24,42,295,295,0,0,0,25.09,49.78,314.39,314.39,0,0,0,55.15,65.53A306.16,306.16,0,0,0,622.07,582.7a311.21,311.21,0,0,0,50.84-85.15,292.25,292.25,0,0,0,15.72-54.95c3.51-18.74,5.22-37.79,6.35-56.81.27-4.43-6.63,1.82-6.78,1.95q-4.59,3.94-8.86,8.24A12.27,12.27,0,0,0,675.48,401.07Z"/><path class="cls-3" d="M677.11,410.78,677,423.3q-.53,9.6-1.95,19.08a121.33,121.33,0,0,1-2,12.43Q671.5,464,669,473l.3-1.05-3.73,12.82.31-1q-3.67,11.58-8.39,22.76t-10.3,21.66a290.89,290.89,0,0,1-18.69,30.31A283.22,283.22,0,0,1,572,617.88,298.86,298.86,0,0,1,506.38,657a286.33,286.33,0,0,1-234.65-3.47A291.52,291.52,0,0,1,154,552.25a284.67,284.67,0,0,1-35.38-72.8,303.48,303.48,0,0,1-13.24-70,284.62,284.62,0,0,1,7.21-85.24,279.82,279.82,0,0,1,30.61-76.74,306.09,306.09,0,0,1,41.92-55.67A289.27,289.27,0,0,1,325.4,111.11,288.75,288.75,0,0,1,361,104.83q12.23-1.36,24.5-1.7,13.34-.34,26.65.46l-1.66-.07,14.18,1.15-1.66-.15,14,1.76-1.65-.25,13.81,2.37-1.63-.33,13.59,3-1.61-.42c8.35,2.21,16.7,4.37,24.91,7.11,7.56,2.53,15.07,5.39,22.4,8.54a292.51,292.51,0,0,1,118.51,94,295.21,295.21,0,0,1,43,83.71,287.69,287.69,0,0,1,11.58,53q1.5,12.24,1.94,24.55c.39,10.5.05,20.86-.47,31.36a1.92,1.92,0,0,0,1.54,1.43,3.29,3.29,0,0,0,2.77-1.36c1.93-1.61,4.86-4.21,5-6.91.34-8.8.69-17.56.46-26.38-.23-8.63-.78-17.38-1.83-25.93a309.5,309.5,0,0,0-8.51-43.93,293.85,293.85,0,0,0-42.32-90.49,290.22,290.22,0,0,0-64.29-66.94c-26.68-19.86-56.54-35.84-88.4-45.63a308,308,0,0,0-43.24-10,315.15,315.15,0,0,0-45.09-3.57,299.69,299.69,0,0,0-36.91,2.19c-8.26,1-16.67,2.3-24.81,4.06a303.28,303.28,0,0,0-74.59,26.35A296,296,0,0,0,130.87,523.27a296.32,296.32,0,0,0,49.91,70.87c21.78,22.7,46.91,42.49,74.8,57.2A296.22,296.22,0,0,0,335.21,680c8.12,1.7,16.47,3,24.72,3.89s16.92,1.6,25.33,1.78a308.74,308.74,0,0,0,49.65-2.79,296.38,296.38,0,0,0,97-31.77,305.44,305.44,0,0,0,81.12-62.77A283.29,283.29,0,0,0,646,544.66a270.77,270.77,0,0,0,24.46-50c3-8.25,5.58-16.6,7.89-25.06a232.73,232.73,0,0,0,5.28-25,319.62,319.62,0,0,0,3.29-37.71,2.07,2.07,0,0,0-1.14-1.77,2.92,2.92,0,0,0-2.81.52,27.39,27.39,0,0,0-4.26,2.75A2.93,2.93,0,0,0,677.11,410.78Z"/><path class="cls-3" d="M678.66,404a141.16,141.16,0,0,1-1.11,25.08,181.67,181.67,0,0,1-2.78,18.72q-1.53,9.19-4,18.18-3.09,11.82-7.27,23.28l.44-1.18-4.83,12.41.47-1.15c-4,9.14-8.17,18.14-13,26.9a263.24,263.24,0,0,1-15.53,25.19,298.18,298.18,0,0,1-34,40.36,288.69,288.69,0,0,1-203.45,83.8c-38.58.06-77.54-7.32-113-22.63A299,299,0,0,1,234,627.9a303.91,303.91,0,0,1-41-32.67A284.21,284.21,0,0,1,155.32,551,290.64,290.64,0,0,1,103.7,394.8a284.32,284.32,0,0,1,4.69-62.05q2.3-12,5.45-23.78c3.28-12.28,7.79-24,12.43-35.86l-.7,1.77,5.59-12.65-.79,1.75,6.12-12.37-.89,1.72,6.63-12.09-1,1.69,7.12-11.78-1.07,1.65,7.6-11.46-1.15,1.6q7.26-10.49,15.34-20.34,7.46-9.06,15.62-17.49A289.82,289.82,0,0,1,632.88,222.7a288.11,288.11,0,0,1,49,133.25q1.27,12.32,1.51,24.7.22,12.59-.6,25.16a1.64,1.64,0,0,0,1.63,1.32,4.38,4.38,0,0,0,3-2,48.38,48.38,0,0,0,4.2-5.17,4.38,4.38,0,0,0,1.33-3.38c.22-8.77.45-17.49.1-26.26-.34-8.59-1-17.29-2.12-25.8a312.69,312.69,0,0,0-8.9-43.69,299.77,299.77,0,0,0-42.69-90.29,296.18,296.18,0,0,0-64.55-67.42c-27-20.24-57.19-36.59-89.46-46.67a310,310,0,0,0-44.17-10.4A318.55,318.55,0,0,0,395,82.31c-34.71-.35-69.39,6-102.08,17.54a293.57,293.57,0,0,0-81.59,44.84,300.89,300.89,0,0,0-116.11,215,306.86,306.86,0,0,0,4.4,79.87,299.91,299.91,0,0,0,86.72,160c22.81,21.65,48.76,40.27,77.22,53.81A301.87,301.87,0,0,0,344.21,679c8.19,1.41,16.58,2.38,24.87,3s17,1.05,25.4,1a312.62,312.62,0,0,0,49.62-4.29,298.16,298.16,0,0,0,96.52-34.53,306.43,306.43,0,0,0,78.72-64.29,288.26,288.26,0,0,0,62.75-119.79c5.23-20.48,7.22-41.56,8.23-62.62a1.7,1.7,0,0,0-1.3-1.65A4.23,4.23,0,0,0,685.7,397a45.67,45.67,0,0,0-5.08,4A4.22,4.22,0,0,0,678.66,404Z"/><path class="cls-3" d="M662.58,395.79c-.44,12.73-1,25.41-3.05,38a265.68,265.68,0,0,1-31.78,89.84,288.64,288.64,0,0,1-85.83,93.16c-35.71,24.31-76.68,41.29-119.54,47.57A310.91,310.91,0,0,1,361,667.21a263.06,263.06,0,0,1-37-4.58l-12-2.55q-12.56-3-24.81-7l1.5.47L275.88,649l1.47.55-12.54-5.05,1.44.62L254,639.58l1.41.7q-11.4-5.44-22.3-11.84-10.16-6-19.81-12.74a306.72,306.72,0,0,1-27.5-21.91A291.9,291.9,0,0,1,136.49,536a288.83,288.83,0,0,1-32.95-69.19,300.74,300.74,0,0,1-8.82-34.94q-2.23-12-3.46-24.13-1.23-12.3-1.41-24.67v1.2l.09-13.72,0,1.19L90.57,358l-.08,1.16,1.25-13.75-.11,1.14q1.4-12.42,3.88-24.67,2.43-12.08,5.92-23.87A284.21,284.21,0,0,1,119,253a290.37,290.37,0,0,1,54.91-76.63c44.57-44.68,103.1-74.49,165.71-83.1a289.07,289.07,0,0,1,98.08,3.31,284.19,284.19,0,0,1,88.46,34.69,290.54,290.54,0,0,1,98.14,97.6,328.43,328.43,0,0,1,21,41.72l-.37-1,4.57,11.94-.33-1,4.09,12.16-.3-1,3.55,12.15-.27-1.06,3.11,12.42-.23-1.1,2.62,12.65-.19-1.14,2.14,12.88-.15-1.17,1.61,13.06-.1-1.21q1.31,12.66,1.55,25.38.23,12.33-.59,24.63c-.06,1.47,2.44,1.88,3.35,1.28a7.93,7.93,0,0,0,1.57-2.77,7.81,7.81,0,0,0,.68-3.11c.42-16.37.29-32.68-1.76-49A310.17,310.17,0,0,0,662,304.83,292.91,292.91,0,0,0,295.88,97.15C236,114.69,182.22,151.68,143.79,200.77A294.77,294.77,0,0,0,81.65,363.85c-.6,9-.69,18-.52,26.93.15,8.61.82,17.35,1.79,25.91s2.25,17,4,25.33c6.9,32.76,18.88,64.64,36.45,93.21a300.23,300.23,0,0,0,59.84,70.58A292.87,292.87,0,0,0,334.59,674a244.34,244.34,0,0,0,24.74,2.32c16.84.6,33.68.51,50.45-1.55a297.16,297.16,0,0,0,178.91-88.6,284.91,284.91,0,0,0,32.87-40.77,278.35,278.35,0,0,0,25.31-46.27A300.24,300.24,0,0,0,662,453.63c1.94-7.94,3.44-16.15,4.59-24.26,1.77-12.56,2.37-25.23,3-37.89a2.12,2.12,0,0,0-3-1.93,10.7,10.7,0,0,0-2.41,2.86A11.07,11.07,0,0,0,662.58,395.79Z"/><path class="cls-3" d="M664.91,401.82A173.6,173.6,0,0,1,664,421q-.4,6.36-1.37,12.66a274.08,274.08,0,0,1-5.8,30.6c-4.83,19.49-12.4,38.33-21.45,56.21-17.72,35-43.59,65.69-73.75,90.62-30.36,25.09-66.23,43.22-104,54.23A290.16,290.16,0,0,1,398,675.71,289.59,289.59,0,0,1,218.3,628.24a292.77,292.77,0,0,1-82.47-82.86A288.95,288.95,0,0,1,88.49,373.63a293.54,293.54,0,0,1,3-31.33,345.43,345.43,0,0,1,7.89-36.09l-.41,1.34,4-12.94-.46,1.31L107,283.24l-.49,1.28,5-12.41-.54,1.25,5.49-12.14-.57,1.23,6-11.86-.61,1.21a331.12,331.12,0,0,1,25.4-39.87,292.31,292.31,0,0,1,113.7-90.27,289.15,289.15,0,0,1,92.27-24,293.52,293.52,0,0,1,49.61-.22A279.17,279.17,0,0,1,456.67,107a290.2,290.2,0,0,1,153,104.31,290.69,290.69,0,0,1,45.67,88.46,287.4,287.4,0,0,1,10.53,46.89c1.13,8.11,1.9,16.22,2.33,24.4.59,11.09.36,22,0,33.13a1.23,1.23,0,0,0,1.91.87,9.6,9.6,0,0,0,3.26-4.54q2.4-4.69,4.36-9.6A9.59,9.59,0,0,0,679,385.5c-.29-8.56-.62-17-1.39-25.55-.74-8.29-2-16.68-3.45-24.88s-3.33-16.15-5.43-24.12a277.66,277.66,0,0,0-16.36-45.7C641,240.51,626.69,217,609.06,196.19a317.53,317.53,0,0,0-28.71-29.86A312.2,312.2,0,0,0,537.93,134a277.46,277.46,0,0,0-42.34-22.11,296.72,296.72,0,0,0-46.1-15.25,308.23,308.23,0,0,0-99.94-7,300.91,300.91,0,0,0-174.36,78c-33,30.69-59.87,68.48-76.31,110.56A304.28,304.28,0,0,0,79.52,423.59a290.84,290.84,0,0,0,11.69,56.15,306.79,306.79,0,0,0,41.53,83.93,301.42,301.42,0,0,0,32,38.23,291.71,291.71,0,0,0,43.07,36.22,304.33,304.33,0,0,0,85.7,40.82,312.22,312.22,0,0,0,44.55,9.5c8.75,1.22,17.62,1.87,26.44,2.33q10.07.53,20.14.17,10-.06,20-1c38.3-3.61,76.16-13.89,110.36-31.71a307,307,0,0,0,83.52-63.35,302.73,302.73,0,0,0,74.93-146.51c4.11-20.64,5.82-41.75,7.08-62.72,0-1.08-.59-1.52-1.65-1.31a10.24,10.24,0,0,0-4.41,3.77q-3.6,4.13-6.84,8.57A10.31,10.31,0,0,0,664.91,401.82Z"/><path class="cls-3" d="M670.34,411.22a243.4,243.4,0,0,1-1.54,25.6q-1.32,12.51-3.87,24.83a275.17,275.17,0,0,1-10,35.28c-9.86,28-25,54.27-43.38,77.5a291.1,291.1,0,0,1-94.71,77.86q-10.56,5.41-21.52,9.94t-22.4,8.17l1.16-.36-12.66,3.75,1.16-.31-12.84,3.24,1.15-.28q-11.83,2.73-23.87,4.45-9.12,1.38-18.32,2a292,292,0,0,1-37.42.53,281.18,281.18,0,0,1-78.89-15A295,295,0,0,1,228.29,637a298.91,298.91,0,0,1-53.64-45.21,285.5,285.5,0,0,1-43.92-61.6A289,289,0,0,1,463.18,116.05a293.92,293.92,0,0,1,65.71,27.53,289.59,289.59,0,0,1,29.41,19.36q9.38,7,18.14,14.77,9.4,8.32,18.11,17.39l-1.23-1.23,9.11,9.87-1.17-1.3,8.7,10.25-1.1-1.36,8.27,10.6-1-1.42,7.84,11L623,230q7.14,10.39,13.41,21.34,5.83,10.23,10.83,20.89A288.34,288.34,0,0,1,672.79,364q1.29,12.25,1.56,24.58.27,12.54-.53,25.05a1.34,1.34,0,0,0,1.7,1.25,7.36,7.36,0,0,0,3.68-3.16,85.64,85.64,0,0,0,5.38-7.33A7.27,7.27,0,0,0,686.5,400c0-8.85-.1-17.64-.74-26.47-.63-8.61-1.58-17.33-3-25.83a308.12,308.12,0,0,0-10.48-43.29A296.19,296.19,0,0,0,626.8,217a295.64,295.64,0,0,0-63.35-62.18c-5.08-3.77-10.35-7.23-15.68-10.61a286.6,286.6,0,0,0-36.35-19.71,302.6,302.6,0,0,0-81.87-23.72c-32.87-4.79-66.61-3.45-99.19,2.72a289.94,289.94,0,0,0-83.65,30.12,296.11,296.11,0,0,0-119.65,402.5A294.6,294.6,0,0,0,180.77,607c23.15,22.3,49.61,41.45,78.7,55.25a300.16,300.16,0,0,0,83.45,25.91c8.51,1.37,17.23,2.25,25.85,2.82s17.4.83,26,.59c6.43-.17,12.83-.53,19.24-1.06a258.22,258.22,0,0,0,31.46-4.28c8.6-1.81,16.58-3.64,25.05-6A281.48,281.48,0,0,0,512.08,665a303.46,303.46,0,0,0,86.45-59.4,285.86,285.86,0,0,0,35.85-42.92,280.74,280.74,0,0,0,27.35-49.33A309,309,0,0,0,677.64,465c5-20.59,6.89-41.9,8.13-63,.21-3.6-4.77-.28-5.55.23a81.35,81.35,0,0,0-6.94,5.33A6.92,6.92,0,0,0,670.34,411.22Z"/><path class="cls-3" d="M674.7,397l0,12.12-1.07,12.83c-.9,8.28-2.19,16.56-3.91,24.71A258.8,258.8,0,0,1,653,498.2a280.34,280.34,0,0,1-51.51,77.54,288.92,288.92,0,0,1-271,85.46,286.47,286.47,0,0,1-93.26-37.8,290,290,0,0,1-99.26-104.93q-5.72-10.29-10.57-21c-4.35-9.59-7.94-19.31-11.49-29.23l.62,1.73-4.08-13.14.53,1.77-3.53-13.36.45,1.8-3-13.57.35,1.83-2.39-13.76.26,1.86-1.8-13.94.16,1.88q-1.43-13.19-1.73-26.44V372.45A279,279,0,0,1,106,328.89a285.62,285.62,0,0,1,21.26-69.27A289.93,289.93,0,0,1,423.6,90.56a271.78,271.78,0,0,1,42.61,8.07q8.87,2.25,17.52,5.24,11.44,3.88,22.52,8.71l-1.12-.51,12,5.54-1.09-.54,11.72,6-1.06-.56,11.41,6.43-1-.58c13.46,8.33,26.55,17.07,38.64,27.34A307.82,307.82,0,0,1,601.38,180a292,292,0,0,1,44.33,62A288.31,288.31,0,0,1,672.64,314a305,305,0,0,1,5.78,35.78c1.73,16.49,1.46,32.93.63,49.45-.07,1.44,1.78,2.45,3,1.95a11.36,11.36,0,0,0,3.52-5.44c.34-8.49.68-16.93.48-25.43-.19-8.31-.67-16.74-1.61-25a313.81,313.81,0,0,0-7.75-42.46,298.46,298.46,0,0,0-39-88.56,302.61,302.61,0,0,0-60.4-67.78A285.71,285.71,0,0,0,537,118.39c-7.23-4.12-14.56-7.92-22-11.61-4.13-2-8.12-3.83-12.55-5.65-7.79-3.22-15.69-6.28-23.73-8.82a307.25,307.25,0,0,0-43.89-10.48,301.55,301.55,0,0,0-104.65,1.56A295.78,295.78,0,0,0,90.55,357.54c-1.8,32,1.21,64.71,9.85,95.69a303.61,303.61,0,0,0,33,76.75,300.52,300.52,0,0,0,104.66,103.2,291.44,291.44,0,0,0,82.7,33.24c32,7.29,65.41,9.87,98.14,6.36a296.87,296.87,0,0,0,178.4-83.89,285.85,285.85,0,0,0,34.07-40.25A276,276,0,0,0,658,502.37a295,295,0,0,0,16.13-45.84,241,241,0,0,0,5-24.47l1.59-12.63a180.85,180.85,0,0,0,1.18-24.73,2.25,2.25,0,0,0-2.56-2.49,8.86,8.86,0,0,0-2.66,2.05A8.66,8.66,0,0,0,674.7,397Z"/><path class="cls-3" d="M666.19,408a221.32,221.32,0,0,1-1.49,25.6q-.91,9.4-2.75,18.68a258.83,258.83,0,0,1-11,41.39,283.49,283.49,0,0,1-88.12,123.42,289.76,289.76,0,0,1-220.35,62.53A286.77,286.77,0,0,1,266,658.72a302.49,302.49,0,0,1-31.92-16.2c-13.7-7.94-26.3-17.35-38.64-27.23l1,.85-9.87-8.58.94.87-9.5-8.94.9.88-9.13-9.29.87.91-8.74-9.63.83.92a328.92,328.92,0,0,1-21.55-27.93q-6.56-9.79-12.44-20a281.65,281.65,0,0,1-25.48-59.9A288.73,288.73,0,0,1,92.1,416.15,288.15,288.15,0,0,1,110,289.24a297.61,297.61,0,0,1,26.61-52.66,292.75,292.75,0,0,1,85.34-86.23,289,289,0,0,1,108.64-43.22,284.17,284.17,0,0,1,67.17-4,287.92,287.92,0,0,1,60.6,10A307.12,307.12,0,0,1,513.75,135a290.69,290.69,0,0,1,49,32.12,284.15,284.15,0,0,1,45,45.65,270.89,270.89,0,0,1,17,23.77l6.12,10q6.39,11,11.86,22.45l-.83-1.68,5.64,12.47-.76-1.73,5.14,12.74-.68-1.77,4.61,13-.59-1.82,4.07,13.24-.51-1.86L662.34,325l-.41-1.89q3,12.69,5,25.6,1.42,9.06,2.09,18.2.91,9.21,1.07,18.47.28,12.53-.49,25.05c.21,1.06.82,1.4,1.83,1a10.13,10.13,0,0,0,3.72-4.38q2.87-4.62,5.31-9.46a10.14,10.14,0,0,0,1.81-5.45c-.28-8.73-.56-17.41-1.4-26.1-.83-8.47-2-17-3.57-25.38a311.43,311.43,0,0,0-11.17-42.39A299.53,299.53,0,0,0,620.36,213a299.13,299.13,0,0,0-300-111.41A299,299,0,0,0,113.14,264.36a299.9,299.9,0,0,0-23.5,188.75c6.68,32,18.08,63.13,34.74,91.28a311.42,311.42,0,0,0,40.32,54.14,302.39,302.39,0,0,0,56.85,47.66,313.79,313.79,0,0,0,38.21,21c7.59,3.53,15.5,6.68,23.4,9.5s16.21,5.46,24.41,7.55a313.48,313.48,0,0,0,44.9,8.1,292.6,292.6,0,0,0,59.62.39A323.67,323.67,0,0,0,463,683.51a287.72,287.72,0,0,0,53.32-20.35,304.43,304.43,0,0,0,85.15-63.08,301.48,301.48,0,0,0,60.07-94.64A324.33,324.33,0,0,0,676,456.81c1.81-8.37,3.12-16.94,4.17-25.45,1.54-12.46,2.57-25,3.31-37.51.25-4.25-6.16,1.62-6.28,1.71q-4.05,3.68-7.76,7.68A10.23,10.23,0,0,0,666.19,408Z"/><path class="cls-3" d="M670.53,394.44q-.07,12.9-1.33,25.74a242.3,242.3,0,0,1-4,24.67,257.19,257.19,0,0,1-14.64,46A281.38,281.38,0,0,1,600.47,569a288,288,0,0,1-450.81-29.33q-6.65-9.63-12.52-19.76-6.28-10.87-11.64-22.25l.72,1.47-5.48-12.26.65,1.52-5-12.52.57,1.55-4.45-12.76.49,1.58-3.92-13,.41,1.6c-2.12-8.29-4.27-16.55-5.87-24.95-1.51-7.93-2.69-16-3.53-24a293.09,293.09,0,0,1-1-49.57A287.05,287.05,0,0,1,176.94,178a292.15,292.15,0,0,1,34.85-31.48Q221.14,139.34,231,133c8.3-5.35,16.83-10.09,25.55-14.75l-1,.51,11.72-5.66-1.05.47,11.95-5.18-1,.43c11.19-4.33,22.41-8.32,34-11.54A287.88,287.88,0,0,1,346.7,90c24.69-3.59,49.92-3.43,74.68-.64a288.44,288.44,0,0,1,71.5,18.06,283.15,283.15,0,0,1,66.74,37.24A289.69,289.69,0,0,1,647.5,251.52a286.08,286.08,0,0,1,27.27,102.85q.79,9.15.81,18.34.12,12.46-.82,24.87c-.06,1.09,2.25,2.06,3.1,1.79,1.26-.4,2.06-2.49,2.11-3.66.4-8.4.8-16.76.66-25.16-.13-8.23-.55-16.56-1.42-24.72a306.37,306.37,0,0,0-7.35-41.9A295.28,295.28,0,0,0,575.8,150.31a308.94,308.94,0,0,0-33.73-24.48A300.41,300.41,0,0,0,305.46,90.69a307.62,307.62,0,0,0-59,23c-29.5,15-56.07,35.57-79,59.38a291.32,291.32,0,0,0-79.1,176.23,314.13,314.13,0,0,0-.38,46.22c.54,8.56,1.6,17.23,3,25.72s3,16.77,5.12,24.95c8.24,31.86,21.31,62.66,39.65,90.07A318.64,318.64,0,0,0,164.34,573a296.71,296.71,0,0,0,158,91,304.92,304.92,0,0,0,92,5.1,297.45,297.45,0,0,0,101.83-29.37,301.15,301.15,0,0,0,79.09-57.57,292.76,292.76,0,0,0,56.37-80.81,279.64,279.64,0,0,0,16.47-45.5,237.71,237.71,0,0,0,5.11-24.3c2-12.8,2.58-25.69,3.21-38.62.06-1.19-1.67-2.47-2.78-2.26S670.57,393.22,670.53,394.44Z"/><path class="cls-3" d="M660.86,398.44q-.18,12.85-1.51,25.65-1.27,12.45-3.78,24.7A261.23,261.23,0,0,1,641.51,495a279.69,279.69,0,0,1-49.45,79.26,288.72,288.72,0,0,1-114.29,78.85q-11.11,4.2-22.54,7.46-12.28,3.5-24.82,5.93l1.54-.33-13.46,2.34,1.56-.25L406.43,670l1.56-.17L394.22,671l1.57-.09-13.9.59h1.57l-14,0,1.57.07q-13.36-.28-26.65-1.71-12.35-1.35-24.52-3.75a302.87,302.87,0,0,1-35.28-9.35,286.08,286.08,0,0,1-69.16-34.2,292.07,292.07,0,0,1-57.08-50.46,309,309,0,0,1-21.45-28c-8.92-13-16.23-26.9-23.11-41.09l.48,1.09-5.2-12,.43,1.08-4.72-12.18.4,1.07-4.23-12.38.36,1.07Q97.64,459.34,95,447.6t-4.39-23.89a289.78,289.78,0,0,1,13.06-134.64c19.55-57.63,58.48-108.3,108.3-143a286.32,286.32,0,0,1,301.35-16.72A328.34,328.34,0,0,1,552.38,155l-.79-.63,9.83,8-.77-.67,9.5,8.36-.75-.7,9.16,8.73-.73-.74,8.71,9-.72-.8,8.37,9.3-.71-.84,8,9.65-.7-.9,7.7,10-.68-1c4.66,6.6,9.33,13.17,13.59,20,4.06,6.53,7.87,13.26,11.39,20.09a288,288,0,0,1,29.44,94.87c1,8,1.71,16,2.06,24.08.45,10.31.2,20.49-.22,30.8-.07,1.84,2.28,2.15,3.37,1.22a19.67,19.67,0,0,0,2.94-8.1c.18-16.39-.17-32.71-2.46-49a307.34,307.34,0,0,0-8.5-40.83,294.43,294.43,0,0,0-39.09-84.33c-33.88-50.34-82.88-90.13-139.59-111.94a293.78,293.78,0,0,0-337.26,94.76,300.8,300.8,0,0,0-44.3,79.79A297.71,297.71,0,0,0,80.71,383.61a313.26,313.26,0,0,0,2.81,44.77c1.11,8.3,2.71,16.66,4.59,24.84s4,16.32,6.64,24.18c6.73,20,14.9,39.56,25.63,57.83a301.77,301.77,0,0,0,58.37,71.83,292.12,292.12,0,0,0,84.18,53,305,305,0,0,0,42.24,13.75c8.28,2.05,16.83,3.65,25.28,4.9s17.31,2.24,25.94,2.69c34.15,1.78,68.83-1.57,101.61-11.57a312.93,312.93,0,0,0,50.49-20.26A301.23,301.23,0,0,0,589,589.31a288.23,288.23,0,0,0,33-41.78,280.5,280.5,0,0,0,25.07-47.14,307.1,307.1,0,0,0,14.74-46c4.82-20.52,6.25-41.46,7.51-62.44.11-1.88-1.29-3-3-1.94a26.75,26.75,0,0,0-5.44,8.46Z"/></g></g></g></svg>