<svg xmlns="http://www.w3.org/2000/svg" viewBox="0 0 773.3 769.04"><defs><style>.cls-1{fill:#1d1d1b;}.cls-2{opacity:0.11;}</style></defs><g id="Layer_2" data-name="Layer 2"><g id="Layer_1-2" data-name="Layer 1"><path class="cls-1" d="M508.91,28.41,501,25.9,494.68,37l-4.57-1.63L496.66,20l35.05,12.54-5,15.94-4.3-1.53,2.12-12.61-7.57-3-11.8,33,7.42,3.26-1.17,3.26-22.66-8.1L490,59.46l7.15,1.94Z"/><path class="cls-1" d="M533.43,52.7a14.5,14.5,0,0,1,7.74-2.61,16.63,16.63,0,0,1,8,1.74q6.54,3.2,8.12,9t-1.79,12.65a18.72,18.72,0,0,1-6,7.42,14.06,14.06,0,0,1-7.7,2.6,17,17,0,0,1-8-1.81q-6.48-3.16-8.09-8.94t1.76-12.66A18.47,18.47,0,0,1,533.43,52.7Zm13.78,17.35q2.89-5.91,3-9.68a5.27,5.27,0,0,0-3.06-5.32q-6-2.94-11.54,8.36-2.89,5.91-2.93,9.72a5.45,5.45,0,0,0,3.13,5.36Q541.68,81.36,547.21,70.05Z"/><path class="cls-1" d="M568.94,69.26l-2.56-2.85L568.5,63l8.75,4.1.15.09L578,69l-1.2,1.91L576,72a17.66,17.66,0,0,1,6.2,0,16.43,16.43,0,0,1,6.25,2.31,10.06,10.06,0,0,1,4,4.05,7.17,7.17,0,0,1,.24,5,26,26,0,0,1-3.28,6.81l-8.51,13.47,2.73,2.27-1.85,2.93-12.59-8L571,98l2.89,1.28,8.51-13.47a22,22,0,0,0,2.17-4.19,4.13,4.13,0,0,0,.08-2.89,5,5,0,0,0-2.15-2.27c-1.85-1.18-4.34-1.63-7.46-1.37L563.84,92.8l2.65,2.29L564.64,98,551.9,90,553.75,87l3.11,1.35Z"/><path class="cls-1" d="M578.14,122.75a7.65,7.65,0,0,1,1.38-7.31,7.27,7.27,0,0,1,4-2.52,10.09,10.09,0,0,1,5-.07,5.31,5.31,0,0,1,1-5.54,6.22,6.22,0,0,1,3.31-2.13,8.6,8.6,0,0,1,4.28-.1,9.35,9.35,0,0,1-1.41-5.84,10.91,10.91,0,0,1,2.44-5.58,9,9,0,0,1,5.09-3.29,12.49,12.49,0,0,1,6.42.26A18.61,18.61,0,0,1,616,94q5.29,4.2,6.25,8.28a7,7,0,0,1,3.14.13,8.37,8.37,0,0,1,3.43,1.62l1.58,1.26-3.91,4.92-4.65-3.69a9.3,9.3,0,0,1-1.77,3.61A10.23,10.23,0,0,1,612,114.4q-4.9.13-10-3.92a21.86,21.86,0,0,1-3.32-3.15A6.17,6.17,0,0,0,597,108a4.38,4.38,0,0,0-1.17,1,2.64,2.64,0,0,0-.55,2.88,11.88,11.88,0,0,0,3.39,3.57l4.84,3.84q9.22,7.32,3.91,14a9.29,9.29,0,0,1-6,3.44,16.59,16.59,0,0,1-8-.76,25.52,25.52,0,0,1-8-4.34Q579.34,126.8,578.14,122.75Zm16.44,8.81a5.53,5.53,0,0,0,5.11-2.17,4.46,4.46,0,0,0,1.21-3.61q-.33-1.66-3-3.75L593,118.12a18.48,18.48,0,0,1-2-1.79,8.06,8.06,0,0,0-4.3,2.92,6.44,6.44,0,0,0-1.66,4.88q.31,2.39,3.48,4.9A11.15,11.15,0,0,0,594.58,131.56Zm18.81-25.93q2.34-2.94,2.37-5.16a4.89,4.89,0,0,0-2.14-4,5.16,5.16,0,0,0-4.37-1.22,8.08,8.08,0,0,0-4.44,3.22q-4.69,5.92-.18,9.51C607.43,110.26,610.36,109.46,613.39,105.63Z"/><path class="cls-1" d="M626.44,123.74q5.64,1.76,11.7,7.54l.92-1a10.85,10.85,0,0,0,2.22-3,3.52,3.52,0,0,0,.09-2.67,8.45,8.45,0,0,0-2.25-3.11,16.81,16.81,0,0,0-4.15-3,37.51,37.51,0,0,0-4.67-1.9l1.28-3.9a15.28,15.28,0,0,1,3.34.74,26.82,26.82,0,0,1,4.77,2.08,21.94,21.94,0,0,1,4.73,3.5,17,17,0,0,1,4.2,5.66,7,7,0,0,1,0,5.17,17.59,17.59,0,0,1-3.95,5.65l-12.28,12.7,2.24,2.17-2.24,2.32a33.17,33.17,0,0,1-2.77-1.87,28.47,28.47,0,0,1-2.9-2.4,4.3,4.3,0,0,1-1.49-2.24,3.14,3.14,0,0,1,1.17-2.17l1.09-1.12a15.76,15.76,0,0,1-5.08-.56,11.34,11.34,0,0,1-5-2.9,10.64,10.64,0,0,1-2.73-4.2,8.71,8.71,0,0,1-.26-4.83,9.78,9.78,0,0,1,2.67-4.68Q620.8,122,626.44,123.74Zm-.5,16.25a10.72,10.72,0,0,0,3.17.62l6.58-6.8q-3.74-3.62-6.8-4.13a5.29,5.29,0,0,0-5,1.47,6.16,6.16,0,0,0-2,3.93,4.54,4.54,0,0,0,1.55,3.5A6.49,6.49,0,0,0,625.94,140Z"/><path class="cls-1" d="M665.84,151.1l-1.75-3.86,3-2.46,7.69,7.36.08.09.13,2-21.45,17.63,2.1,3.28-2.67,2.2-10.23-12.44,2.68-2.2,3,2.79Zm9.09-7.76a4.22,4.22,0,0,1,1.63-2.92,5,5,0,0,1,3.69-1.24,4.88,4.88,0,0,1,3.46,1.94,4.68,4.68,0,0,1,1.28,3.51,4.21,4.21,0,0,1-1.62,2.89,5,5,0,0,1-3.73,1.28,5.26,5.26,0,0,1-3.53-2.11l0,0A4.41,4.41,0,0,1,674.93,143.34Z"/><path class="cls-1" d="M662.72,182.47a4.37,4.37,0,0,0,.16,2.47,9.55,9.55,0,0,0,1.43,3.06,6.28,6.28,0,0,0,3.27,2.67,3.66,3.66,0,0,0,3.21-.62,3.61,3.61,0,0,0,1.55-3.15,34.44,34.44,0,0,0-.89-6.3l-.37-1.72a15.19,15.19,0,0,1-.15-7.19,9.29,9.29,0,0,1,3.86-5.14,7.46,7.46,0,0,1,4.69-1.41,10.22,10.22,0,0,1,5.15,1.72,17.34,17.34,0,0,1,4.72,4.66,27,27,0,0,1,2.4,4c.56,1.18,1.09,2.47,1.6,3.85A8.38,8.38,0,0,0,694,181l-6.17,4.38-2.64-3.73,2.81-3.62a3.06,3.06,0,0,0-.05-1.87,7.82,7.82,0,0,0-1.23-2.52,6.27,6.27,0,0,0-3-2.5,3.24,3.24,0,0,0-3.1.46A3.8,3.8,0,0,0,679,174a7.31,7.31,0,0,0-.11,2.7c.13.85.44,2.38.92,4.58a44.67,44.67,0,0,1,.91,5.69,10.67,10.67,0,0,1-.59,4.59,8,8,0,0,1-3.05,3.83,8.45,8.45,0,0,1-7.59,1.28q-4.11-1.2-7.74-6.33a23.72,23.72,0,0,1-2.63-4.61c-.62-1.47-1.29-3.21-2-5.2l-.4-1.27,6.21-4.41,2.78,3.91Z"/><path class="cls-1" d="M701.13,204.61a14.5,14.5,0,0,1,8,2.19,17,17,0,0,1,6,6.63,20,20,0,0,1,1.57,3.68c.32,1.09.64,2.34,1,3.74l.38,1.69-8.86,4.36-2.37-4.43,4.91-4.27q1.15-1-.28-3.71a5.69,5.69,0,0,0-4.88-3.11q-3.36-.27-8.67,2.51-5.59,3-7.54,6.53a6.67,6.67,0,0,0-.22,6.73,14.66,14.66,0,0,0,5.9,6l-2,2.59a14.18,14.18,0,0,1-4.81-2.63,15.94,15.94,0,0,1-4.37-5.23q-3.5-6.51-1.23-11.94T692.4,207A19.1,19.1,0,0,1,701.13,204.61Z"/><path class="cls-1" d="M701.62,262.16a3.13,3.13,0,0,1,1.9-1.73l1.44-.6a13.85,13.85,0,0,1-4.81-2.75,12.2,12.2,0,0,1-3.54-4.65q-2.13-5.12-.41-8.4t7.8-5.82l15-6.27-.37-3,3-1.26,4.47,8.76,0,0-.3,1.38-18.75,7.83c-2.6,1.08-4.27,2.16-5,3.23s-.78,2.47-.05,4.21A9.31,9.31,0,0,0,707,258l19.54-8.17-.69-3.9,3-1.24L733.5,254l0,.11-.21,1.58-26.21,11,1.25,3-3.06,1.22c-.1-.13-.51-.73-1.25-1.8a22.17,22.17,0,0,1-2.13-4.05A3.94,3.94,0,0,1,701.62,262.16Z"/><path class="cls-1" d="M708.28,278q1.08-2.16,4.54-3.27L733,268.27l-1.14-3.57,2.86-.91c.21.26.57.73,1.09,1.41s.93,1.2,1.25,1.54a5.76,5.76,0,0,0,3,.81c.88.08,3,.08,6.3,0l1.4,4.4-8,2.8,2.69,8.41-4.24,1.35-2.66-8.36-15.46,4.92a42,42,0,0,0-4.29,1.55c-.81.38-1.27.79-1.39,1.23a3.85,3.85,0,0,0,.25,2,14.82,14.82,0,0,0,1.22,2.77,11.93,11.93,0,0,0,1.53,2.23l-2.75,2a16.09,16.09,0,0,1-3.53-3.84,20.21,20.21,0,0,1-2.77-5.48C707.58,281.28,707.57,279.4,708.28,278Z"/><path class="cls-1" d="M741.32,306.25a14.39,14.39,0,0,1,6.7,4.67,16.56,16.56,0,0,1,3.33,7.42q1.32,7.16-2.36,11.85t-11.23,6.1a18.69,18.69,0,0,1-9.56-.44,14,14,0,0,1-6.67-4.64,17,17,0,0,1-3.28-7.46c-.87-4.73-.09-8.67,2.37-11.83s6.19-5.19,11.22-6.12A18.6,18.6,0,0,1,741.32,306.25Zm-5.74,21.4q6.46-1.18,9.57-3.35a5.25,5.25,0,0,0,2.45-5.62q-1.22-6.58-13.59-4.3-6.46,1.2-9.55,3.44a5.42,5.42,0,0,0-2.44,5.7Q723.21,329.94,735.58,327.65Z"/><path class="cls-1" d="M750.36,345.48l-.31-4.84,3.23-.2,1.46,4.76,2.53-.16a12.41,12.41,0,0,1,7,1.56,14.29,14.29,0,0,1,5.27,5,14.7,14.7,0,0,1,2.26,7,11.76,11.76,0,0,1-.34,3.73l-7.38.46a6.2,6.2,0,0,0,1-2.35,10.93,10.93,0,0,0,.35-3.57,4,4,0,0,0-1.32-3.13,6,6,0,0,0-3.89-.71l-4.9.31.46,7.32-4.43.28-.46-7.32-23.62,1.5-.08,6.08-3.46.22-1.18-18.72,3.45-.22.81,4.51Zm1.49,23.5-.31-4.83,3.23-.21,1.46,4.77,2.53-.16a12.49,12.49,0,0,1,7,1.55,14.24,14.24,0,0,1,5.27,5,14.67,14.67,0,0,1,2.26,7,11.72,11.72,0,0,1-.34,3.72l-7.38.47a6.28,6.28,0,0,0,1-2.35,11,11,0,0,0,.35-3.58,4,4,0,0,0-1.32-3.13,6,6,0,0,0-3.89-.7l-4.9.31.46,7.31-4.43.28-.47-7.31-23.61,1.49-.08,6.08-3.46.22L724,366.18l3.45-.22.81,4.52Z"/><path class="cls-1" d="M725.28,391.73a4.14,4.14,0,0,1,3.18-1.24,4.48,4.48,0,0,1,3.45,1.62,5.46,5.46,0,0,1,1.25,3.76,4.29,4.29,0,0,1-4.5,4.38,4.49,4.49,0,0,1-3.51-1.56,5.61,5.61,0,0,1-1.2-3.87A4.43,4.43,0,0,1,725.28,391.73Z"/><path class="cls-1" d="M728,423.81q6.56-4.29,16.6-2.84a23.84,23.84,0,0,1,11.17,4.4,19.27,19.27,0,0,1,6.55,8.56,21.65,21.65,0,0,1,1.12,11.13,37.38,37.38,0,0,1-1,4.8c-.44,1.54-1,3.34-1.64,5.43-.5,1.56-.76,2.41-.78,2.56l-11.67-2.33.76-5.26,8.42-.58a4.89,4.89,0,0,0,1.35-2,16.51,16.51,0,0,0,1-3.89,9,9,0,0,0-3.35-8.44q-4.07-3.6-12.57-4.83-8.24-1.2-13.83.85t-6.39,7.41a13.31,13.31,0,0,0-.09,4,6.61,6.61,0,0,0,1.06,2.58l5.52,3.36L729,453.48l-8.68-2.43a14.27,14.27,0,0,0-.09-2.44c-.09-.81-.15-1.31-.16-1.51-.2-1.58-.32-3.05-.38-4.4a26.3,26.3,0,0,1,.33-4.88Q721.42,428.12,728,423.81Z"/><path class="cls-1" d="M733,464q1.29,5.77-.69,13.9l1.29.33a11.15,11.15,0,0,0,3.7.42,3.56,3.56,0,0,0,2.37-1.25,8.48,8.48,0,0,0,1.56-3.51,16.62,16.62,0,0,0,.54-5.1,37.94,37.94,0,0,0-.69-5l4-.84a15,15,0,0,1,1,3.26,26.65,26.65,0,0,1,.58,5.18,21.93,21.93,0,0,1-.67,5.84,17.06,17.06,0,0,1-2.81,6.47,7,7,0,0,1-4.46,2.6,17.48,17.48,0,0,1-6.87-.6L714.8,481.4l-.76,3-3.14-.79a32,32,0,0,1,.24-3.33,29,29,0,0,1,.63-3.71,4.18,4.18,0,0,1,1.2-2.4,3.12,3.12,0,0,1,2.46-.07l1.51.38a16,16,0,0,1-2-4.68,11.4,11.4,0,0,1,0-5.77,10.64,10.64,0,0,1,2.28-4.46,8.79,8.79,0,0,1,4-2.64,9.75,9.75,0,0,1,5.39,0Q731.74,458.22,733,464Zm-14.34,7.68a11,11,0,0,0,1,3.06l9.18,2.31c.85-3.36.91-6,.19-8a5.32,5.32,0,0,0-3.77-3.6,6.09,6.09,0,0,0-4.41.24,4.5,4.5,0,0,0-2.26,3.09A6.71,6.71,0,0,0,718.69,471.66Z"/><path class="cls-1" d="M754.14,499.19l-2.37,10.37,0,.11-1.57,1.15-16-5.75a13.19,13.19,0,0,1,1.17,4.5,11.37,11.37,0,0,1-.66,5,11.58,11.58,0,0,1-6.71,7.19q-4.86,2-12.4-.74a19.45,19.45,0,0,1-7.78-5,15.65,15.65,0,0,1-4-7.78,17.17,17.17,0,0,1,.85-9.29,34.93,34.93,0,0,1,3.4-7.18,15.37,15.37,0,0,1,2.77-3.55L749.21,502l2.11-3.84Zm-22.88,7.46a8.68,8.68,0,0,0-.83-2.91l-19.83-7.11a2.65,2.65,0,0,0-1.52,1.17,9.49,9.49,0,0,0-1.36,2.58,6.76,6.76,0,0,0,1.24,6.73q2.47,3.24,8.84,5.53,5.49,2,8.76,1.12a5.83,5.83,0,0,0,4.33-3.78A7,7,0,0,0,731.26,506.65Z"/><path class="cls-1" d="M734.74,539.17l2.44-3.58,2.84,1.28-3.24,10.25,0,.11-1.64,1-38.56-17.42-2.15,3.65L691.22,533,698,518.12l3.15,1.42-1.19,3.9Z"/><path class="cls-1" d="M691.78,540.65q5.7-1.14,12.5,2.56a19.65,19.65,0,0,1,7,6,13.71,13.71,0,0,1,2.51,7.58,16,16,0,0,1-2.11,8.11q-2.76,5.07-6.91,6.36T695.64,570a24.65,24.65,0,0,1-4.75-3.11l9-16.48q-4.73-2.31-8.36-1.72a7.59,7.59,0,0,0-5.62,4.24,15.14,15.14,0,0,0-1.56,4.44,12.34,12.34,0,0,0-.24,4.17l-3.48-.25a14.28,14.28,0,0,1-.3-5.91,18.88,18.88,0,0,1,2.14-6.89Q686.08,541.78,691.78,540.65Zm5.79,21.18c.91.59,1.62,1,2.12,1.29q6.75,3.66,9.2-.85a5,5,0,0,0,.12-4.92q-1.23-2.45-6.12-5.3Z"/><path class="cls-1" d="M675.39,570.94a4.39,4.39,0,0,0-2.25,1,9.63,9.63,0,0,0-2.34,2.43,6.21,6.21,0,0,0-1.31,4,3.69,3.69,0,0,0,1.72,2.78,3.64,3.64,0,0,0,3.5.31,34.18,34.18,0,0,0,5.56-3.1l1.47-1a15.21,15.21,0,0,1,6.66-2.72,9.31,9.31,0,0,1,6.18,1.75,7.54,7.54,0,0,1,3,3.87,10.26,10.26,0,0,1,.24,5.43,17.13,17.13,0,0,1-2.65,6.07,26.45,26.45,0,0,1-2.86,3.68c-.9,1-1.91,1.91-3,2.88A8,8,0,0,0,688,599.6l-6.3-4.19,2.52-3.8,4.39,1.33a3.09,3.09,0,0,0,1.73-.73,7.93,7.93,0,0,0,1.92-2.05,6.38,6.38,0,0,0,1.25-3.71,3.23,3.23,0,0,0-1.55-2.72,3.76,3.76,0,0,0-2.78-.67,7.26,7.26,0,0,0-2.55.87c-.75.42-2.07,1.26-4,2.5a45.1,45.1,0,0,1-5,2.9,10.88,10.88,0,0,1-4.5,1.09,8,8,0,0,1-4.67-1.47,8.45,8.45,0,0,1-3.92-6.62q-.36-4.26,3.13-9.5a23.71,23.71,0,0,1,3.35-4.11q1.73-1.66,4.14-3.73l1-.84,6.35,4.22-2.65,4Z"/><path class="cls-1" d="M660.4,612.29q-1.46,5.73-6.9,12.09l1,.87a10.85,10.85,0,0,0,3.11,2,3.55,3.55,0,0,0,2.68,0,8.67,8.67,0,0,0,3-2.42,16.55,16.55,0,0,0,2.78-4.31,36.77,36.77,0,0,0,1.65-4.76l4,1.07a16,16,0,0,1-.56,3.37,26.46,26.46,0,0,1-1.83,4.88,21.82,21.82,0,0,1-3.23,4.91,17.07,17.07,0,0,1-5.43,4.5,7,7,0,0,1-5.16.3,17.45,17.45,0,0,1-5.86-3.64l-13.34-11.58-2,2.36-2.44-2.12A32.69,32.69,0,0,1,633.5,617a29,29,0,0,1,2.24-3,4.19,4.19,0,0,1,2.16-1.6,3.1,3.1,0,0,1,2.22,1l1.18,1a15.78,15.78,0,0,1,.29-5.09,11.24,11.24,0,0,1,2.63-5.14,10.68,10.68,0,0,1,4-2.95,8.79,8.79,0,0,1,4.82-.52,9.78,9.78,0,0,1,4.81,2.42Q661.85,606.57,660.4,612.29Zm-16.26.37a10.72,10.72,0,0,0-.45,3.21l7.15,6.2q3.4-3.92,3.76-7a5.27,5.27,0,0,0-1.74-4.91,6.13,6.13,0,0,0-4-1.79,4.6,4.6,0,0,0-3.42,1.74A6.73,6.73,0,0,0,644.14,612.66Z"/><path class="cls-1" d="M632,624l-2.41,3,15.84,16.31,3.37-1.82,2.78,2.85L646,651.41l-.12.12-1.84.17-.89-.91L640,647.32l-.12.12a9.51,9.51,0,0,1,.62,3.37,14.62,14.62,0,0,1-.62,4.79,9.82,9.82,0,0,1-2.64,4.37,6.23,6.23,0,0,1-1.81,1.28l-6-6.21a7.12,7.12,0,0,0,3.86-2.07,12.08,12.08,0,0,0,3.69-6.72l-13.18-13.58L618.58,637l-2.37-2.44,13.38-13Z"/><path class="cls-1" d="M610.58,644.81q5.71,1.1,10.62,7.08a19.73,19.73,0,0,1,4.22,8.19,13.73,13.73,0,0,1-.53,8,16,16,0,0,1-5,6.72q-4.47,3.66-8.8,3.29t-8-4.62a24.83,24.83,0,0,1-3.22-4.67l14.5-11.89q-3.51-3.92-7.09-4.74a7.61,7.61,0,0,0-6.81,1.8,15.78,15.78,0,0,0-3.12,3.53,12.63,12.63,0,0,0-1.78,3.78l-3.13-1.54a14.06,14.06,0,0,1,1.94-5.59,18.8,18.8,0,0,1,4.58-5.58Q604.86,643.71,610.58,644.81ZM608,666.62c.63.88,1.12,1.55,1.49,2q4.86,5.94,8.84,2.68a5,5,0,0,0,2-4.52q-.22-2.73-3.67-7.21Z"/><path class="cls-1" d="M587.81,688.48a14.54,14.54,0,0,1-1.64,8.15,16.91,16.91,0,0,1-6.22,6.44,19.1,19.1,0,0,1-3.56,1.82c-1.06.4-2.29.8-3.67,1.21l-1.66.5-4.95-8.55,4.26-2.66L575,700q1.1,1.1,3.69-.53a5.73,5.73,0,0,0,2.78-5.08q0-3.36-3.1-8.48-3.37-5.38-7-7.08a6.68,6.68,0,0,0-6.74.23,14.73,14.73,0,0,0-5.59,6.29l-2.72-1.83a14.21,14.21,0,0,1,2.3-5,16.06,16.06,0,0,1,4.91-4.72q6.27-3.92,11.84-2t9.5,8.15A19,19,0,0,1,587.81,688.48Z"/><path class="cls-1" d="M530.42,692.87a3.15,3.15,0,0,1,1.86,1.78L533,696a13.91,13.91,0,0,1,2.42-5,12.1,12.1,0,0,1,4.4-3.84q5-2.49,8.35-1c2.27,1,4.38,3.46,6.34,7.38l7.28,14.56,2.94-.57,1.47,2.95-8.44,5.05-.05,0-1.4-.21-9.08-18.17c-1.26-2.51-2.44-4.11-3.56-4.8s-2.52-.61-4.21.23a9.29,9.29,0,0,0-4.49,5.21l9.47,19,3.85-1,1.44,2.89-9,5.34-.1,0-1.6-.1-12.7-25.4-2.89,1.44-1.42-3,1.7-1.37a23.73,23.73,0,0,1,3.9-2.4A4,4,0,0,1,530.42,692.87Z"/><path class="cls-1" d="M515.09,700.6c1.49.62,2.67,2,3.56,4.31l7.79,19.7,3.49-1.38L531,726l-1.33,1.18c-.64.56-1.13,1-1.45,1.35a5.59,5.59,0,0,0-.6,3c0,.88.12,3,.43,6.28l-4.29,1.7-3.34-7.81L512.24,735l-1.63-4.13,8.16-3.23-6-15.08a40.63,40.63,0,0,0-1.83-4.18c-.44-.78-.88-1.22-1.33-1.31a3.87,3.87,0,0,0-2,.4,14.65,14.65,0,0,0-2.68,1.4,11.8,11.8,0,0,0-2.13,1.68l-2.21-2.61a16.15,16.15,0,0,1,3.6-3.78,20.18,20.18,0,0,1,5.27-3.14Q512.87,699.69,515.09,700.6Z"/><path class="cls-1" d="M495.29,707.57a4.15,4.15,0,0,1,2.25,2.57,4.47,4.47,0,0,1-.37,3.8,5.39,5.39,0,0,1-3.11,2.45,4.29,4.29,0,0,1-3.53-.2,4.39,4.39,0,0,1-2.12-2.56,4.49,4.49,0,0,1,.29-3.83,5.56,5.56,0,0,1,3.24-2.43A4.38,4.38,0,0,1,495.29,707.57Z"/><path class="cls-1" d="M460.33,716.6c1.69,0,3.59.08,5.71.23a18.16,18.16,0,0,0,2.78.08l1.66,10.56-4.58.95-2.75-7a6.39,6.39,0,0,0-2.92-.87,14.43,14.43,0,0,0-4.46.27c-2.52.53-4.3,1.47-5.33,2.85a6,6,0,0,0-.93,5,5.46,5.46,0,0,0,1.84,3.19,11.11,11.11,0,0,0,3.64,2,60,60,0,0,0,6,1.56,27.92,27.92,0,0,1,8.83,3.51,10.84,10.84,0,0,1,4.75,7.41,10.64,10.64,0,0,1-.45,6.08,11.39,11.39,0,0,1-4.05,5.08,19.28,19.28,0,0,1-7.63,3.14,27.79,27.79,0,0,1-5,.62q-2.2,0-4.83-.12a22.62,22.62,0,0,0-2.31-.06l-1.71-10,4.53-.93,2.62,6.7a5.41,5.41,0,0,0,2.24.57,11.4,11.4,0,0,0,3.49-.22,7.58,7.58,0,0,0,4.79-2.61,5.41,5.41,0,0,0,.87-4.51,5.58,5.58,0,0,0-2-3.36,11.5,11.5,0,0,0-3.61-1.93q-2-.67-6.33-1.79a49.86,49.86,0,0,1-6-1.87,14.39,14.39,0,0,1-4.69-3,9.58,9.58,0,0,1-2.78-5.17,12.36,12.36,0,0,1,.33-6.26,12.07,12.07,0,0,1,4.11-5.74,19.61,19.61,0,0,1,8.63-3.73A27.89,27.89,0,0,1,460.33,716.6Z"/><path class="cls-1" d="M433.09,738.82q-5,3.2-13.28,4.16l.14,1.32a11.13,11.13,0,0,0,.89,3.62,3.53,3.53,0,0,0,2,1.78,8.44,8.44,0,0,0,3.83.26,16.53,16.53,0,0,0,5-1.26,38.09,38.09,0,0,0,4.45-2.37l2.17,3.49a16,16,0,0,1-2.7,2.09,26.94,26.94,0,0,1-4.66,2.33,22,22,0,0,1-5.71,1.39,16.91,16.91,0,0,1-7-.4,7,7,0,0,1-4-3.29,17.31,17.31,0,0,1-1.82-6.65l-1.89-17.56-3.1.33-.34-3.21a28.93,28.93,0,0,1,3.21-.93,29.72,29.72,0,0,1,3.69-.69,4.26,4.26,0,0,1,2.68.29,3.17,3.17,0,0,1,.91,2.29l.17,1.55a15.58,15.58,0,0,1,3.68-3.53,11.23,11.23,0,0,1,5.42-2,10.59,10.59,0,0,1,5,.6,8.65,8.65,0,0,1,3.88,2.89,9.76,9.76,0,0,1,1.88,5C437.87,733.87,436.41,736.68,433.09,738.82ZM420.93,728a10.86,10.86,0,0,0-2.51,2l1,9.41q5.18-.56,7.54-2.58a5.33,5.33,0,0,0,2.07-4.78,6.12,6.12,0,0,0-1.75-4.05,4.54,4.54,0,0,0-3.68-1A6.63,6.63,0,0,0,420.93,728Z"/><path class="cls-1" d="M399.89,725.83c1.19,1.08,1.81,2.83,1.88,5.26l.58,21.17,3.75-.1.08,3-1.66.65c-.8.31-1.4.57-1.82.77a5.67,5.67,0,0,0-1.6,2.65q-.5,1.21-1.74,6l-4.62.13-.46-8.48-8.83.24-.12-4.44,8.77-.24-.45-16.22a38.9,38.9,0,0,0-.29-4.55,2.32,2.32,0,0,0-.8-1.68,3.89,3.89,0,0,0-2-.32,15.28,15.28,0,0,0-3,.4A12.77,12.77,0,0,0,385,731l-1.18-3.2a15.89,15.89,0,0,1,4.67-2.32,19.75,19.75,0,0,1,6-1.15Q398.13,724.2,399.89,725.83Z"/><path class="cls-1" d="M378,728.84q3.48,4.65,3.1,12.38a19.64,19.64,0,0,1-2.39,8.89,13.75,13.75,0,0,1-5.74,5.55,16.12,16.12,0,0,1-8.24,1.6Q359,757,356,753.79c-2-2.13-2.9-5-2.79-8.79a25.32,25.32,0,0,1,.75-5.62l18.73,1q0-5.26-2.06-8.28a7.62,7.62,0,0,0-6.25-3.24,15.34,15.34,0,0,0-4.68.51,12.56,12.56,0,0,0-3.87,1.6l-1.28-3.24a14,14,0,0,1,5.2-2.83,18.58,18.58,0,0,1,7.13-1.06Q374.52,724.18,378,728.84Zm-16.6,14.38c-.13,1.08-.21,1.9-.24,2.48q-.39,7.66,4.74,7.92a5,5,0,0,0,4.5-2q1.66-2.18,2.13-7.81Z"/><path class="cls-1" d="M341.93,764.67l4.15,1.27-.39,3.1L334.94,769l-.11,0-1.42-1.28,5.23-42-4.13-1,.43-3.44,16.21,2-.43,3.43-4.07,0Z"/><path class="cls-1" d="M320.72,761.64l4.06,1.51-.56,3.06-10.73-.66-.11,0L312,764.17l7.58-41.62-4.06-1.21.62-3.41,16.07,2.93-.62,3.4-4.07-.21Z"/><path class="cls-1" d="M300.31,753.83a4.25,4.25,0,0,1,.44,3.32,5,5,0,0,1-2.2,3.21,4.92,4.92,0,0,1-3.93.53,4.72,4.72,0,0,1-3.13-2,4.26,4.26,0,0,1-.45-3.29,5,5,0,0,1,2.21-3.26,5.2,5.2,0,0,1,4.09-.44h.05A4.5,4.5,0,0,1,300.31,753.83Zm2.58-11.67,3.73,2-.91,3.76-10.57-1.25-.11,0-1.3-1.5,6.52-27-3.65-1.36.82-3.37,15.65,3.79-.81,3.37-4.05-.45Z"/><path class="cls-1" d="M289.5,712.36c.78,1.41.8,3.27.09,5.59l-6.27,20.24,3.59,1.1-.89,2.87-1.78.09c-.86,0-1.52.08-2,.14a5.6,5.6,0,0,0-2.36,2c-.57.66-1.77,2.39-3.6,5.17l-4.41-1.37,2.29-8.17-8.44-2.61,1.32-4.25,8.38,2.59,4.79-15.49a42.69,42.69,0,0,0,1.19-4.41,2.3,2.3,0,0,0-.22-1.85,3.9,3.9,0,0,0-1.82-1,14.78,14.78,0,0,0-3-.59,13,13,0,0,0-2.71,0l-.09-3.41a15.85,15.85,0,0,1,5.17-.7,20.18,20.18,0,0,1,6.08.86C287.19,709.89,288.73,711,289.5,712.36Z"/><path class="cls-1" d="M267.86,708.18q1.8,5.54-1.07,12.72a19.59,19.59,0,0,1-5.13,7.65,13.69,13.69,0,0,1-7.23,3.39,16.09,16.09,0,0,1-8.31-1.14q-5.35-2.14-7.13-6.11t.2-9.22a25.36,25.36,0,0,1,2.52-5.08l17.43,7q1.73-5,.72-8.51a7.62,7.62,0,0,0-4.87-5.08,15.42,15.42,0,0,0-4.59-1,12.6,12.6,0,0,0-4.18.26l-.16-3.48a14.14,14.14,0,0,1,5.84-1,18.85,18.85,0,0,1,7.09,1.31Q266.05,702.66,267.86,708.18Zm-20.35,8.25c-.48,1-.82,1.73-1,2.26q-2.85,7.14,1.92,9a5.05,5.05,0,0,0,4.91-.46c1.52-1,3-3.25,4.54-6.71Z"/><path class="cls-1" d="M218.6,709.31a14.66,14.66,0,0,1-7.93,2.49,17,17,0,0,1-8.64-2.34,19.33,19.33,0,0,1-3.31-2.24c-.87-.74-1.81-1.62-2.83-2.63l-1.24-1.22,5.1-8.45,4.39,2.44-1.83,6.25q-.42,1.49,2.25,3a5.69,5.69,0,0,0,5.79,0q3-1.57,5.93-6.8,3.09-5.55,2.82-9.56a6.67,6.67,0,0,0-3.45-5.79,14.63,14.63,0,0,0-8.21-1.86l.3-3.27a13.92,13.92,0,0,1,5.47-.39,16,16,0,0,1,6.49,2q6.47,3.6,7.49,9.39t-2.56,12.25A19.09,19.09,0,0,1,218.6,709.31Z"/><path class="cls-1" d="M190.3,693.72a14.43,14.43,0,0,1-8,1.44,16.61,16.61,0,0,1-7.61-2.89q-6-4.12-6.71-10T171.58,670a18.75,18.75,0,0,1,7.06-6.45,14,14,0,0,1,8-1.44,17,17,0,0,1,7.6,3q5.94,4.1,6.69,10c.49,4-.71,8-3.61,12.27A18.37,18.37,0,0,1,190.3,693.72Zm-11.08-19.19q-3.72,5.43-4.39,9.14a5.25,5.25,0,0,0,2.23,5.7q5.52,3.81,12.66-6.56c2.48-3.62,3.93-6.68,4.32-9.18a5.4,5.4,0,0,0-2.31-5.76Q186.36,664.17,179.22,674.53Z"/><path class="cls-1" d="M174.91,657.25l-2.75-1.79-15.22,16.73,2,3.26-2.68,2.95-7.9-5.56-.2-.8.64-2,1.63-1.79a16.47,16.47,0,0,1-6.23-1.26,16.93,16.93,0,0,1-5.5-3.09,10.68,10.68,0,0,1-3-4.17,6.62,6.62,0,0,1,0-4.35,16.92,16.92,0,0,1-5.73-1.16A16,16,0,0,1,124.6,651q-3.8-3.45-3.36-7.11t5-8.7L137,623.45l-2.42-2.91,2.33-2.56L148,628l-2.33,2.56L143.05,629l-10.57,11.61q-3,3.33-3.46,5.39t1.78,4.09a8.64,8.64,0,0,0,2.94,1.7,13.6,13.6,0,0,0,3.43.73,31.91,31.91,0,0,1,3.39-4.32l10.68-11.75L149,633.63l2.33-2.56,11.14,10.14-2.33,2.56-2.7-1.75-10.68,11.74a22.78,22.78,0,0,0-2.89,3.73,4,4,0,0,0-.62,2.79,5,5,0,0,0,1.69,2.6,8.79,8.79,0,0,0,3.28,1.84,15,15,0,0,0,3.75.72l14.14-15.54-2.17-2.67,2.33-2.57,11,10Z"/><path class="cls-1" d="M132.6,618.29l-2.4-2.22-17.79,14,1.46,3.54-3.13,2.47-6.87-6.79-.07-.83,1-1.86,1.91-1.5a16.41,16.41,0,0,1-5.93-2.27,17,17,0,0,1-4.91-4,10.67,10.67,0,0,1-2.31-4.61,6.63,6.63,0,0,1,.74-4.29,17,17,0,0,1-5.46-2.1,16.21,16.21,0,0,1-4.78-4c-2.11-2.7-2.82-5.22-2.13-7.58s2.83-4.93,6.4-7.74l12.52-9.84L98.9,575.4l2.73-2.14L110.86,585l-2.72,2.14-2.26-2-12.35,9.7c-2.36,1.86-3.79,3.44-4.31,4.75s-.15,2.75,1.09,4.32a8.53,8.53,0,0,0,2.61,2.17,13.65,13.65,0,0,0,3.26,1.29,31.1,31.1,0,0,1,4.06-3.7l12.48-9.81-1.8-3.14,2.72-2.14L123,600.4l-2.72,2.14-2.37-2.18-12.48,9.81a23.41,23.41,0,0,0-3.47,3.2,4,4,0,0,0-1.08,2.65,5,5,0,0,0,1.24,2.84,8.8,8.8,0,0,0,2.93,2.37,15.89,15.89,0,0,0,3.58,1.33l16.52-13-1.7-3,2.73-2.14,9.2,11.71Z"/><path class="cls-1" d="M88.88,550.69a3.15,3.15,0,0,1-1.65,2l-1.35.78A13.77,13.77,0,0,1,91,555.52a12.28,12.28,0,0,1,4.13,4.14q2.81,4.79,1.53,8.27t-7,6.81l-14,8.23.76,2.89-2.84,1.67L68,579.44l0-.05.12-1.41,17.53-10.26q3.65-2.13,4.56-3.87c.61-1.17.44-2.56-.51-4.19a9.34,9.34,0,0,0-5.5-4.14L65.88,566.23,67.09,570l-2.79,1.64L58.37,563l-.06-.1v-1.6L82.82,547l-1.64-2.79,2.87-1.61c.11.11.61.64,1.48,1.6a22.28,22.28,0,0,1,2.65,3.74A3.94,3.94,0,0,1,88.88,550.69Z"/><path class="cls-1" d="M57.25,547.54l.56,3.8L54.18,553l-5-8.25-.07-.16.47-1.79,2-.92,1.29-.51a17.86,17.86,0,0,1-5.15-3.45,16.39,16.39,0,0,1-3.92-5.39,10.12,10.12,0,0,1-1.07-5.57,7.22,7.22,0,0,1,2.56-4.27,26.07,26.07,0,0,1,6.49-3.85l14.55-6.49-1-3.41,3.17-1.41,6.07,13.6-3.16,1.41-1.69-2.66-14.55,6.5a21.53,21.53,0,0,0-4.13,2.29A4.12,4.12,0,0,0,49.38,531a5.08,5.08,0,0,0,.53,3.09q1.34,3,5.45,5.27l19.19-8.57-.94-3.37L76.77,526l6.15,13.75-3.17,1.42-1.84-2.85Z"/><path class="cls-1" d="M30.14,513.59a4.19,4.19,0,0,1-2.54,2.17,5,5,0,0,1-3.89-.12,4.89,4.89,0,0,1-2.58-3,4.72,4.72,0,0,1,0-3.74,4.25,4.25,0,0,1,2.52-2.16,5,5,0,0,1,3.94.1,5.22,5.22,0,0,1,2.58,3.2l0,.05A4.47,4.47,0,0,1,30.14,513.59Zm11.21-4.14.31,4.23L38,515l-4.67-9.56,0-.11.56-1.91,26.23-9.11-.84-3.81,3.28-1.14,5.28,15.21-3.27,1.14L62.73,502Z"/><path class="cls-1" d="M37.2,491.27a14.5,14.5,0,0,1-7.31-3.95,16.84,16.84,0,0,1-4.34-7.83,19.37,19.37,0,0,1-.7-3.93q-.11-1.71-.09-3.87l0-1.73,9.62-2.23,1.3,4.85-5.76,3c-.9.48-1.09,1.71-.56,3.68a5.68,5.68,0,0,0,4,4.14c2.14.69,5.14.53,9-.48,4.08-1.09,7-2.64,8.82-4.64a6.67,6.67,0,0,0,1.75-6.5,14.69,14.69,0,0,0-4.38-7.19l2.55-2.07a14.24,14.24,0,0,1,4.09,3.66,16,16,0,0,1,3.07,6.08q1.92,7.14-1.52,11.91t-10.58,6.7A18.88,18.88,0,0,1,37.2,491.27Z"/><path class="cls-1" d="M36.5,456.26q-3.51-4.74-5-13l-1.3.22a11.14,11.14,0,0,0-3.56,1.12A3.56,3.56,0,0,0,25,446.73a8.52,8.52,0,0,0,0,3.83,16.46,16.46,0,0,0,1.58,4.88,36.51,36.51,0,0,0,2.65,4.29l-3.33,2.39a14.73,14.73,0,0,1-2.27-2.56A26.76,26.76,0,0,1,21,455.07a21.58,21.58,0,0,1-1.77-5.61,16.86,16.86,0,0,1-.05-7.06,6.93,6.93,0,0,1,3-4.18A17.46,17.46,0,0,1,28.7,436l17.4-3-.53-3.07,3.18-.55a32.13,32.13,0,0,1,1.13,3.14,26.85,26.85,0,0,1,.93,3.65,4.14,4.14,0,0,1-.12,2.69,3.15,3.15,0,0,1-2.22,1.06l-1.53.26a15.77,15.77,0,0,1,3.76,3.45A11.25,11.25,0,0,1,53,448.85a10.63,10.63,0,0,1-.28,5,8.66,8.66,0,0,1-2.63,4.06,9.8,9.8,0,0,1-4.92,2.2Q40,461,36.5,456.26Zm10-12.84a10.9,10.9,0,0,0-2.2-2.37L35,442.67q.9,5.13,3.07,7.35a5.3,5.3,0,0,0,4.9,1.76,6.12,6.12,0,0,0,3.93-2,4.5,4.5,0,0,0,.81-3.74A6.74,6.74,0,0,0,46.49,443.42Z"/><path class="cls-1" d="M47.32,422.28c-1,1.26-2.72,2-5.13,2.22l-21.1,1.93.34,3.74-3,.27c-.15-.29-.4-.83-.76-1.61s-.66-1.37-.89-1.77a5.72,5.72,0,0,0-2.74-1.43q-1.24-.4-6.15-1.35l-.42-4.6,8.43-1-.81-8.8,4.42-.4.81,8.73,16.15-1.48a40.36,40.36,0,0,0,4.52-.59,2.35,2.35,0,0,0,1.63-.9,4,4,0,0,0,.19-2.05,15.66,15.66,0,0,0-.59-3,13,13,0,0,0-1-2.51l3.12-1.39A15.85,15.85,0,0,1,47,410.84a20.18,20.18,0,0,1,1.53,6Q48.82,420.41,47.32,422.28Z"/><path class="cls-1" d="M8.31,401.2a4.19,4.19,0,0,1-3.08,1.3,5,5,0,0,1-3.67-1.27A4.91,4.91,0,0,1,0,397.58,4.74,4.74,0,0,1,1.14,394a4.22,4.22,0,0,1,3.05-1.3A5,5,0,0,1,7.92,394a5.24,5.24,0,0,1,1.5,3.83v.06A4.42,4.42,0,0,1,8.31,401.2Zm11.94-.59-1,4.13-3.86.12-1.59-10.52v-.12l1.11-1.65,27.75-.82.34-3.88,3.47-.11.48,16.1-3.47.1-.64-4Z"/><path class="cls-1" d="M21.15,381a14.46,14.46,0,0,1-5.45-6.08,16.59,16.59,0,0,1-1.54-8q.36-7.26,5-11t12.33-3.35a18.76,18.76,0,0,1,9.2,2.63,13.93,13.93,0,0,1,5.42,6.05,16.83,16.83,0,0,1,1.48,8q-.36,7.2-5,11t-12.33,3.38A18.54,18.54,0,0,1,21.15,381Zm10.5-19.51c-4.38-.22-7.74.14-10.08,1.06a5.28,5.28,0,0,0-3.68,4.91q-.33,6.68,12.24,7.31,6.57.32,10.08-1.15a5.43,5.43,0,0,0,3.69-5Q44.22,362.11,31.65,361.48Z"/><path class="cls-1" d="M22.35,341.82l-1.61,3.48-3.93-.62.31-9.66,0-.17,1.37-1.24,2.22.35,1.36.28a17.74,17.74,0,0,1-2.42-5.71,16.4,16.4,0,0,1-.35-6.66,10.08,10.08,0,0,1,2.15-5.24,7.2,7.2,0,0,1,4.47-2.18,26.17,26.17,0,0,1,7.54.32l15.74,2.5,1-3.41,3.42.55-2.34,14.71-3.42-.55,0-3.15-15.73-2.5a22.19,22.19,0,0,0-4.71-.34,4.11,4.11,0,0,0-2.68,1.07,5.07,5.07,0,0,0-1.25,2.87c-.34,2.17.22,4.63,1.69,7.4L46,337.21l1.06-3.34,3.42.55L48.1,349.3l-3.42-.55,0-3.38Z"/><path class="cls-1" d="M21.88,284.22a4.24,4.24,0,0,1-3.33.29,5.06,5.06,0,0,1-3.11-2.34,4.87,4.87,0,0,1-.36-3.95,4.73,4.73,0,0,1,2.18-3,4.23,4.23,0,0,1,3.3-.3,5,5,0,0,1,3.16,2.36,5.19,5.19,0,0,1,.25,4.1v.05A4.5,4.5,0,0,1,21.88,284.22Zm11.54,3.1L31.22,291l-3.71-1.07,1.72-10.5,0-.11L30.82,278l26.67,7.73L59,282.19l3.32,1-4.48,15.47-3.33-1,.63-4Z"/><path class="cls-1" d="M61.06,272.21A4.36,4.36,0,0,0,63,270.68a9.55,9.55,0,0,0,1.72-2.9,6.24,6.24,0,0,0,.35-4.21,3.69,3.69,0,0,0-2.31-2.3,3.64,3.64,0,0,0-3.48.5,34.28,34.28,0,0,0-4.7,4.29l-1.21,1.28a15.28,15.28,0,0,1-5.85,4.17,9.31,9.31,0,0,1-6.42-.28,7.55,7.55,0,0,1-3.82-3.08,10.23,10.23,0,0,1-1.48-5.23A17.18,17.18,0,0,1,37,256.41a27.27,27.27,0,0,1,1.94-4.24c.67-1.13,1.43-2.29,2.28-3.5a7.46,7.46,0,0,0,1-1.46l7.1,2.62-1.59,4.28-4.57-.28a3.09,3.09,0,0,0-1.52,1.1,7.87,7.87,0,0,0-1.39,2.44,6.41,6.41,0,0,0-.37,3.9,3.28,3.28,0,0,0,2.14,2.3,3.8,3.8,0,0,0,2.85,0,7.43,7.43,0,0,0,2.29-1.43q.95-.88,3.27-3.35a44.93,44.93,0,0,1,4.17-4,10.91,10.91,0,0,1,4.14-2.1,8,8,0,0,1,4.88.36A8.42,8.42,0,0,1,69,258.64q1.34,4.07-.85,10a24.75,24.75,0,0,1-2.33,4.78q-1.29,2-3.17,4.58L61.8,279l-7.14-2.65,1.66-4.49Z"/><path class="cls-1" d="M37,221.19l3.84-9.93,0-.1,1.73-.91,15,8a13.29,13.29,0,0,1-.51-4.62,11.4,11.4,0,0,1,1.37-4.86,11.57,11.57,0,0,1,7.68-6.15q5.09-1.26,12.16,2.51a19.3,19.3,0,0,1,7,6.06,15.68,15.68,0,0,1,2.83,8.27A17.23,17.23,0,0,1,86,228.52a34.36,34.36,0,0,1-4.4,6.62,14.93,14.93,0,0,1-3.25,3.11l-36-19.15-2.64,3.49Zm23.72-4.1a8.81,8.81,0,0,0,.4,3L79.72,230A2.66,2.66,0,0,0,81.4,229a9.77,9.77,0,0,0,1.71-2.36,6.74,6.74,0,0,0-.26-6.83q-2-3.59-7.95-6.75-5.15-2.73-8.51-2.37a5.83,5.83,0,0,0-4.83,3.12A7.14,7.14,0,0,0,60.72,217.09Z"/><path class="cls-1" d="M83.91,196.78q.7-5.86,5.29-12.87l-1.1-.74a11.19,11.19,0,0,0-3.35-1.63,3.53,3.53,0,0,0-2.65.39,8.47,8.47,0,0,0-2.65,2.78,16.94,16.94,0,0,0-2.21,4.63,38.55,38.55,0,0,0-1,4.93l-4.07-.55a15.79,15.79,0,0,1,.13-3.42,25.67,25.67,0,0,1,1.18-5.07A21.78,21.78,0,0,1,76,179.94a17.07,17.07,0,0,1,4.81-5.15,7,7,0,0,1,5.07-1,17.54,17.54,0,0,1,6.28,2.85l14.71,9.78,1.73-2.6,2.69,1.79a32.22,32.22,0,0,1-1.34,3.06,28.74,28.74,0,0,1-1.84,3.29c-.72,1.09-1.37,1.71-1.93,1.86a3.11,3.11,0,0,1-2.34-.75l-1.3-.87a15.44,15.44,0,0,1,.36,5.09,11.28,11.28,0,0,1-1.94,5.44,10.54,10.54,0,0,1-3.64,3.43,8.7,8.7,0,0,1-4.7,1.14,9.88,9.88,0,0,1-5.09-1.78C84.66,203.62,83.43,200.69,83.91,196.78ZM100,194.33a11,11,0,0,0,0-3.23l-7.88-5.24q-2.88,4.32-2.83,7.44a5.29,5.29,0,0,0,2.35,4.64,6.06,6.06,0,0,0,4.23,1.25A4.49,4.49,0,0,0,99.05,197,6.84,6.84,0,0,0,100,194.33Z"/><path class="cls-1" d="M110.62,181.55l2-3.27-17.8-14.15-3.11,2.24-3.12-2.48,4.62-7.76.11-.13,1.8-.41,1,.79,3.55,3,.11-.13A9.31,9.31,0,0,1,98.74,156a14.48,14.48,0,0,1,0-4.83,9.85,9.85,0,0,1,2.06-4.67,6.25,6.25,0,0,1,1.63-1.5l6.78,5.39a7.18,7.18,0,0,0-3.57,2.54,12.19,12.19,0,0,0-2.8,7.14l14.81,11.79,4.58-4.92,2.66,2.12-11.6,14.59Z"/><path class="cls-1" d="M129.16,158.15q-5.8-.36-11.44-5.67a19.69,19.69,0,0,1-5.23-7.58,13.72,13.72,0,0,1-.5-8,16,16,0,0,1,4.12-7.31q4-4.2,8.3-4.39c2.89-.12,5.73,1.06,8.5,3.57a26.25,26.25,0,0,1,3.8,4.21l-12.87,13.66q4,3.44,7.64,3.79A7.64,7.64,0,0,0,138,147.8a15.36,15.36,0,0,0,2.64-3.9,12.59,12.59,0,0,0,1.29-4l3.3,1.13a14.08,14.08,0,0,1-1.22,5.8,18.54,18.54,0,0,1-3.82,6.11Q135,158.51,129.16,158.15Zm-.2-22c-.73-.79-1.31-1.39-1.73-1.78q-5.58-5.27-9.11-1.53a5,5,0,0,0-1.37,4.74q.57,2.67,4.57,6.68Z"/><path class="cls-1" d="M125.28,107.42l-3.65,2.33-2.11-2.29,7-8.15.08-.08,1.89-.25,28.59,31.2,3.41-2.51,2.34,2.56-12,11-2.34-2.55,2.63-3.11Z"/><path class="cls-1" d="M176.26,137.33a7.73,7.73,0,0,1-1.59.74l-3.82-4.86a5.81,5.81,0,0,0,1.56-.63,11.72,11.72,0,0,0,1.86-1.18,6.42,6.42,0,0,0,2.57-4.44,18,18,0,0,0-1.22-7.19l-2.45,1.92L147.33,106.4l-2.5,1-2.07-2.63L155.23,95l2.07,2.63-2.88,3.15,13.92,9.39,5.85,4.07-2.81-6.46-6.17-15.49L161.93,94l-2.07-2.63,9.84-7.74,2.07,2.63L170,88.51q3.5,9.58,6.62,18.59T180,117.29a54.36,54.36,0,0,1,2,8.25,12.72,12.72,0,0,1-.42,5.91,10,10,0,0,1-3.47,4.64A14.17,14.17,0,0,1,176.26,137.33Z"/><path class="cls-1" d="M197,83.91q3.19-5,10.37-9.28l-.67-1.15a11.23,11.23,0,0,0-2.3-2.93,3.58,3.58,0,0,0-2.56-.8,8.58,8.58,0,0,0-3.59,1.35,16.68,16.68,0,0,0-4,3.2,37.14,37.14,0,0,0-3.08,4L187.74,76a15.74,15.74,0,0,1,1.6-3,26.35,26.35,0,0,1,3.28-4,21.89,21.89,0,0,1,4.62-3.64,17,17,0,0,1,6.58-2.54,7,7,0,0,1,5,1.34,17.61,17.61,0,0,1,4.41,5.31l9,15.21,2.69-1.59,1.64,2.79A32.6,32.6,0,0,1,224,88a28.51,28.51,0,0,1-3.08,2.15,4.17,4.17,0,0,1-2.56.84c-.57-.1-1.16-.67-1.77-1.7L215.78,88a15.62,15.62,0,0,1-1.9,4.74,11.3,11.3,0,0,1-4.11,4A10.72,10.72,0,0,1,205,98.25a8.6,8.6,0,0,1-4.72-1,9.68,9.68,0,0,1-3.8-3.82Q193.79,88.89,197,83.91Zm15.54,4.79A10.69,10.69,0,0,0,214,85.81l-4.81-8.15q-4.49,2.64-5.79,5.46a5.3,5.3,0,0,0,.09,5.21,6.14,6.14,0,0,0,3.26,3,4.5,4.5,0,0,0,3.79-.57A6.59,6.59,0,0,0,212.53,88.7Z"/><path class="cls-1" d="M212.73,57.05l13.79-6.48,1.42,3-3.13,2.3,11.43,12,4.28,4.76-1.12-6L237.3,50l-3.61.87-1.42-3,11.49-5.4,1.42,3-2.39,2,2.38,30.32-6.06,2.85-22.5-20.87-2.46.33Z"/><path class="cls-1" d="M256.77,53.93q4.07-4.29,11.93-7.17l-.45-1.25a11,11,0,0,0-1.71-3.31,3.6,3.6,0,0,0-2.36-1.27,8.72,8.72,0,0,0-3.78.65,16.63,16.63,0,0,0-4.54,2.4,37.61,37.61,0,0,0-3.76,3.35l-2.94-2.88a16.16,16.16,0,0,1,2.14-2.67,26.6,26.6,0,0,1,4-3.36,22.26,22.26,0,0,1,5.22-2.7,17,17,0,0,1,6.94-1.26,7,7,0,0,1,4.64,2.26,17.55,17.55,0,0,1,3.34,6l6,16.62,2.94-1.05,1.09,3a32.93,32.93,0,0,1-2.9,1.65,26.69,26.69,0,0,1-3.44,1.54,4.17,4.17,0,0,1-2.66.35c-.55-.21-1-.88-1.43-2l-.52-1.46a15.77,15.77,0,0,1-2.75,4.3,11.3,11.3,0,0,1-4.8,3.19,10.6,10.6,0,0,1-5,.59,8.77,8.77,0,0,1-4.45-1.9,9.78,9.78,0,0,1-3-4.46Q252.69,58.21,256.77,53.93Zm14.36,7.63a10.9,10.9,0,0,0,2-2.57l-3.2-8.91c-3.26,1.17-5.5,2.59-6.71,4.28a5.27,5.27,0,0,0-.89,5.13A6.11,6.11,0,0,0,264.93,63a4.54,4.54,0,0,0,3.83.15A6.78,6.78,0,0,0,271.13,61.56Z"/><path class="cls-1" d="M281.49,22.9a4.21,4.21,0,0,1-2-2.69,5,5,0,0,1,.37-3.87A4.87,4.87,0,0,1,283.05,14a4.7,4.7,0,0,1,3.72.26,4.25,4.25,0,0,1,2,2.66,5,5,0,0,1-.36,3.93A5.22,5.22,0,0,1,285,23.18H285A4.47,4.47,0,0,1,281.49,22.9Zm3.4,11.46-4.25,0-1-3.73,9.84-4,.12,0,1.86.68,7.37,26.77,3.85-.58.92,3.34-15.53,4.27-.92-3.34,3.76-1.57Z"/><path class="cls-1" d="M301.5,14l-4.33.16-.66-3,10.18-3.48.11,0,1.76.75,8.87,41.36,4.22-.43.72,3.39-16,3.43-.72-3.39,3.84-1.36Z"/><path class="cls-1" d="M327.83,34.57Q332.71,31.23,341,30l-.18-1.32a11.27,11.27,0,0,0-1-3.59,3.6,3.6,0,0,0-2-1.73,8.62,8.62,0,0,0-3.84-.15A16.68,16.68,0,0,0,329,24.65a36.62,36.62,0,0,0-4.38,2.49l-2.28-3.42A15.73,15.73,0,0,1,325,21.56a25.88,25.88,0,0,1,4.58-2.47,21.86,21.86,0,0,1,5.67-1.56,17,17,0,0,1,7.05.2,7,7,0,0,1,4.08,3.17,17.64,17.64,0,0,1,2,6.6l2.4,17.5,3.09-.43.43,3.21a31.86,31.86,0,0,1-3.18,1,27.92,27.92,0,0,1-3.68.8,4.13,4.13,0,0,1-2.68-.22,3.11,3.11,0,0,1-1-2.25l-.22-1.54A15.51,15.51,0,0,1,340,49.21a11.36,11.36,0,0,1-5.36,2.14,10.66,10.66,0,0,1-5-.46,8.68,8.68,0,0,1-4-2.78,9.72,9.72,0,0,1-2-5Q323,37.92,327.83,34.57ZM340.3,45a10.82,10.82,0,0,0,2.45-2.12l-1.28-9.37c-3.44.47-5.92,1.4-7.46,2.79a5.3,5.3,0,0,0-1.93,4.84,6.11,6.11,0,0,0,1.86,4,4.53,4.53,0,0,0,3.71,1A6.84,6.84,0,0,0,340.3,45Z"/><path class="cls-1" d="M352.58,1.86,363.09.18h.11l1.66,1,.66,17a13.39,13.39,0,0,1,3.73-2.77,12.26,12.26,0,0,1,14.07,2.28q3.65,3.76,3.95,11.78a19.38,19.38,0,0,1-1.72,9.08,15.7,15.7,0,0,1-5.72,6.6,17.21,17.21,0,0,1-8.94,2.69,35.24,35.24,0,0,1-7.93-.47,15.56,15.56,0,0,1-4.33-1.25L357.05,5.38l-4.35-.52Zm15.48,18.43a9,9,0,0,0-2.39,1.85l.82,21.06a2.68,2.68,0,0,0,1.66,1,9.13,9.13,0,0,0,2.9.29,6.76,6.76,0,0,0,5.78-3.66q2.09-3.51,1.82-10.26-.22-5.84-2.24-8.55a5.82,5.82,0,0,0-5.13-2.61A7.09,7.09,0,0,0,368.06,20.29Z"/><path class="cls-1" d="M396.85,4.88,392.61,4l.12-3.12L403.45,0h.12l1.51,1.16-1.65,42.28,4.19.62-.14,3.47-16.32-.64.14-3.46,4.05-.36Z"/><path class="cls-1" d="M414.37,44.14c-2.14-3.24-2.91-7.43-2.34-12.55A19.76,19.76,0,0,1,415,22.86,13.64,13.64,0,0,1,421,17.68a15.94,15.94,0,0,1,8.31-1.1q5.73.65,8.49,4c1.84,2.25,2.59,5.22,2.25,8.94A25.25,25.25,0,0,1,439,35.09L420.36,33c-.24,3.5.27,6.3,1.55,8.4A7.61,7.61,0,0,0,428,45a15.39,15.39,0,0,0,4.7-.23,12.61,12.61,0,0,0,4-1.35l1.08,3.32a14.31,14.31,0,0,1-5.37,2.5,18.54,18.54,0,0,1-7.18.61Q417.56,49,414.37,44.14ZM431.81,30.8c.2-1.06.33-1.88.4-2.46q.85-7.62-4.25-8.2a5,5,0,0,0-4.61,1.75c-1.2,1.37-2.07,3.93-2.61,7.66Z"/><path class="cls-1" d="M444,51.19a4.13,4.13,0,0,1-.74-3.34,4.45,4.45,0,0,1,2.14-3.15,5.36,5.36,0,0,1,3.91-.66,4.28,4.28,0,0,1,3,1.87,4.39,4.39,0,0,1,.63,3.26,4.49,4.49,0,0,1-2.09,3.22,5.58,5.58,0,0,1-4,.58A4.41,4.41,0,0,1,444,51.19Z"/><g class="cls-2"><path class="cls-1" d="M701.51,383.62c-.11,2.92,2,1.87,2.34,2.31C703.27,381,701,383.75,701.51,383.62Z"/><polygon class="cls-1" points="692.81 336.21 693.8 336.91 690.5 330.34 692.81 336.21"/><path class="cls-1" d="M682.67,292.84c-1.07,2.54.12,6.36,1.77,10.56.42,1.05.85,2.12,1.28,3.21l.64,1.63c.19.55.36,1.1.53,1.65a29.62,29.62,0,0,1,1.32,6.38l-.5,1.45,3.61,2.88c-.65-2.34-1.44-4.84-2.25-7.36s-1.61-5.1-2.57-7.53A71.79,71.79,0,0,1,682.67,292.84Z"/><path class="cls-1" d="M681.8,267.61c-.74,1.91-3-4.45,1.68,5.44a9.66,9.66,0,0,1-.05-1.08C683.05,271.06,682.56,269.79,681.8,267.61Z"/><path class="cls-1" d="M683.43,272c1.86,4.44-.06-3.35,0,0Z"/><path class="cls-1" d="M674.05,251.85l3.74,5.26c.21-1.54-2-6.78-.55-5.11C673.92,246.32,673.75,247.92,674.05,251.85Z"/><path class="cls-1" d="M669.16,247.57c.66.88,1.3,1.78,1.89,2.7C671.13,249.6,670.9,248.75,669.16,247.57Z"/><path class="cls-1" d="M674.91,256.1l-3.86-5.83c-.14,1.08-1.15,1.65,1.67,2.72C671.53,252.92,673,253.73,674.91,256.1Z"/><path class="cls-1" d="M676,259.89a23.15,23.15,0,0,1,.82,4.62c0,.44-.18.59-.54.31a15,15,0,0,1-1.85-2.33c.7,1.33,1.21,2.5,1.72,3.45a23.47,23.47,0,0,0,1.33,2.27c.76,1.12,1.27,1.49,1.48,1.17s.12-1.33-.34-2.95A33.33,33.33,0,0,0,676,259.89Z"/><path class="cls-1" d="M678.43,291.81c.16,1.55.33,3.1.38,4.67L681,300c-.55-.87-.92-3.06-1.28-5S678.9,291.51,678.43,291.81Z"/><path class="cls-1" d="M656.83,216.31c-.85.07-.56,2.86-1.14,3.77,1.11,1.13,2.12,2.34,3.14,3.54C658.15,221.24,656.05,217.18,656.83,216.31Z"/><path class="cls-1" d="M655.69,220.08l-4.85-5.16C654.05,220.21,655.19,220.84,655.69,220.08Z"/><polygon class="cls-1" points="665.1 248.33 667 250.53 668.78 252.81 672.35 257.39 668.31 251.82 667.31 250.44 666.23 249.1 664.08 246.42 665.1 248.33"/><path class="cls-1" d="M641.78,194.11c1.27.7,2.5,1.45,3.75,2.19l-3.13-2.11-3.25-2Z"/><path class="cls-1" d="M630.45,180.4c3,1.3-.77-4.66,2-2.87a48,48,0,0,0-10.36-7.86C625.18,172.17,627.79,175.53,630.45,180.4Z"/><path class="cls-1" d="M616.55,166.28a58.56,58.56,0,0,0,5.5,3.39A29.1,29.1,0,0,0,616.55,166.28Z"/><path class="cls-1" d="M644.57,204.91c.06-.7.45-2.23-1.41-5.72l-.15,3.48Z"/><path class="cls-1" d="M643,202.79v-.12l-3.32-4.88Z"/><path class="cls-1" d="M645,205.48l-.39-.57C644.55,205.25,644.58,205.42,645,205.48Z"/><path class="cls-1" d="M658.37,231.55c-3.07-2.94-8.32-9.49-5.86-1.57C655.2,231.74,653.78,227.18,658.37,231.55Z"/><path class="cls-1" d="M644.71,209.75c1.28,2.07,2.39,4.26,3.59,6.38.39-.43.37-2,2-.62C648.39,213.58,646.63,211.6,644.71,209.75Z"/><polygon class="cls-1" points="642.09 207.22 644.71 209.75 643.29 207.44 642.09 207.22"/><path class="cls-1" d="M623.64,177a26.09,26.09,0,0,1-3.94-3.22c-1.3-1.19-2.64-2.48-4-3.86,1.28,1.69,2.7,3.29,4,5s2.66,3.32,4,4.88C624.56,179.76,626.67,180.36,623.64,177Z"/><path class="cls-1" d="M633.24,189.4c-.17-.14-.36-.35-.53-.48C632.84,189.38,633,189.69,633.24,189.4Z"/><path class="cls-1" d="M587.58,143.36c.09.24.13.47.22.71a2.37,2.37,0,0,1,.35-.19Z"/><path class="cls-1" d="M623.83,180.56a13.14,13.14,0,0,0,5.07,4.68c-1.71-1.65-3.46-3.46-5.23-5.47C623.27,179.77,623.09,179.86,623.83,180.56Z"/><path class="cls-1" d="M608.24,159.2c.44.73.93,1.49,1.46,2.27s1,1.61,1.6,2.45a19.58,19.58,0,0,0-1.44-3C609.26,160,608.64,159.21,608.24,159.2Z"/><path class="cls-1" d="M632.51,187.71c.13.11.24.19.37.32C632.59,186.92,632.5,187.16,632.51,187.71Z"/><path class="cls-1" d="M632.51,187.71a23.52,23.52,0,0,0-3.61-2.47,49.15,49.15,0,0,0,3.81,3.68A4.93,4.93,0,0,1,632.51,187.71Z"/><path class="cls-1" d="M570,146.92c.81-.62,3.07-.06,5.66,1.42a22,22,0,0,1,4,2.86,22.42,22.42,0,0,1,3.39,4.14c6.1,3.33,7.11-4.42,4.76-11.27-.74.55-1.16,1-7.58-2.49.64,1.22,3.43,4.1,5.11,6.6s2.58,4.26-.27,3c-1.95-1.34-3.23-2.39-4.18-3.18a8.78,8.78,0,0,1-1.87-2c-.77-1.16-.9-2.14-2.39-4,.78,2.17-2.15,1-5.3-.13s-6.66-2.13-6.89-.11c2.49,1.18,4.83,2.56,7.23,3.89C571.43,146.22,568.57,145.12,570,146.92Z"/><path class="cls-1" d="M598.1,153.31l2.32,1.88a38.73,38.73,0,0,1-2.87-3.91c-.92-1.38-1.85-2.95-3-5-4.42-2.55-5.67-2.66-6.35-2.38l5.47,4.93,2.74,2.46,1.37,1.23,1.31,1.3Z"/><path class="cls-1" d="M610.07,164.52a9.55,9.55,0,0,1-2.67-.72c-1-.34-1.95-.73-2.78-1-1.66-.49-2.71-.37-2,2,.79.73,1.47,1.33,2.07,1.81s1.06.91,1.5,1.22a7.66,7.66,0,0,0,2,1.12,11.06,11.06,0,0,1,4.19,2c-10.09-9.8,3.66,2.1-2.5-6.13,2.18,1.76,4,3.5,5.69,5.14-1.57-2-3-4-4.36-6,.06.13.09.22.13.33l.05,0,0,0c.23.63.25.89-.11.28a1.66,1.66,0,0,1-.24-.18,2,2,0,0,1-1,.1c-2.52-3.28-.05-.86,1-.1.11,0,.26,0,.35-.1a.14.14,0,0,0,0-.06c-.9-.78-1.76-1.6-2.68-2.34L606,159.66l-5.55-4.47a53.1,53.1,0,0,0,3.73,3.83c.78.74,1.65,1.54,2.65,2.44l1.57,1.42Z"/><path class="cls-1" d="M644.77,226c-.07-.45.07-.52.19-.63C644.26,224.8,643.92,224.62,644.77,226Z"/><path class="cls-1" d="M642.82,220.59a9,9,0,0,1,3.54,3.79c1,2.72-.88.53-1.4,1,1.55,1.32,4.95,5,2.59-.76l-.78-.67c-2.36-5.06-4-12.62-3.25-12A19.75,19.75,0,0,0,642.82,220.59Z"/><path class="cls-1" d="M627.36,191.94c-2.6-2.87-5.46-5.52-8.25-8.21l2.43,5.65.67-.94c1,1.29,1.71,2.19,2.26,2.77a3.32,3.32,0,0,0,1.3.95C626.43,192.36,626.78,191.89,627.36,191.94Z"/><polygon class="cls-1" points="587.24 141.65 589.89 140.94 588.07 140.43 586.21 139.98 582.51 139.11 587.24 141.65"/><path class="cls-1" d="M575,132.34l1.64-1.23c-1.32-.52-2.69-1-4-1.43Z"/><path class="cls-1" d="M134.39,534.66l2.09,2.49A21.61,21.61,0,0,0,134.39,534.66Z"/><path class="cls-1" d="M123.44,514.15l-1.14-.08C123.28,514.79,123.83,515,123.44,514.15Z"/><path class="cls-1" d="M219.19,117c-5.23,1.15-11.66,1.87-9.9,3.39l2.51,1A27,27,0,0,1,219.19,117Z"/><path class="cls-1" d="M88.18,326.26l.89-1.27c-.46-1.31-.9-2.53-1.29-3.63C87.91,322.84,88,324.49,88.18,326.26Z"/><path class="cls-1" d="M96.4,331.29l-2.48,5.9A37.63,37.63,0,0,0,96.4,331.29Z"/><path class="cls-1" d="M221.84,624.81c1.42.11,2.83.23,4.29.26a27.48,27.48,0,0,0-2.55-1.49c-.54-.23-.84-.23-1-.1C222.21,623.74,222.33,624.5,221.84,624.81Z"/><path class="cls-1" d="M430.52,73.49a67.32,67.32,0,0,0-10.67-2.68C425,72.71,428.89,75.1,430.52,73.49Z"/><path class="cls-1" d="M109.67,537.84c1.4,1.65,2.24,2.22,2.63,1.92C110.89,538.06,109.91,537.19,109.67,537.84Z"/><path class="cls-1" d="M407.24,69.76c.75.28,1.5.44,2.27.69,1.61-.06,3.22-.1,4.92-.08a34,34,0,0,1,5.42.44,24,24,0,0,0-6.07-1.47A17.71,17.71,0,0,0,407.24,69.76Z"/><path class="cls-1" d="M627.21,548.92c.27-.22.52-.54.78-.73C627.8,547.94,627.54,548.32,627.21,548.92Z"/><path class="cls-1" d="M696.05,427.68c0,1.43-.33,3.72-.58,5.89A28,28,0,0,0,696.05,427.68Z"/><path class="cls-1" d="M522.41,99.45c3,1.3.59,0,0,0Z"/><path class="cls-1" d="M532.53,114.22c-.72-.09-1.32,0-1.63.35A2.21,2.21,0,0,1,532.53,114.22Z"/><path class="cls-1" d="M375.14,82.71h-.27C375.81,83.11,375.65,83,375.14,82.71Z"/><path class="cls-1" d="M526.38,102.54a36,36,0,0,0-3.44-2.48A41.17,41.17,0,0,0,526.38,102.54Z"/><path class="cls-1" d="M526.25,101.32l2.45,1.49C529.24,102.68,529,102.31,526.25,101.32Z"/><path class="cls-1" d="M518.2,97.67a46.52,46.52,0,0,1,4.74,2.39c-.52-.39-.72-.62-.53-.61Z"/><path class="cls-1" d="M424.61,680.53c.21.05.44.06.68.13C428.23,679.37,426.91,679.69,424.61,680.53Z"/><path class="cls-1" d="M170.31,186.18a2.59,2.59,0,0,0,.17-.33l-.37.28Z"/><path class="cls-1" d="M164.3,195.37c1-5.24,2.92-7.14,5.81-9.24-2.35-.54-4.76-1.1-7.11-1.57Q163.58,190,164.3,195.37Z"/><path class="cls-1" d="M167.66,579.15l-3.47-7a79.6,79.6,0,0,1,8.71,6.1c.78.56,1.27.7,1.35.32a9.51,9.51,0,0,0-.82-3.14c-1.44.93-3.37,0-5.58-1.74a49.39,49.39,0,0,1-7-7.31,75.47,75.47,0,0,0-6.77-7.54c-2-2-3.88-3.07-5.41-2.29l-1.73-4.9c.77,1.2,1.23,1.16,2,2.34-3-9.69-8.18-3.12-14.27-14.31a19,19,0,0,1-1.14-2.8,10,10,0,0,1-.51-2.06c-.12-1,.26-1.26,1.35-.17L128.06,527c-.67-1.26-.61-1.91-.27-1.89s1,.66,1.64,1.91l-1-1.58-.91-1.62-1.82-3.26-3.64-6.51h.23a31,31,0,0,1-3.61-3.35c-1.3-1.35-2.58-2.76-3.39-3.7-.69-3.89,1.45,1.45,1.81.21-1.62-2.31-3.33-4.59-4.89-7,.19-1.92,1.3-1.42,2.62.2a26,26,0,0,1,4.08,7c1.51-4.92.42-6.24-1.44-8.51s-4.3-5.58-5.39-14c1.12,2.34,2.41,4.61,3.6,6.91a12.38,12.38,0,0,0,.46-4.4,44,44,0,0,0-.68-4.5,74.83,74.83,0,0,1-1.78-11.14c-.27,1.15-.33,5.69-.85,9s-1.52,5.48-3.75,1.51a22.39,22.39,0,0,0-4-10c2.29-.76.45-5.09-1.3-10.72l3.2-.45a23,23,0,0,0-1.76-3.28,9.45,9.45,0,0,0-1.43-1.82,17.62,17.62,0,0,1-3-3.2c-1.3-7,.78-8.93,2.58-11-.73-5.55-1.37-3.48-2.19-1.61s-1.8,3.55-3.28-3a57.63,57.63,0,0,0-.71-6.66c-.28-2.11-.62-4.14-1.1-6.23-.93-4.17-2.42-8.52-3.7-14.14.59-6.72,2,1,2.77-1.45l-3-5.69c0-1.44.77-1,1.18-.81a5.16,5.16,0,0,0-1.06-2.22,4.12,4.12,0,0,0-1.16-.72c-.8-.42-1.58-1.2-2.12-5.14-.89-.51-1-1.79-.83-3.57.1-.89.3-1.91.53-3l.39-1.72.5-1.82a49.16,49.16,0,0,0,1.61-7.92,20.15,20.15,0,0,0-.7-7.88c1.09-2.33,1.87,1.27,3.16.61-.8-6.67-1.06-9.58-1.46-12.18s-.7-4.9-1.78-10.61l1.63-4.52c.53-1.5,1.22-3,1.81-4.45-3.58,6.4-4.84-2.68-5.74-10.93-1.58,2.23-3,4.17-3.68,5.5l.27-6.41c0-1.08.13-2.14.23-3.21l.3-3.19c.86-1.39,1.64.11,2.48,2.41-.06-.9-.13-1.75-.23-2.43C89.73,314.78,91,317.51,92,321c-1,1.34-2,2.68-3,4,1.36,3.45,3,6.65,4.93,6.36a15.21,15.21,0,0,1-.14-4.14c.38.89.75,1.48,1.13,1.18s-.13-1.75-.44-3.88l4.12-2-1.23-1,2.88-7.53c.45-1.26,1-2.49,1.55-3.72l1.62-3.68c-.08-3-.3-5.93-.48-8.95s-.13-6.08,0-9.37c0-1.65.12-3.35.24-5.11s.46-3.55.78-5.43.74-3.85,1.24-5.9a49.47,49.47,0,0,1,1.88-6.39c.5,5.24,3.52,2.57,6.26,4a7.4,7.4,0,0,0-2.78,3.68,31.66,31.66,0,0,0-1.56,5.48l-1.37,6.43a33.78,33.78,0,0,1-2,6.69c1.91-4.55,3-3,3-1.68.72-5.64,2-11.13,3.12-16.75,1.1.66,1.87,0,2.68-1.26s1.81-3.09,3.18-4.87c-3,.49-2.45-2.69-1-6.9.37-1.05.78-2.17,1.24-3.3l1.49-3.33a43.45,43.45,0,0,0,2.31-6.05c1.68.41,2.45,2.67-1.71,9.9,3.79-3.26,3.81-6.53,3.8-9.9s.07-6.73,3.73-9.89c-1,1.8-1.77,2.64-1.43,3.75.54-2.43,2.54-6.07,4.38-8.68a12.72,12.72,0,0,1,2.54-2.82c.67-.51,1.09-.5,1,.27L133,232c2-2.78,4.33-6.33,6.75-10.17.58-1,1.24-1.91,1.9-2.86l1.94-2.89c1.28-1.94,2.53-3.89,3.69-5.79s2.38-3.66,3.39-5.36,1.93-3.27,2.64-4.69c1.41-2.86,2.1-5.06,1.65-6.11.5.25,2.77,4.63,3,5.83a283.6,283.6,0,0,1,5.7-27.87c.55,2.06,3.86,3.07,6.19,4.81s3.72,4.18.63,8.92a40.28,40.28,0,0,0,4.32-3.66,56.87,56.87,0,0,0,5.29-6.43,6.43,6.43,0,0,1-4.33.16c-1.41-.39-2.4-1.27-1.41-2.44a41.16,41.16,0,0,0,7.4-2.85l2.78-1.51a47.32,47.32,0,0,1,5.34-2.47c-3,1.57-4.09-5.07.07-8.43-.07,1.19,4,4,3,5.7l3.09-6.39c1-2.14,2.21-4.16,3.34-6.27-2,2.82,2.54,4.07,5.77,3.55-.86,0,1.35-1.73,4.07-3.75s6.14-4.07,7.36-5.31l-5.22,2.11a24.2,24.2,0,0,0,6.56-5.73,26.63,26.63,0,0,0,1.85-2.82c.56-.91,1-1.82,1.52-2.74a32.76,32.76,0,0,1,3.47-5.59,21.56,21.56,0,0,1,6.87-5.61c-1,1.91-.1,8.3,6.64,5.24.38-1,.94-2.78,1.77-5a54.43,54.43,0,0,1,3.37-7.42,57,57,0,0,1,5.36-8.07,32.33,32.33,0,0,1,3.45-3.77,34.33,34.33,0,0,1,4-3.15l3,.43c2.88-2,5.76-4,8.77-5.82-2.24,3.09-6.45,8.81-10.89,14.37-2.25,2.73-4.41,5.78-6.5,8.41s-4,5-5.67,6.91c5.45-1.38,2.26,1,9.42-2.84,3.23.08-2.86,4.1-4.92,5.26l8.56-3.83,2.14-1,2.18-.85,4.36-1.69c-1.07-1.36,1.85-3.61,4.86-5.82s6.21-4,5.36-5.22c-6.06,3.47-11.76,7.57-17.5,11.38-1.11-1.34.56-4.71,4.19-8.43a38.85,38.85,0,0,1,3.06-2.82,28.56,28.56,0,0,1,3.73-2.71,47.41,47.41,0,0,1,9-4.29c3.7,0-.31,6.56.39,7.49a9.13,9.13,0,0,1,2.27-1.78,27.12,27.12,0,0,1,4-2.12c2.88-1.3,5.78-2.34,6.5-2.15l-4.83,3.53c3.75-.6,6.26-2.63,9.09-4.5a17.53,17.53,0,0,1,4.67-2.3,15.91,15.91,0,0,1,6.12-.72,10.57,10.57,0,0,1,2.85-.05c1.08.09,2.24.25,3.31.43,2.14.34,3.87.49,3.91-.54-5.77-2.61-9.88-13.84-7.07-17.44.59,0,5-.09,9.74,0,1.18,0,2.38,0,3.55.08s2.32.2,3.37.31a29.32,29.32,0,0,1,4.86.79c2.87,1,1.2,3.13-.51,5.2s-3.48,4.1-1.08,5c0-.94,2.61-2.55,3.73-3.12,3.38.19-.85,3,6.1,1.37.66-3.54,14.49-1.55,2.93-3.29a24,24,0,0,1,7.36-1,77.27,77.27,0,0,0,8.34-.28c-1.41-1,.26-3,3.23-5A33.5,33.5,0,0,1,367.4,82a25,25,0,0,1,2.87-1.07,25.89,25.89,0,0,1,2.8-.63c-.39.88,1.27,2,2.07,2.46,3.67,0,6.92.06,9.94.17s5.8.55,8.54.82l8.32.83c2.87.37,5.9.7,9.29,1a40.26,40.26,0,0,0,3.89,1.7c1.39.62,2.24,1.39.79,2,2-.37,3.88-1.28,8-.84,7.61,3.94-9.26-.71-3.6,3.57.37-.95,3.11-1.29,6.53-1.45,1.7-.05,3.59-.17,5.41-.1s3.59.08,5.11,0c-.32-.83-1.33-1.44-2.75-1.87a19.31,19.31,0,0,0-5.26-.76c-4-.11-8.56.25-11.57.48.2-2.09,3-3.92,7.66-5.22q1.74-.48,3.81-.87a36.57,36.57,0,0,1,4.42-.6A93.81,93.81,0,0,1,444,81.44a18.31,18.31,0,0,1,5.63,1.06c1,.43,1.23.85,1.18,1.22-.1.74-1.37,1.26-.33,1.19a52.86,52.86,0,0,0,12.2,2,45.64,45.64,0,0,0,7.66-.15,28.09,28.09,0,0,1,6.95.1,19.87,19.87,0,0,1,4.31,1.23A48.26,48.26,0,0,1,487,90.61c5.95,4.86-1.46,5.16-.58,7.5A41.7,41.7,0,0,1,475.72,94a48.55,48.55,0,0,0-8.55-3.61l7.15,3.35c-3.12,0-9.25-1-12.3-2.67,1.27,1,4.07,2.13,7.79,3.38,1.85.64,3.95,1.27,6.18,2l7,2.47c2.43.87,5,1.69,7.47,2.65s4.95,2,7.36,3.09l3.53,1.56a35.68,35.68,0,0,1,3.34,1.63c2.13,1.14,4.11,2.27,5.87,3.37,3,.37,8,1.62,6.32-.34L512,109.08c-3.52-4,10.31,1.37,4.65-2.3l2.73.58c.92.21,1.84.46,2.78.7,1.89.49,3.84,1,5.85,1.71a53.23,53.23,0,0,1,6.11,2.44,46.46,46.46,0,0,1,6.11,3.86l.1,3.6c.27-.87-4.78-4.87-7.69-5.44,2.15.43,5,3.27,8,5.81a28.1,28.1,0,0,0,4.6,3.3,6.9,6.9,0,0,0,4.52,1.15c-1.6-1.85-3.17-3.79-4.88-5.53,1.78.54,3.64,1.15,5.58,1.81s4,1.33,6,2.11a42.74,42.74,0,0,1,6,2.77,34.93,34.93,0,0,1,5.5,3.93c-1.64-4.86-1.87-.93-5.18-7.56,1.12,3.34-3.74.15-8.27-2.77a37.28,37.28,0,0,0-5.74-3.32c-1.33-.42-1.71,0-.39,2.14-1.77-3.43-4.06-5.22-6.58-7.1a49.2,49.2,0,0,1-8.4-7.34c-.23,1,1.85,3.12-4.75-.82a7.85,7.85,0,0,1-1.89,0l-.43-.3.32.3c-.36,0-.4,0,.13.11a10,10,0,0,1,2.76,3.14,13.24,13.24,0,0,1-4.29-.68c-.84-.24-1.73-.53-2.64-.85s-1.84-.67-2.8-1c-3.81-1.26-7.58-2.65-9.67-2.93-3.88-2.28,2.17-.3.38-2.29l-3.13-.43-3.16-.29c.34-2.28-9.77-7.86.65-5.17L496,88.86A31.07,31.07,0,0,0,492,86.57c-1.45-.71-3-1.39-4.5-2a33.79,33.79,0,0,0-8.53-2.38c-4.26-1.72-11.73-.75-7.45-1.36-2.49-.46-5-1-7.45-1.36l-7.51-1v-.58c-7.19-2-14.95-2.21-22.77-3.18a108.49,108.49,0,0,1-24.23-4.25c-2.52.1-5.08.19-8,.17A77.49,77.49,0,0,1,391,70.21l-1.61-2c-3.23.17-8.07-.12-12.47-.34s-8.36-.29-9.68.89c-1.81-1.17-4.7-1.68-8.19-1.78-1.74,0-3.64,0-5.62.12s-4,.49-6.13.81-4.21.7-6.3,1.07-4.16.7-6.11,1.18a92.89,92.89,0,0,1-10.39,1.87l.06,2.57c-1,.15-1.93.32-2.88.5s-1.89.46-2.83.71c-1.89.5-3.79,1-5.73,1.65s-3.93,1.24-6,1.94-4.18,1.63-6.43,2.52l1.16,2c-3.71,2-8.95,2.94-14.7,4.38-2.89.66-6,1.33-9.07,2.11a87.37,87.37,0,0,0-9.21,3.19c.51-1.12,3.71-2.14,6.08-2.52A37.11,37.11,0,0,0,263.1,94a88.52,88.52,0,0,0-10.71,6c-3.5,2.09-6.74,4.55-10.09,6.48A45.4,45.4,0,0,1,232.05,111a18.06,18.06,0,0,1-7.46,4.26,3.39,3.39,0,0,0,.7-.54c-.33.16-.8.42-1.27.7-.78.23-1.59.43-2.39.69s-1.61.55-2.44.87a38.21,38.21,0,0,0,4.15-1.16,78.57,78.57,0,0,0-8.76,6.59l-2.78-1.08c-.26.21-.49.35-.75.57-3.88,1.43-2.07,2.68.72,3a23.18,23.18,0,0,0-3.58,4.22c-2.41-.66-4.4,1.15-6.51,3a19.77,19.77,0,0,1-3.34,2.54,6.36,6.36,0,0,1-4,1c-.46,1.65-4.23,5.1-7.74,8.7-3.38,3.77-6.47,7.7-5.86,10-.47-.32-1.53.25.07-1.19-.92.64-1.84,1.28-2.74,1.94-.45.33-.9.66-1.33,1s-.83.71-1.23,1.08a20.72,20.72,0,0,0-4,4.88l-3.5-.89-2.1,4.85L164,171c-5.4,3-7.94,4.06-5.55-1.86-1.82,3.23-3.17,5.39-4.23,7.06s-1.78,2.86-2.52,4a54.11,54.11,0,0,0-5.28,9.94l-1.17-1.72c-2.63,3.47-4.78,10.5-7.68,11.55-2.2,1.36-5,4.51-8.34,8.7-.82,1-1.71,2.15-2.56,3.35l-2.56,3.78-5.48,8.36c-7.19,11.92-14.58,25.85-21.09,36.69,3.69-1,1.84,1.31-.32,4.34s-4.61,6.78-2.68,8.05c-1.82.85-3.83,3.84-3.46-.38-.43,1.56-.9,3-1.38,4.33s-.87,2.62-1.33,3.81c-.89,2.39-1.81,4.5-2.62,6.51-.4,1-.78,2-1.11,3a17.15,17.15,0,0,0-.77,3,21.56,21.56,0,0,0-.13,6.55c-1.73,1-1.19-3.2-2.34-2.17,0,1.09,0,4.27-1.12,5.34s-.6-2.12-.62-4.26a35,35,0,0,0-1.31,7.8,12.21,12.21,0,0,0,.9,4.83c1.07,2.41,3,3.42,4.79,4.33a22.87,22.87,0,0,0-2.95,7.49,15.45,15.45,0,0,0,1,6.88c-1.68,2-3.7,5.54-2.74-2.48-.26,1.1-.78,3.35-1.43,6.1l-1,4.44c-.26,1.56-.5,3.18-.72,4.78-.86,6.37-1.28,12.28.39,12.67-.91,1.33-.71,6.28-.43,7.49l-.62,6.12c-.15,1.66-.19,3-.26,4.4-.13,2.73-.2,5.44-.17,10.42l.59-2.75c1.91,2,2,4,1.88,6.58a57.37,57.37,0,0,0-.37,9.63l-.4-.22a49.13,49.13,0,0,0-.54,9.3,18.62,18.62,0,0,0,.54,3.81,16.47,16.47,0,0,1,.45,3.77c0,.93,0,2.09-.07,3.59s-.06,3.33-.17,5.63l2.26-1.26c2.67.54,2.41,4.53,1.9,9.75-.32,5.17-.72,11.6,1.18,16.57.2-1.33.44-2.66.66-4,1.3,2.65.52,6.85-.58,11.25s-2.54,9-2,11.87c-.07,1.34-1.29-1.76-2-3.42,1.2,15.67,3.56,1.13,7.35,11.89-.52,1.25-1.74.92-2.6,1.19a1.29,1.29,0,0,0-.89,1.17,8.8,8.8,0,0,0,.54,3.77c0,2,3,7,6.24,12.66a81.71,81.71,0,0,1,4.79,8.76,35.21,35.21,0,0,1,1.7,4.43,20.65,20.65,0,0,1,1,4.21c.24-2.65.51-5.21,3.58-.81a35.16,35.16,0,0,1,2.38,6.52c.35,1.24.7,2.52,1.06,3.82s.83,2.58,1.26,3.87a45.66,45.66,0,0,0,3,7.22,15.41,15.41,0,0,0,2,2.9,11.29,11.29,0,0,0,2.49,2.08c.2,1.06.1,1.57-.16,1.76,1,1.22,2.22,2.86,3.55,4.66s2.74,3.8,4.3,5.6c3,3.66,6,6.94,7.93,7.87-1,2.38.23,5.31,2.34,8.55a61.11,61.11,0,0,0,8.41,9.81c1.58,1.58,3.14,3.1,4.53,4.55s2.6,2.82,3.63,4c2,2.38,2.81,4.33,1.34,5.56,2.15,2.33,4.22,4.74,6.43,7l6.71,6.74-.9.19c1,1.14,2,2.17,2.85,3.1s1.81,1.69,2.64,2.41a41.15,41.15,0,0,0,4.49,3.34,29.86,29.86,0,0,0,7,3.26c1.76,2.21-.25,1.41-.69,1.55,6.19,6.36,9.63,9.89,13.48,12.32a52.28,52.28,0,0,0,6.13,3.45c1.17.55,2.39,1.18,3.84,1.74l4.81,1.87-.19,2.91c1,.28,2.7,1.55,4.89,3.42,1.08,1,2.36,2,3.74,3.07l4.48,3.58c1.6,1.26,3.29,2.58,5.07,3.87s3.73,2.43,5.69,3.6,4,2.28,6,3.3a30.43,30.43,0,0,0,3.11,1.35c1.05.41,2.11.78,3.16,1.12-.28.17-.82.43-2.22.11,9.35,3.29,19.18,9.86,28.39,14.54,2.29,1.17,4.52,2.25,6.65,3.18,1.06.46,2.1.88,3.11,1.25s2,.61,3,.83c3.84.88,7.11.84,9.5-.73l3.22.5c1.08.14,2.17.24,3.25.36l6.48.68c-7.88-2.6-7-3.36-4.92-3.9s5.27-.85,2.26-2.48a27.5,27.5,0,0,1,9,3.83c1,.69,1.66,1.25,1.52,1.6s-1.06.48-3,0l-1.08-.77c-1,.93-.31,1.85,1.3,2.75a36.94,36.94,0,0,0,6.8,2.33c2.64.73,5.36,1.42,7.36,2.13a16.72,16.72,0,0,1,2.37,1c.54.34.8.69.66,1.07q6.08,1,12.08,2.19c1,.21,2,.36,3,.5l3,.44,6,.9,3,.47c1,.16,2,.32,3,.41l6,.67,6,.68c1,.1,2,.25,3,.32l3,.2,11.94.79c4,.13,7.93.13,11.87.18,2,0,3.94.07,5.91,0l5.87-.29,5.84-.33,2.91-.18c1-.06,1.93-.21,2.89-.32-1.31-1.07-2.61-2.1-3.9-3.25,3.55-.26,7.09-.72,10.63-1.08,2.9.49,4.16,2.36-3.5,3.18,2.13.78,5.29-.06,7.9-1.2.65-.28,1.27-.58,1.83-.88s1.06-.65,1.48-.94c.84-.59,1.36-1.08,1.38-1.28,7.48-.59,6.25.72,3.67,2.08s-6.52,2.8-4.23,2.44l6.17-1.38-1.47-.17c2.38-1.19,3.6-2.19,5.36-3.07a19.23,19.23,0,0,1,3.26-1.26,45.16,45.16,0,0,1,5.3-1.39c5.84-.6,3.43,1.52,5.7,1.14.05.26.84.2,3.48-.7,4.42-1,8.8-2.24,13.21-3.37l-6-1.29a54.83,54.83,0,0,1,7.27-3c.76-.32,1.12-.63.88-.9a7.59,7.59,0,0,0-2.84-.89,10.43,10.43,0,0,0,2.23.24,27.1,27.1,0,0,0,2.78-.22,63.93,63.93,0,0,0,6.91-1.39c5.14-1.15,10.89-3.46,16.56-5.65,2.85-1,5.55-2.38,8.15-3.57l7.21-3.32c1.1-.47,2.1-1,3-1.45s1.78-.87,2.55-1.23a18.48,18.48,0,0,1,3.42-1.31,58.41,58.41,0,0,1,5-3.94c1.71-1.28,3.46-2.52,5.3-3.7,3.68-2.39,7.76-4.53,12.08-7.26-2.46.86-5.42-1.1,2.11-5.45.24,1.83,1.3,2.36,2.9,2.12a18.55,18.55,0,0,0,6.06-2.6c2.31-1.34,4.86-2.93,7.38-4.19a30.1,30.1,0,0,1,3.72-1.61,12.06,12.06,0,0,1,3.39-.83c-3.5.72,1.36-3.34,5.72-7.24a28.61,28.61,0,0,0,4.94-5.26c.79-1.3.4-1.88-2.21-1.12,5.89-4.39,2,1.62,7.22-.86,1.44-1.71,3.06-3.28,4.63-5s3.25-3.35,5-5,3.59-3.26,5.41-5,3.64-3.44,5.52-5.18,3.84-3.48,5.69-5.33,3.69-3.77,5.53-5.72l2.75-2.94,1.37-1.5,1.28-1.58c1.69-2.11,3.36-4.27,5-6.49-.49-.8-3.79,1.23-2-3.22,3.58-2.06,6.88-4.38,10.34-6.66,1.08-1.89.61-3.43.76-5.07a5.27,5.27,0,0,1,.94-2.61,12.37,12.37,0,0,1,3.31-3.26c-1.22.53-3,1.3-1.72-1.27,1.65-2.08,3.28-4.2,4.87-6.36l1.19-1.62c.38-.54.74-1.11,1.11-1.67l2.16-3.39q2.15-3.42,4.22-6.89c1.37-2.33,2.55-4.76,3.81-7.16l3.65-7.27,3.25-7.48c1-2.51,2.18-5,3.15-7.54l2.85-7.66,1.43-3.83.72-1.92L679,491l2.59-7.76,1.33-3.87c.46-1.28.8-2.61,1.22-3.9.79-2.61,1.62-5.21,2.47-7.8l1.31-3.89,1.17-3.92q1.2-3.91,2.53-7.81c.94-2.59,1.71-5.21,2.57-7.82s1.78-5.23,2.75-7.84c-2.72,5.54-2.18,1.63-1.47-2.8-.91,2.81-2.13-.39-3.41,0,1-2.88,1.86-5.79,2.8-8.71l1.39-4.39.7-2.21c.22-.74.39-1.48.6-2.22-1.52-1.81-1.21-6.63-.9-11.29.07-1.17.19-2.32.18-3.41s0-2.12-.11-3c-.16-1.83-.53-3.2-1.31-3.69l.43,5.72c-1.79-3.87-3.88-1.27-6.24,2s-5.1,7.22-7.45,6.5a12,12,0,0,1,.37,7.06,74.72,74.72,0,0,1-2.72,8.2c-.52,1.44-1,2.92-1.48,4.44-.22.76-.42,1.53-.59,2.31s-.41,1.55-.57,2.34a22.32,22.32,0,0,0,.17,10.07c-1.47,2.71-1.08-2.76-2.44-1.42,1.52,3.7.91,7.79-1.66,14.92l-.3-1c-.28,1.29-.54,2.54-.8,3.75s-.64,2.34-1,3.45c-.65,2.23-1.28,4.32-1.92,6.32l-1,2.93c-.31,1-.64,1.9-1,2.82-.75,1.84-1.51,3.63-2.28,5.45L662.59,486c-.39,1-.87,1.89-1.35,2.85s-1,1.94-1.46,2.95c-1,2-2,4.16-3.14,6.45L655.8,500l-.95,1.77-2,3.77,2.89-.63c-2.39,4.51-3.5,5.17-5,7.08.84,6.87,6.07-12.93,7.49-6.46-1.8,1.06-3.63,3.64-5.47,6.93-.87,1.66-2,3.41-3,5.29l-3,5.73-1.52,2.86c-.53.93-1.09,1.82-1.63,2.69-1.09,1.75-2.16,3.37-3.2,4.78-2.08,2.81-4,4.76-5.83,5-4.22,6.52,3.57-.49-.68,6.07l-2.36.94.53,2.71a16.37,16.37,0,0,1-2.24,2.56,11.28,11.28,0,0,1-2.13,1.49,3.49,3.49,0,0,1-2.91.53,32.08,32.08,0,0,0,2.42-4.19c-2.63,2.19-5.18,6-7.31,9.55-1,1.78-2.12,3.35-3,4.65a13.14,13.14,0,0,1-2,2.58c1.77-1.77,3.58-3.51,5.31-5.32-1.45,2.22-3.07,4.41-4.71,6.66L613,570.41l-1.29,1.7c-.44.55-.92,1.09-1.38,1.64l-5.65,6.6c-1,1.09-1.87,2.24-2.9,3.28l-3,3.19q-3,3.2-6,6.4c-2.06,2-4.08,4.08-6,6.12-3.83,4.19-7.79,8-11.18,12l1.91-.17c-1.33,1.48-2.48,2.74-3.54,3.76s-2,1.79-2.9,2.47a39.39,39.39,0,0,1-4.6,3.09c-1.47.84-2.94,1.77-5,3a82.31,82.31,0,0,0-7.94,5.73l.36-.59c-2.13,3-5.81,5.92-9.88,8.4,3-3.47-8.28,2.29-4.22-2l-2.24,1.89-1.88,1.47c-1.12.88-2,1.58-2.67,2.17a13,13,0,0,0-2.43,2.49c-.43.64-.68,1.24-1.31,2.27a28,28,0,0,1-3.7,4.69l-3.21-.44a39.67,39.67,0,0,1-3.25,3.88,28.13,28.13,0,0,1-7,4.59c2.95-2.2,1.36-2.26-.14-2.43s-2.91-.45.27-3a47.3,47.3,0,0,0-11.39,3.87,92.88,92.88,0,0,0-8.28,4.33c-1.21.69-2.36,1.34-3.47,1.9a15.28,15.28,0,0,1-3.31,1.33,11.84,11.84,0,0,1-6.85,0c-3.12,3.76.8,3.19,5.06,2,1.06-.31,2.14-.65,3.13-1s1.86-.71,2.56-1c1.38-.52,2-.69,1,0,2.13.07.87,1.6-1.66,3.33a35.18,35.18,0,0,1-9.25,4,11,11,0,0,1-4.38.35c-1.56-.12-3.28-.54-5.23-.8a34.91,34.91,0,0,0-6.74-.38,35.37,35.37,0,0,0-4.18.45,46.07,46.07,0,0,0-4.91.89c1.41-.3,1.42-.7,2.83-1-2.81,0-5.29,1-8,2a29.78,29.78,0,0,1-4.2,1.27,16.41,16.41,0,0,1-4.82.08c-3.13,3.71-8.54,1.35-9,5.45l13.08-3.27c-3.64,1.17-7,3.22-11.15,5a30.66,30.66,0,0,1-6.88,2,38,38,0,0,1-8.59.53c.9-.92,4.51-2.44,7-3.35a12.77,12.77,0,0,0-5.38.49,11.12,11.12,0,0,1-5.49.36c.17-1,1.28-1.6,2.93-2.13A43.24,43.24,0,0,1,423,678c2.44-.37,5.11-.71,7.63-1.24a27,27,0,0,0,6.73-2.55,9.07,9.07,0,0,0-4,.37c-1.5.38-3.08,1-4.46,1.34-2.75.74-4.56,1-2.84-1.35-2.51,3.07-6.11,3.35-10.18,3.54-4.11,0-8.67-.17-13.46,2.29L403,678c-.76.22-1.93.76-3.27,1.08a18,18,0,0,1-4.29.66l5-3.21c-3.88,1.41-7.74.93-11.51.31l-5.61-1a18.32,18.32,0,0,0-5.63,0,34.9,34.9,0,0,1,7.32.63c1.18.32,1.34.69,1.22,1.18-.25.94-1.67,2.15,1.72,2.92a31.27,31.27,0,0,1-6.22.61,20.49,20.49,0,0,1-4.26-.37,14.94,14.94,0,0,1-5.32-2.29,26.29,26.29,0,0,0-5.64-2.89c-2.54-.89-6.07-1.46-11.51-1.68,2.94,0,10.93,2.28,6.22,3-1-.2-2.14-.44-3.26-.7a28.32,28.32,0,0,1-3.34-.91,24.92,24.92,0,0,1-5.27-2.29c-7.18-.66-6.73,0-5.25.94s4,2.1.83,2.43a6.8,6.8,0,0,0-6.13-1.27c-2.06.42-4.39,1.27-7.66,1.15l.4-2.38a46,46,0,0,0-4.87-1.1,13.65,13.65,0,0,0-2.94-.33,3.69,3.69,0,0,0-2.66,1c-1.13,1-2.09,2-9.25-.63l7-1.82-3.91-.46c-1.3-.16-2.62-.27-3.9-.52.75-.74,1.49-1.45,2.24-2.23a39.91,39.91,0,0,1-9.76-1.28c-1.32-.36-2.62-.81-4.08-1.35s-3-1.32-4.91-2.15c1.3,2.24-2.38,3.82-9.48,1.5-1.09-.73-1.4-1.21-1.43-1.52s.22-.46.3-.62c.14-.32-.42-.68-5.35-2.44a13.57,13.57,0,0,1,4.36-.42,6.8,6.8,0,0,1,2.37.76,9.61,9.61,0,0,1,2.57,1.89c.7-.59,2.7-.69,3.4-1.27-4.59-3.12-12.48-5-16-6.38a17.74,17.74,0,0,1,3.56,2c-2.53-.41-5.1-.77-7.64-1.24l-7.57-1.59c-1.81-1.81.23-1.69,2.22-1.57a29.57,29.57,0,0,0-4.25-1,20.86,20.86,0,0,1-5.2-1.63c1.91-1.24,2.51-3.08,8.64-1.36-4.66-1.2-9.16-2.81-13.75-4.33a22.52,22.52,0,0,0-2.63-3.12c-1.06-1.15-1.73-2.25-.77-2.09-3.11-2.48-7.76-4-12.68-5.85-2.4-1-4.88-2.08-7.26-3.33a27.11,27.11,0,0,1-6.59-4.51,9.39,9.39,0,0,1-3.75-1.41c-1.95-1.52-3.77-3.11-5.57-4.69s-3.46-3.35-5.28-5a67.72,67.72,0,0,0-5.87-4.74,47.22,47.22,0,0,0-7-4.54l-1.34-3.48-.66-1.74-.6-1.78c-3.55-2.84-2.7-.5-2.42,1.39s0,3.32-6.05-1.52c-4.34-3.37-4.56-4.59-3.92-5.42s2-1.17,1.09-2.88a73.38,73.38,0,0,1-9.5-5.63c-.44-.32-.88-.65-1.32-1s-.83-.75-1.24-1.14a32.27,32.27,0,0,1-2.38-2.55,27.78,27.78,0,0,1-4-6.23C164.16,574.71,165.45,577,167.66,579.15Zm-58.54-96.58c.59,1,1.6,2.35,2.37,3.75s1.42,2.74,1.05,3.74a4.24,4.24,0,0,1-2.89-2.81A35.38,35.38,0,0,1,109.12,482.57ZM96.54,310.49c.32,1.81-.58,4.24-2.15,6.88A20.63,20.63,0,0,1,96.54,310.49Zm392-222.75a1.2,1.2,0,0,0-.28,0C483.52,85.17,485.18,86.13,488.53,87.74Zm10,4.75c1.15.09,1.2-.25.89-.74-.94.3-3.24-.59-5.81-1.75C494.1,90.85,495.25,91.8,498.5,92.49ZM460.68,690.28l-2.23-.13C463,688.39,461.81,689.31,460.68,690.28Z"/><path class="cls-1" d="M95.46,330.66a2.16,2.16,0,0,1-1.46.69C94.24,332.3,94.7,332.39,95.46,330.66Z"/><path class="cls-1" d="M221,624.75l.27.22a1,1,0,0,0,.53-.16Z"/><path class="cls-1" d="M334.77,96.43a12,12,0,0,1-4.24-.5C330.52,96.53,331.56,96.85,334.77,96.43Z"/><path class="cls-1" d="M552.73,114.8c-2.08-1.15-4.28-2.1-6.44-3.11a16.22,16.22,0,0,1,5.1,3.93C551.56,115.06,550.83,113.63,552.73,114.8Z"/><path class="cls-1" d="M591.73,163.13c.92.47,1.55,1.43,2.46,1.89l.58-1C591.64,161.14,588.89,159.77,591.73,163.13Z"/><path class="cls-1" d="M553.93,125.09c-.31,1,.53,1.94,2,2.92.73.49,1.62,1,2.59,1.51l3,1.78c-.24-.17-.48-.31-.7-.5,1.39-.76.89-1.69-.55-2.72A39.32,39.32,0,0,0,553.93,125.09Z"/><path class="cls-1" d="M562.47,131.89a34.54,34.54,0,0,1,3.69,2.56C567.29,133.86,564.81,133.2,562.47,131.89Z"/><path class="cls-1" d="M511.93,96.54c1.93,1.44,2.39-1.77,3.28-.46,1.73-.64-2.19-1.55-5-1.78-1.38-.13-2.51,0-2.51.31S508.87,95.51,511.93,96.54Z"/><polygon class="cls-1" points="553.55 132.78 553.49 129.77 550.13 130.01 553.55 132.78"/><path class="cls-1" d="M521.84,112.33l6.49,4.11c.09-.43,1.07-.2,2.23.18C526.4,114.39,522,111.59,521.84,112.33Z"/><path class="cls-1" d="M530.56,116.62a26.74,26.74,0,0,0,5.57,2.67A42.49,42.49,0,0,0,530.56,116.62Z"/><path class="cls-1" d="M544.4,127.81c-.54-.55-1.07-1.12-1.63-1.65l-4.56-2.83,3.12,2.2,1.56,1.1Z"/><path class="cls-1" d="M444.27,85.47l-8.35-.76c-1,.7,1.17,1.62,4.27,1.82C442.26,86.29,445.37,86.51,444.27,85.47Z"/><path class="cls-1" d="M467,98c-2-1.11-2-1.69-3-2.83l-1,2.93Z"/><path class="cls-1" d="M443.69,93.07c-1,.7-12.05.37-1.9,2,.48-.34,2.76-.36,4-.48.62,0,1-.15.76-.39a2.86,2.86,0,0,0-.84-.47C445.26,93.53,444.6,93.33,443.69,93.07Z"/><polygon class="cls-1" points="320.76 90.49 322.81 89.97 321.45 85.06 320.76 90.49"/><path class="cls-1" d="M226.79,143c8.58-4,.18-3.9,8.22-7.14.66-1.06-1-.51-2.65.22s-3.23,1.41-2.55.35C225.65,140.56,222.75,141.57,226.79,143Z"/><path class="cls-1" d="M229.81,136.39c.67-.67,1.37-1.41,2.07-2.25A14,14,0,0,0,229.81,136.39Z"/><path class="cls-1" d="M701.09,404.05c.57-2.16.88-4.35,1.32-6.53l-1.82,4.17C700.79,402.48,700.92,403.26,701.09,404.05Z"/><path class="cls-1" d="M697.73,391.37l3.28-1.49-2.84-3.95C698.28,387.4,698.49,390.26,697.73,391.37Z"/><path class="cls-1" d="M110.3,464.63l-.87-.22c-.56,1.12-.24,2.49.4,5.23Z"/><polygon class="cls-1" points="141.09 539.49 140.39 538.27 139.32 542.05 141.09 539.49"/><path class="cls-1" d="M186.63,589.93c-.94-1-2.16-1.91-3.29-2.91a32.9,32.9,0,0,1-3.17-3C184.62,588,184.65,593,186.63,589.93Z"/></g></g></g></svg>